<?xml version="1.0" standalone="no"?>
<!DOCTYPE svg PUBLIC "-//W3C//DTD SVG 20010904//EN"
 "http://www.w3.org/TR/2001/REC-SVG-20010904/DTD/svg10.dtd">
<svg version="1.0" xmlns="http://www.w3.org/2000/svg"
 width="750.000000pt" height="750.000000pt" viewBox="0 0 750.000000 750.000000"
 preserveAspectRatio="xMidYMid meet">
<metadata>
Created by potrace 1.14, written by Peter Selinger 2001-2017
</metadata>
<g transform="translate(0.000000,750.000000) scale(0.100000,-0.100000)"
fill="#000000" stroke="none">
<path d="M3550 7270 c-567 -37 -1078 -190 -1556 -466 -882 -509 -1498 -1370
-1693 -2365 -48 -249 -64 -407 -64 -669 0 -489 72 -879 244 -1317 180 -457
461 -879 816 -1224 555 -541 1231 -867 2018 -974 160 -22 553 -31 726 -16 594
50 1165 248 1656 573 211 140 335 240 517 418 596 582 944 1292 1048 2140 17
141 17 621 0 765 -32 259 -94 532 -171 756 -390 1127 -1321 1987 -2463 2274
-348 87 -748 126 -1078 105z m-1286 -948 c3 -5 -6 -37 -20 -71 -22 -53 -25
-78 -26 -174 0 -62 7 -164 16 -227 46 -330 35 -622 -29 -772 -17 -42 25 -12
118 83 113 115 180 212 226 327 39 95 56 115 77 87 34 -46 5 -197 -62 -326
-19 -36 -73 -117 -121 -180 -224 -296 -255 -338 -287 -399 -45 -86 -66 -160
-66 -235 0 -58 3 -65 40 -107 47 -54 105 -81 222 -103 48 -9 126 -27 174 -40
49 -13 89 -23 91 -22 1 2 -4 23 -11 49 -23 73 -39 234 -33 319 6 92 37 166 79
189 41 22 56 1 73 -110 36 -218 176 -565 257 -635 23 -19 48 -35 55 -35 18 0
30 33 38 114 6 49 14 75 31 94 21 25 24 26 40 10 12 -12 19 -44 25 -115 10
-108 26 -203 39 -236 4 -12 32 -49 60 -82 29 -33 83 -102 121 -152 l69 -93
288 0 288 0 44 63 c52 74 149 195 178 221 26 23 49 123 61 270 10 111 22 143
53 131 24 -9 38 -44 47 -121 5 -39 14 -81 20 -93 l12 -22 29 21 c46 33 87 89
131 177 56 115 135 359 155 478 9 55 21 106 26 113 31 38 99 -25 117 -108 21
-99 6 -326 -28 -414 -7 -16 -10 -30 -8 -32 1 -2 43 8 92 21 50 14 117 30 150
36 125 22 174 40 225 86 63 57 75 93 60 180 -23 137 -81 235 -295 508 -172
220 -239 352 -251 495 -6 67 10 111 34 96 6 -4 40 -66 76 -139 55 -115 76
-146 158 -237 80 -90 155 -157 164 -148 1 2 -9 41 -24 88 -25 81 -26 95 -26
315 0 183 5 264 23 400 26 195 24 309 -9 383 -29 66 -27 82 13 82 43 0 91 -30
153 -96 57 -62 87 -68 154 -34 61 31 115 40 184 29 147 -24 155 -80 23 -183
-177 -138 -250 -276 -278 -521 -17 -160 1 -286 76 -525 62 -196 78 -297 72
-440 -3 -63 -9 -128 -13 -145 -7 -29 -6 -28 56 25 96 83 183 200 250 335 71
143 97 236 105 382 9 136 -6 209 -75 379 -27 68 -53 149 -56 179 -12 96 41
188 106 188 27 0 30 4 40 53 6 29 18 58 25 64 19 16 56 6 93 -25 40 -34 108
-173 132 -270 26 -109 42 -325 30 -418 -31 -243 -81 -437 -165 -629 -19 -45
91 6 198 91 139 111 243 301 317 579 10 39 14 43 38 40 20 -2 33 -14 50 -48
21 -40 23 -54 18 -121 -9 -111 -30 -181 -92 -306 -90 -182 -263 -357 -430
-434 -65 -30 -206 -69 -248 -69 -17 0 -50 -19 -91 -53 -151 -125 -482 -257
-643 -257 -72 0 -20 -12 144 -32 106 -13 232 -21 339 -22 257 -1 357 30 572
176 118 80 167 94 202 59 17 -17 21 -33 21 -88 0 -104 -51 -197 -144 -265
l-40 -29 65 7 c82 8 98 -5 80 -66 -15 -52 -79 -113 -160 -153 -56 -27 -77 -32
-160 -35 -105 -4 -102 -5 -469 97 -101 28 -187 51 -191 51 -4 0 -81 -116 -171
-257 -147 -231 -175 -269 -265 -358 -106 -106 -200 -166 -313 -199 l-53 -15
27 32 c15 18 104 119 198 226 94 106 173 197 174 202 7 17 -22 9 -102 -30
-140 -68 -257 -180 -345 -331 -56 -95 -89 -185 -132 -360 -42 -173 -96 -335
-139 -421 -16 -31 -76 -137 -133 -236 -57 -98 -112 -193 -121 -211 -26 -50
-54 -175 -66 -292 -13 -130 -46 -208 -119 -279 -80 -78 -127 -96 -246 -96
-122 0 -171 20 -256 105 -70 69 -95 134 -114 287 -26 202 -39 237 -187 495
-175 303 -196 354 -269 643 -62 244 -118 368 -225 499 -83 100 -242 209 -338
232 -25 6 -3 -24 145 -192 97 -109 190 -216 208 -236 l33 -37 -54 15 c-114 34
-235 112 -341 220 -38 38 -119 153 -229 324 -94 146 -172 267 -173 268 -2 2
-88 -20 -192 -48 -369 -102 -369 -102 -473 -98 -116 4 -185 34 -268 113 -50
50 -53 55 -50 96 l3 44 70 -2 c58 -1 67 0 50 10 -42 25 -118 111 -138 155 -11
26 -22 77 -25 114 -4 62 -3 68 22 93 40 40 77 30 211 -60 210 -139 300 -167
545 -169 151 0 435 24 508 43 21 6 12 9 -43 14 -186 18 -476 141 -612 260 -39
34 -63 47 -84 47 -51 0 -190 40 -259 74 -96 47 -213 139 -291 230 -87 100
-190 298 -209 403 -30 158 -8 268 55 268 25 0 30 -5 38 -35 44 -175 108 -323
196 -454 38 -56 72 -90 138 -140 79 -60 166 -106 178 -95 2 3 -14 52 -36 109
-46 121 -90 289 -114 440 -23 137 -16 383 15 510 50 205 174 362 231 291 10
-12 21 -42 25 -67 5 -34 10 -44 21 -40 31 12 80 -21 103 -69 31 -64 24 -152
-20 -255 -86 -198 -105 -297 -90 -460 13 -137 37 -215 111 -360 66 -129 134
-221 234 -312 l68 -62 -6 34 c-4 19 -9 80 -13 135 -8 127 11 248 67 422 73
231 83 282 83 443 1 293 -77 468 -274 622 -90 71 -111 105 -87 141 35 54 179
66 272 23 86 -39 109 -36 168 25 27 28 65 62 84 75 35 23 97 33 107 16z"/>
<path d="M2300 3873 c-71 -8 -266 -42 -290 -51 -18 -7 4 -11 86 -16 340 -22
654 -119 906 -282 90 -58 128 -77 128 -64 0 29 -72 133 -134 195 -158 156
-444 246 -696 218z"/>
<path d="M4966 3870 c-194 -31 -359 -106 -468 -213 -61 -60 -138 -172 -138
-201 0 -9 45 15 110 59 89 59 286 152 415 194 189 63 395 100 567 102 l63 0
-45 14 c-120 37 -397 61 -504 45z"/>
</g>
</svg>
