<svg xmlns="http://www.w3.org/2000/svg" xmlns:xlink="http://www.w3.org/1999/xlink" width="300" zoomAndPan="magnify" viewBox="0 0 900 149.999998" height="50" preserveAspectRatio="xMidYMid meet" version="1.0"><defs><g/><clipPath id="id1"><path d="M 432.152344 93.074219 L 468.152344 93.074219 L 468.152344 129.074219 L 432.152344 129.074219 Z M 432.152344 93.074219 " clip-rule="nonzero"/></clipPath></defs><g fill="#ffffff" fill-opacity="0.4"><g transform="translate(32.28852, 82.070088)"><g><path d="M 27.808594 -15.230469 L 33.226562 0 L 37.261719 0 L 22.273438 -41.535156 L 17.277344 -41.535156 L 1.925781 0 L 5.898438 0 L 11.257812 -15.230469 Z M 12.339844 -18.359375 L 19.683594 -38.523438 L 26.726562 -18.359375 Z M 12.339844 -18.359375 "/></g></g></g><g fill="#ffffff" fill-opacity="0.4"><g transform="translate(87.181831, 82.070088)"><g><path d="M 32.867188 -3.070312 L 9.691406 -3.070312 L 9.691406 -41.535156 L 5.960938 -41.535156 L 5.960938 0 L 32.867188 0 Z M 32.867188 -3.070312 "/></g></g></g><g fill="#ffffff" fill-opacity="0.4"><g transform="translate(137.982392, 82.070088)"><g><path d="M 32.867188 -3.070312 L 9.691406 -3.070312 L 9.691406 -41.535156 L 5.960938 -41.535156 L 5.960938 0 L 32.867188 0 Z M 32.867188 -3.070312 "/></g></g></g><g fill="#ffffff" fill-opacity="0.4"><g transform="translate(188.782953, 82.070088)"><g/></g></g><g fill="#ffffff" fill-opacity="0.4"><g transform="translate(218.036385, 82.070088)"><g><path d="M 36.175781 -38.464844 L 36.175781 -41.535156 L 1.988281 -41.535156 L 1.988281 -38.464844 L 17.214844 -38.464844 L 17.214844 0 L 20.949219 0 L 20.949219 -38.464844 Z M 36.175781 -38.464844 "/></g></g></g><g fill="#ffffff" fill-opacity="0.4"><g transform="translate(271.12407, 82.070088)"><g><path d="M 37.742188 -41.535156 L 34.011719 -41.535156 L 34.011719 -21.972656 L 9.691406 -21.972656 L 9.691406 -41.535156 L 5.960938 -41.535156 L 5.960938 0 L 9.691406 0 L 9.691406 -18.78125 L 34.011719 -18.78125 L 34.011719 0 L 37.742188 0 Z M 37.742188 -41.535156 "/></g></g></g><g fill="#ffffff" fill-opacity="0.4"><g transform="translate(330.350881, 82.070088)"><g><path d="M 9.691406 0 L 9.691406 -41.535156 L 5.960938 -41.535156 L 5.960938 0 Z M 9.691406 0 "/></g></g></g><g fill="#ffffff" fill-opacity="0.4"><g transform="translate(361.530308, 82.070088)"><g><path d="M 36.839844 0 L 36.777344 -41.535156 L 33.105469 -41.535156 L 33.105469 -20.105469 C 33.105469 -14.929688 33.167969 -8.789062 33.289062 -3.613281 L 11.617188 -41.535156 L 5.960938 -41.535156 L 5.960938 0 L 9.691406 0 L 9.691406 -21.429688 C 9.691406 -26.605469 9.632812 -32.804688 9.511719 -37.921875 L 31.121094 0 Z M 36.839844 0 "/></g></g></g><g fill="#ffffff" fill-opacity="0.4"><g transform="translate(419.91449, 82.070088)"><g><path d="M 23.597656 -19.441406 L 23.597656 -16.371094 L 34.914062 -16.371094 C 34.914062 -6.984375 28.351562 -2.167969 21.730469 -2.167969 C 13.242188 -2.167969 7.101562 -9.210938 7.101562 -20.765625 C 7.101562 -32.082031 13.605469 -39.367188 22.332031 -39.367188 C 29.738281 -39.367188 33.890625 -34.914062 35.152344 -28.59375 L 35.273438 -27.992188 L 39.007812 -27.992188 L 38.945312 -28.59375 C 37.800781 -36.476562 32.445312 -42.378906 22.453125 -42.378906 C 10.957031 -42.378906 2.949219 -33.347656 2.949219 -20.585938 C 2.949219 -7.945312 10.050781 0.84375 21.488281 0.84375 C 26.484375 0.84375 30.878906 -0.964844 33.648438 -4.816406 L 35.273438 -8.546875 L 35.273438 0 L 38.644531 0 L 38.644531 -19.441406 Z M 23.597656 -19.441406 "/></g></g></g><g fill="#ffffff" fill-opacity="0.4"><g transform="translate(479.26167, 82.070088)"><g><path d="M 18.238281 -42.378906 C 10.894531 -42.378906 4.753906 -37.921875 4.753906 -31.179688 C 4.753906 -24.5 9.449219 -21.730469 17.335938 -19.683594 C 25.101562 -17.757812 28.230469 -15.46875 28.230469 -10.113281 C 28.230469 -5.296875 23.835938 -2.167969 18.359375 -2.167969 C 12.398438 -2.167969 7.824219 -5.476562 6.800781 -11.4375 L 2.828125 -11.4375 C 3.730469 -3.429688 9.8125 0.84375 18.238281 0.84375 C 26.183594 0.84375 32.203125 -3.851562 32.203125 -10.714844 C 32.203125 -17.578125 27.75 -20.949219 18.839844 -23.234375 C 11.738281 -25.042969 8.789062 -26.90625 8.789062 -31.964844 C 8.789062 -36.898438 13.183594 -39.367188 17.9375 -39.367188 C 23.414062 -39.367188 27.027344 -36.058594 27.75 -30.398438 L 31.664062 -30.398438 C 30.878906 -37.140625 26.546875 -42.378906 18.238281 -42.378906 Z M 18.238281 -42.378906 "/></g></g></g><g fill="#ffffff" fill-opacity="0.4"><g transform="translate(530.904871, 82.070088)"><g/></g></g><g fill="#ffffff" fill-opacity="0.4"><g transform="translate(560.158303, 82.070088)"><g><path d="M 18.238281 -42.378906 C 10.894531 -42.378906 4.753906 -37.921875 4.753906 -31.179688 C 4.753906 -24.5 9.449219 -21.730469 17.335938 -19.683594 C 25.101562 -17.757812 28.230469 -15.46875 28.230469 -10.113281 C 28.230469 -5.296875 23.835938 -2.167969 18.359375 -2.167969 C 12.398438 -2.167969 7.824219 -5.476562 6.800781 -11.4375 L 2.828125 -11.4375 C 3.730469 -3.429688 9.8125 0.84375 18.238281 0.84375 C 26.183594 0.84375 32.203125 -3.851562 32.203125 -10.714844 C 32.203125 -17.578125 27.75 -20.949219 18.839844 -23.234375 C 11.738281 -25.042969 8.789062 -26.90625 8.789062 -31.964844 C 8.789062 -36.898438 13.183594 -39.367188 17.9375 -39.367188 C 23.414062 -39.367188 27.027344 -36.058594 27.75 -30.398438 L 31.664062 -30.398438 C 30.878906 -37.140625 26.546875 -42.378906 18.238281 -42.378906 Z M 18.238281 -42.378906 "/></g></g></g><g fill="#ffffff" fill-opacity="0.4"><g transform="translate(611.801503, 82.070088)"><g><path d="M 9.691406 0 L 9.691406 -41.535156 L 5.960938 -41.535156 L 5.960938 0 Z M 9.691406 0 "/></g></g></g><g fill="#ffffff" fill-opacity="0.4"><g transform="translate(642.98093, 82.070088)"><g><path d="M 31.964844 -11.074219 C 31.542969 -15.410156 29.796875 -19.203125 26.246094 -20.648438 C 30.578125 -21.730469 34.070312 -25.042969 34.070312 -30.519531 C 34.070312 -37.140625 29.976562 -40.511719 23.835938 -41.292969 C 21.910156 -41.535156 20.285156 -41.535156 18.179688 -41.535156 L 5.960938 -41.535156 L 5.960938 0 L 9.691406 0 L 9.691406 -18.78125 L 18.179688 -18.78125 C 19.140625 -18.78125 20.347656 -18.78125 21.429688 -18.71875 C 25.882812 -18.480469 27.691406 -15.046875 28.230469 -10.65625 C 28.832031 -5.238281 29.554688 -2.648438 30.578125 0 L 34.734375 0 C 33.289062 -2.347656 32.566406 -5.355469 31.964844 -11.074219 Z M 9.691406 -21.910156 L 9.691406 -38.40625 L 18.179688 -38.40625 C 20.164062 -38.40625 21.488281 -38.34375 22.933594 -38.164062 C 27.449219 -37.5 30.039062 -35.09375 30.039062 -30.21875 C 30.039062 -25.34375 27.027344 -22.390625 22.453125 -22.03125 C 21.066406 -21.910156 20.046875 -21.910156 18.238281 -21.910156 Z M 9.691406 -21.910156 "/></g></g></g><g fill="#ffffff" fill-opacity="0.4"><g transform="translate(696.1288, 82.070088)"><g><path d="M 27.808594 -15.230469 L 33.226562 0 L 37.261719 0 L 22.273438 -41.535156 L 17.277344 -41.535156 L 1.925781 0 L 5.898438 0 L 11.257812 -15.230469 Z M 12.339844 -18.359375 L 19.683594 -38.523438 L 26.726562 -18.359375 Z M 12.339844 -18.359375 "/></g></g></g><g fill="#ffffff" fill-opacity="0.4"><g transform="translate(751.022123, 82.070088)"><g><path d="M 9.691406 0 L 9.691406 -41.535156 L 5.960938 -41.535156 L 5.960938 0 Z M 9.691406 0 "/></g></g></g><g fill="#ffffff" fill-opacity="0.4"><g transform="translate(782.201549, 82.070088)"><g><path d="M 35.09375 -41.535156 L 31.363281 -41.535156 L 31.363281 -15.046875 C 31.363281 -13.722656 31.300781 -12.519531 31.179688 -11.375 C 30.699219 -6.140625 27.269531 -2.167969 20.347656 -2.167969 C 13.363281 -2.167969 9.933594 -6.140625 9.449219 -11.375 C 9.332031 -12.519531 9.332031 -13.722656 9.332031 -15.046875 L 9.332031 -41.535156 L 5.597656 -41.535156 L 5.597656 -14.867188 C 5.597656 -13.664062 5.597656 -12.460938 5.71875 -11.015625 C 6.261719 -4.273438 10.835938 0.84375 20.347656 0.84375 C 29.796875 0.84375 34.429688 -4.273438 34.914062 -11.015625 C 35.035156 -12.460938 35.09375 -13.664062 35.09375 -14.867188 Z M 35.09375 -41.535156 "/></g></g></g><g fill="#ffffff" fill-opacity="0.4"><g transform="translate(838.358849, 82.070088)"><g><path d="M 18.238281 -42.378906 C 10.894531 -42.378906 4.753906 -37.921875 4.753906 -31.179688 C 4.753906 -24.5 9.449219 -21.730469 17.335938 -19.683594 C 25.101562 -17.757812 28.230469 -15.46875 28.230469 -10.113281 C 28.230469 -5.296875 23.835938 -2.167969 18.359375 -2.167969 C 12.398438 -2.167969 7.824219 -5.476562 6.800781 -11.4375 L 2.828125 -11.4375 C 3.730469 -3.429688 9.8125 0.84375 18.238281 0.84375 C 26.183594 0.84375 32.203125 -3.851562 32.203125 -10.714844 C 32.203125 -17.578125 27.75 -20.949219 18.839844 -23.234375 C 11.738281 -25.042969 8.789062 -26.90625 8.789062 -31.964844 C 8.789062 -36.898438 13.183594 -39.367188 17.9375 -39.367188 C 23.414062 -39.367188 27.027344 -36.058594 27.75 -30.398438 L 31.664062 -30.398438 C 30.878906 -37.140625 26.546875 -42.378906 18.238281 -42.378906 Z M 18.238281 -42.378906 "/></g></g></g><g fill="#ffffff" fill-opacity="1"><g transform="translate(29.628221, 79.40979)"><g><path d="M 27.808594 -15.230469 L 33.226562 0 L 37.261719 0 L 22.273438 -41.535156 L 17.277344 -41.535156 L 1.925781 0 L 5.898438 0 L 11.257812 -15.230469 Z M 12.339844 -18.359375 L 19.683594 -38.523438 L 26.726562 -18.359375 Z M 12.339844 -18.359375 "/></g></g></g><g fill="#ffffff" fill-opacity="1"><g transform="translate(84.521532, 79.40979)"><g><path d="M 32.867188 -3.070312 L 9.691406 -3.070312 L 9.691406 -41.535156 L 5.960938 -41.535156 L 5.960938 0 L 32.867188 0 Z M 32.867188 -3.070312 "/></g></g></g><g fill="#ffffff" fill-opacity="1"><g transform="translate(135.322093, 79.40979)"><g><path d="M 32.867188 -3.070312 L 9.691406 -3.070312 L 9.691406 -41.535156 L 5.960938 -41.535156 L 5.960938 0 L 32.867188 0 Z M 32.867188 -3.070312 "/></g></g></g><g fill="#ffffff" fill-opacity="1"><g transform="translate(186.122654, 79.40979)"><g/></g></g><g fill="#ffffff" fill-opacity="1"><g transform="translate(215.376086, 79.40979)"><g><path d="M 36.175781 -38.464844 L 36.175781 -41.535156 L 1.988281 -41.535156 L 1.988281 -38.464844 L 17.214844 -38.464844 L 17.214844 0 L 20.949219 0 L 20.949219 -38.464844 Z M 36.175781 -38.464844 "/></g></g></g><g fill="#ffffff" fill-opacity="1"><g transform="translate(268.463771, 79.40979)"><g><path d="M 37.742188 -41.535156 L 34.011719 -41.535156 L 34.011719 -21.972656 L 9.691406 -21.972656 L 9.691406 -41.535156 L 5.960938 -41.535156 L 5.960938 0 L 9.691406 0 L 9.691406 -18.78125 L 34.011719 -18.78125 L 34.011719 0 L 37.742188 0 Z M 37.742188 -41.535156 "/></g></g></g><g fill="#ffffff" fill-opacity="1"><g transform="translate(327.690583, 79.40979)"><g><path d="M 9.691406 0 L 9.691406 -41.535156 L 5.960938 -41.535156 L 5.960938 0 Z M 9.691406 0 "/></g></g></g><g fill="#ffffff" fill-opacity="1"><g transform="translate(358.870009, 79.40979)"><g><path d="M 36.839844 0 L 36.777344 -41.535156 L 33.105469 -41.535156 L 33.105469 -20.105469 C 33.105469 -14.929688 33.167969 -8.789062 33.289062 -3.613281 L 11.617188 -41.535156 L 5.960938 -41.535156 L 5.960938 0 L 9.691406 0 L 9.691406 -21.429688 C 9.691406 -26.605469 9.632812 -32.804688 9.511719 -37.921875 L 31.121094 0 Z M 36.839844 0 "/></g></g></g><g fill="#ffffff" fill-opacity="1"><g transform="translate(417.254191, 79.40979)"><g><path d="M 23.597656 -19.441406 L 23.597656 -16.371094 L 34.914062 -16.371094 C 34.914062 -6.984375 28.351562 -2.167969 21.730469 -2.167969 C 13.242188 -2.167969 7.101562 -9.210938 7.101562 -20.765625 C 7.101562 -32.082031 13.605469 -39.367188 22.332031 -39.367188 C 29.738281 -39.367188 33.890625 -34.914062 35.152344 -28.59375 L 35.273438 -27.992188 L 39.007812 -27.992188 L 38.945312 -28.59375 C 37.800781 -36.476562 32.445312 -42.378906 22.453125 -42.378906 C 10.957031 -42.378906 2.949219 -33.347656 2.949219 -20.585938 C 2.949219 -7.945312 10.050781 0.84375 21.488281 0.84375 C 26.484375 0.84375 30.878906 -0.964844 33.648438 -4.816406 L 35.273438 -8.546875 L 35.273438 0 L 38.644531 0 L 38.644531 -19.441406 Z M 23.597656 -19.441406 "/></g></g></g><g fill="#ffffff" fill-opacity="1"><g transform="translate(476.601371, 79.40979)"><g><path d="M 18.238281 -42.378906 C 10.894531 -42.378906 4.753906 -37.921875 4.753906 -31.179688 C 4.753906 -24.5 9.449219 -21.730469 17.335938 -19.683594 C 25.101562 -17.757812 28.230469 -15.46875 28.230469 -10.113281 C 28.230469 -5.296875 23.835938 -2.167969 18.359375 -2.167969 C 12.398438 -2.167969 7.824219 -5.476562 6.800781 -11.4375 L 2.828125 -11.4375 C 3.730469 -3.429688 9.8125 0.84375 18.238281 0.84375 C 26.183594 0.84375 32.203125 -3.851562 32.203125 -10.714844 C 32.203125 -17.578125 27.75 -20.949219 18.839844 -23.234375 C 11.738281 -25.042969 8.789062 -26.90625 8.789062 -31.964844 C 8.789062 -36.898438 13.183594 -39.367188 17.9375 -39.367188 C 23.414062 -39.367188 27.027344 -36.058594 27.75 -30.398438 L 31.664062 -30.398438 C 30.878906 -37.140625 26.546875 -42.378906 18.238281 -42.378906 Z M 18.238281 -42.378906 "/></g></g></g><g fill="#ffffff" fill-opacity="1"><g transform="translate(528.244572, 79.40979)"><g/></g></g><g fill="#ffffff" fill-opacity="1"><g transform="translate(557.498004, 79.40979)"><g><path d="M 18.238281 -42.378906 C 10.894531 -42.378906 4.753906 -37.921875 4.753906 -31.179688 C 4.753906 -24.5 9.449219 -21.730469 17.335938 -19.683594 C 25.101562 -17.757812 28.230469 -15.46875 28.230469 -10.113281 C 28.230469 -5.296875 23.835938 -2.167969 18.359375 -2.167969 C 12.398438 -2.167969 7.824219 -5.476562 6.800781 -11.4375 L 2.828125 -11.4375 C 3.730469 -3.429688 9.8125 0.84375 18.238281 0.84375 C 26.183594 0.84375 32.203125 -3.851562 32.203125 -10.714844 C 32.203125 -17.578125 27.75 -20.949219 18.839844 -23.234375 C 11.738281 -25.042969 8.789062 -26.90625 8.789062 -31.964844 C 8.789062 -36.898438 13.183594 -39.367188 17.9375 -39.367188 C 23.414062 -39.367188 27.027344 -36.058594 27.75 -30.398438 L 31.664062 -30.398438 C 30.878906 -37.140625 26.546875 -42.378906 18.238281 -42.378906 Z M 18.238281 -42.378906 "/></g></g></g><g fill="#ffffff" fill-opacity="1"><g transform="translate(609.141205, 79.40979)"><g><path d="M 9.691406 0 L 9.691406 -41.535156 L 5.960938 -41.535156 L 5.960938 0 Z M 9.691406 0 "/></g></g></g><g fill="#ffffff" fill-opacity="1"><g transform="translate(640.320631, 79.40979)"><g><path d="M 31.964844 -11.074219 C 31.542969 -15.410156 29.796875 -19.203125 26.246094 -20.648438 C 30.578125 -21.730469 34.070312 -25.042969 34.070312 -30.519531 C 34.070312 -37.140625 29.976562 -40.511719 23.835938 -41.292969 C 21.910156 -41.535156 20.285156 -41.535156 18.179688 -41.535156 L 5.960938 -41.535156 L 5.960938 0 L 9.691406 0 L 9.691406 -18.78125 L 18.179688 -18.78125 C 19.140625 -18.78125 20.347656 -18.78125 21.429688 -18.71875 C 25.882812 -18.480469 27.691406 -15.046875 28.230469 -10.65625 C 28.832031 -5.238281 29.554688 -2.648438 30.578125 0 L 34.734375 0 C 33.289062 -2.347656 32.566406 -5.355469 31.964844 -11.074219 Z M 9.691406 -21.910156 L 9.691406 -38.40625 L 18.179688 -38.40625 C 20.164062 -38.40625 21.488281 -38.34375 22.933594 -38.164062 C 27.449219 -37.5 30.039062 -35.09375 30.039062 -30.21875 C 30.039062 -25.34375 27.027344 -22.390625 22.453125 -22.03125 C 21.066406 -21.910156 20.046875 -21.910156 18.238281 -21.910156 Z M 9.691406 -21.910156 "/></g></g></g><g fill="#ffffff" fill-opacity="1"><g transform="translate(693.468501, 79.40979)"><g><path d="M 27.808594 -15.230469 L 33.226562 0 L 37.261719 0 L 22.273438 -41.535156 L 17.277344 -41.535156 L 1.925781 0 L 5.898438 0 L 11.257812 -15.230469 Z M 12.339844 -18.359375 L 19.683594 -38.523438 L 26.726562 -18.359375 Z M 12.339844 -18.359375 "/></g></g></g><g fill="#ffffff" fill-opacity="1"><g transform="translate(748.361824, 79.40979)"><g><path d="M 9.691406 0 L 9.691406 -41.535156 L 5.960938 -41.535156 L 5.960938 0 Z M 9.691406 0 "/></g></g></g><g fill="#ffffff" fill-opacity="1"><g transform="translate(779.54125, 79.40979)"><g><path d="M 35.09375 -41.535156 L 31.363281 -41.535156 L 31.363281 -15.046875 C 31.363281 -13.722656 31.300781 -12.519531 31.179688 -11.375 C 30.699219 -6.140625 27.269531 -2.167969 20.347656 -2.167969 C 13.363281 -2.167969 9.933594 -6.140625 9.449219 -11.375 C 9.332031 -12.519531 9.332031 -13.722656 9.332031 -15.046875 L 9.332031 -41.535156 L 5.597656 -41.535156 L 5.597656 -14.867188 C 5.597656 -13.664062 5.597656 -12.460938 5.71875 -11.015625 C 6.261719 -4.273438 10.835938 0.84375 20.347656 0.84375 C 29.796875 0.84375 34.429688 -4.273438 34.914062 -11.015625 C 35.035156 -12.460938 35.09375 -13.664062 35.09375 -14.867188 Z M 35.09375 -41.535156 "/></g></g></g><g fill="#ffffff" fill-opacity="1"><g transform="translate(835.69855, 79.40979)"><g><path d="M 18.238281 -42.378906 C 10.894531 -42.378906 4.753906 -37.921875 4.753906 -31.179688 C 4.753906 -24.5 9.449219 -21.730469 17.335938 -19.683594 C 25.101562 -17.757812 28.230469 -15.46875 28.230469 -10.113281 C 28.230469 -5.296875 23.835938 -2.167969 18.359375 -2.167969 C 12.398438 -2.167969 7.824219 -5.476562 6.800781 -11.4375 L 2.828125 -11.4375 C 3.730469 -3.429688 9.8125 0.84375 18.238281 0.84375 C 26.183594 0.84375 32.203125 -3.851562 32.203125 -10.714844 C 32.203125 -17.578125 27.75 -20.949219 18.839844 -23.234375 C 11.738281 -25.042969 8.789062 -26.90625 8.789062 -31.964844 C 8.789062 -36.898438 13.183594 -39.367188 17.9375 -39.367188 C 23.414062 -39.367188 27.027344 -36.058594 27.75 -30.398438 L 31.664062 -30.398438 C 30.878906 -37.140625 26.546875 -42.378906 18.238281 -42.378906 Z M 18.238281 -42.378906 "/></g></g></g><path stroke-linecap="round" transform="matrix(2.248044, 0, 0, 2.133333, 27.633771, 113.465628)" fill="none" stroke-linejoin="miter" d="M 3.999578 -0.000367702 L 161.308186 -0.000367702 " stroke="#ffffff" stroke-width="1" stroke-opacity="1" stroke-miterlimit="4"/><path stroke-linecap="butt" transform="matrix(2.248044, 0, 0, 2.133333, 27.633771, 113.465628)" fill="none" stroke-linejoin="miter" d="M 3.499143 -0.000367702 C 3.499143 0.199217 3.462653 0.389647 3.386198 0.574584 C 3.309743 0.757689 3.20201 0.920653 3.061263 1.059813 C 2.920515 1.200804 2.757179 1.308837 2.574729 1.385741 C 2.390541 1.462645 2.199403 1.499266 1.999576 1.499266 C 1.801487 1.499266 1.610349 1.462645 1.426161 1.385741 C 1.241973 1.308837 1.080374 1.200804 0.939627 1.059813 C 0.79888 0.920653 0.691147 0.757689 0.614692 0.574584 C 0.538236 0.389647 0.500009 0.199217 0.500009 -0.000367702 C 0.500009 -0.198122 0.538236 -0.390382 0.614692 -0.573488 C 0.691147 -0.758424 0.79888 -0.919557 0.939627 -1.060548 C 1.080374 -1.20154 1.241973 -1.309572 1.426161 -1.386476 C 1.610349 -1.46155 1.801487 -1.500002 1.999576 -1.500002 C 2.199403 -1.500002 2.390541 -1.46155 2.574729 -1.386476 C 2.757179 -1.309572 2.920515 -1.20154 3.061263 -1.060548 C 3.20201 -0.919557 3.309743 -0.758424 3.386198 -0.573488 C 3.462653 -0.390382 3.499143 -0.198122 3.499143 -0.000367702 Z M 3.499143 -0.000367702 " stroke="#ffffff" stroke-width="1" stroke-opacity="1" stroke-miterlimit="4"/><path stroke-linecap="round" transform="matrix(2.248262, 0, 0, 2.133333, 508.325474, 111.195677)" fill="none" stroke-linejoin="miter" d="M 0.499828 -0.000170913 L 157.796714 -0.000170913 " stroke="#ffffff" stroke-width="1" stroke-opacity="1" stroke-miterlimit="4"/><path stroke-linecap="butt" transform="matrix(2.248262, 0, 0, 2.133333, 872.084957, 111.195677)" fill="none" stroke-linejoin="miter" d="M -0.49995 -0.000170913 C -0.49995 0.199414 -0.538174 0.389844 -0.614622 0.57478 C -0.69107 0.757886 -0.798792 0.92085 -0.939526 1.06001 C -1.08026 1.201001 -1.241843 1.309033 -1.426013 1.385938 C -1.610183 1.462842 -1.801303 1.499463 -1.999373 1.499463 C -2.19918 1.499463 -2.3903 1.462842 -2.57447 1.385938 C -2.75864 1.309033 -2.920223 1.201001 -3.060957 1.06001 C -3.201691 0.92085 -3.309413 0.757886 -3.385861 0.57478 C -3.462309 0.389844 -3.500533 0.199414 -3.500533 -0.000170913 C -3.500533 -0.199756 -3.462309 -0.390186 -3.385861 -0.573291 C -3.309413 -0.758228 -3.201691 -0.91936 -3.060957 -1.060352 C -2.920223 -1.201343 -2.75864 -1.309375 -2.57447 -1.386279 C -2.3903 -1.461353 -2.19918 -1.499805 -1.999373 -1.499805 C -1.801303 -1.499805 -1.610183 -1.461353 -1.426013 -1.386279 C -1.241843 -1.309375 -1.08026 -1.201343 -0.939526 -1.060352 C -0.798792 -0.91936 -0.69107 -0.758228 -0.614622 -0.573291 C -0.538174 -0.390186 -0.49995 -0.199756 -0.49995 -0.000170913 Z M -0.49995 -0.000170913 " stroke="#ffffff" stroke-width="1" stroke-opacity="1" stroke-miterlimit="4"/><path fill="#ffffff" d="M 450.152344 94.710938 L 466.519531 111.078125 L 450.152344 127.441406 L 433.789062 111.078125 Z M 450.152344 94.710938 " fill-opacity="1" fill-rule="nonzero"/><g clip-path="url(#id1)"><path fill="#ffffff" d="M 450.152344 129.074219 L 432.152344 111.074219 L 450.152344 93.074219 L 468.152344 111.074219 Z M 432.382812 111.074219 L 450.152344 128.84375 L 467.921875 111.074219 L 450.152344 93.304688 Z M 432.382812 111.074219 " fill-opacity="1" fill-rule="nonzero"/></g></svg>