<svg xmlns="http://www.w3.org/2000/svg" xmlns:xlink="http://www.w3.org/1999/xlink" width="700" zoomAndPan="magnify" viewBox="0 0 900 449.999984" height="350" preserveAspectRatio="xMidYMid meet" version="1.0"><defs><filter x="0%" y="0%" width="100%" height="100%" id="id1"><feColorMatrix values="0 0 0 0 1 0 0 0 0 1 0 0 0 0 1 0 0 0 1 0" color-interpolation-filters="sRGB"/></filter><g/><clipPath id="id2"><path d="M 430.871094 400.875 L 469.121094 400.875 L 469.121094 439.125 L 430.871094 439.125 Z M 430.871094 400.875 " clip-rule="nonzero"/></clipPath><mask id="id3"><g filter="url(#id1)"><rect x="-90" width="1080" fill="#000000" y="-44.999998" height="539.99998" fill-opacity="0.2588"/></g></mask><clipPath id="id4"><path d="M 0.914062 1.285156 L 256.882812 1.285156 L 256.882812 257.253906 L 0.914062 257.253906 Z M 0.914062 1.285156 " clip-rule="nonzero"/></clipPath><clipPath id="id5"><rect x="0" width="258" y="0" height="258"/></clipPath><clipPath id="id6"><path d="M 355.28125 100 L 437 100 L 437 182 L 355.28125 182 Z M 355.28125 100 " clip-rule="nonzero"/></clipPath><clipPath id="id7"><path d="M 448.351562 187.894531 L 490.726562 187.894531 L 490.726562 230.011719 L 448.351562 230.011719 Z M 448.351562 187.894531 " clip-rule="nonzero"/></clipPath><clipPath id="id8"><path d="M 464.042969 117 L 545.011719 117 L 545.011719 197.738281 L 464.042969 197.738281 Z M 464.042969 117 " clip-rule="nonzero"/></clipPath><clipPath id="id9"><path d="M 362 50.765625 L 412 50.765625 L 412 100 L 362 100 Z M 362 50.765625 " clip-rule="nonzero"/></clipPath></defs><path stroke-linecap="round" transform="matrix(1.500793, 0, 0, 0.979592, 141.275981, 422.404335)" fill="none" stroke-linejoin="miter" d="M 3.998795 0.00195479 L 176.907427 0.00195479 " stroke="#122c39" stroke-width="1" stroke-opacity="1" stroke-miterlimit="4"/><path stroke-linecap="butt" transform="matrix(1.500793, 0, 0, 0.979592, 141.275981, 422.404335)" fill="none" stroke-linejoin="miter" d="M 3.499059 0.00195479 C 3.499059 0.197349 3.46262 0.388755 3.384537 0.572186 C 3.309056 0.759605 3.202341 0.91911 3.06179 1.058677 C 2.92124 1.202232 2.757264 1.309898 2.575068 1.385663 C 2.39027 1.461428 2.197664 1.501304 1.999852 1.501304 C 1.802039 1.501304 1.609433 1.461428 1.427237 1.385663 C 1.242439 1.309898 1.081066 1.202232 0.940515 1.058677 C 0.799965 0.91911 0.690648 0.759605 0.615167 0.572186 C 0.537083 0.388755 0.500644 0.197349 0.500644 0.00195479 C 0.500644 -0.197427 0.537083 -0.388833 0.615167 -0.572264 C 0.690648 -0.759683 0.799965 -0.919188 0.940515 -1.058755 C 1.081066 -1.20231 1.242439 -1.309976 1.427237 -1.385741 C 1.609433 -1.461506 1.802039 -1.501382 1.999852 -1.501382 C 2.197664 -1.501382 2.39027 -1.461506 2.575068 -1.385741 C 2.757264 -1.309976 2.92124 -1.20231 3.06179 -1.058755 C 3.202341 -0.919188 3.309056 -0.759683 3.384537 -0.572264 C 3.46262 -0.388833 3.499059 -0.197427 3.499059 0.00195479 Z M 3.499059 0.00195479 " stroke="#122c39" stroke-width="1" stroke-opacity="1" stroke-miterlimit="4"/><path stroke-linecap="round" transform="matrix(1.500925, 0, 0, 0.979592, 492.632378, 420.745167)" fill="none" stroke-linejoin="miter" d="M 0.499982 0.000945824 L 173.393401 0.000945824 " stroke="#122c39" stroke-width="1" stroke-opacity="1" stroke-miterlimit="4"/><path stroke-linecap="butt" transform="matrix(1.500925, 0, 0, 0.979592, 758.888045, 420.745167)" fill="none" stroke-linejoin="miter" d="M -0.500576 0.000945824 C -0.500576 0.200327 -0.537012 0.391734 -0.615088 0.575165 C -0.690563 0.758596 -0.79987 0.918101 -0.940409 1.061656 C -1.080947 1.201223 -1.242306 1.308889 -1.427088 1.384654 C -1.609267 1.460419 -1.801857 1.500295 -1.999652 1.500295 C -2.200049 1.500295 -2.390036 1.460419 -2.574818 1.384654 C -2.756997 1.308889 -2.920959 1.201223 -3.061497 1.061656 C -3.202035 0.918101 -3.30874 0.758596 -3.386817 0.575165 C -3.462292 0.391734 -3.498728 0.200327 -3.498728 0.000945824 C -3.498728 -0.198436 -3.462292 -0.389842 -3.386817 -0.573273 C -3.30874 -0.756704 -3.202035 -0.920197 -3.061497 -1.059764 C -2.920959 -1.199331 -2.756997 -1.310985 -2.574818 -1.38675 C -2.390036 -1.462515 -2.200049 -1.498403 -1.999652 -1.498403 C -1.801857 -1.498403 -1.609267 -1.462515 -1.427088 -1.38675 C -1.242306 -1.310985 -1.080947 -1.199331 -0.940409 -1.059764 C -0.79987 -0.920197 -0.690563 -0.756704 -0.615088 -0.573273 C -0.537012 -0.389842 -0.500576 -0.198436 -0.500576 0.000945824 Z M -0.500576 0.000945824 " stroke="#122c39" stroke-width="1" stroke-opacity="1" stroke-miterlimit="4"/><path fill="#122c39" d="M 449.996094 402.617188 L 467.382812 420.003906 L 449.996094 437.390625 L 432.609375 420.003906 Z M 449.996094 402.617188 " fill-opacity="1" fill-rule="nonzero"/><g clip-path="url(#id2)"><path fill="#122c39" d="M 449.996094 439.125 L 430.871094 420 L 449.996094 400.875 L 469.121094 420 Z M 431.113281 420 L 449.996094 438.882812 L 468.875 420 L 449.996094 401.117188 Z M 431.113281 420 " fill-opacity="1" fill-rule="nonzero"/></g><g mask="url(#id3)"><g transform="matrix(1, 0, 0, 1, 321, 3)"><g clip-path="url(#id5)"><g clip-path="url(#id4)"><path fill="#545454" d="M 128.898438 257.253906 C 94.726562 257.253906 62.550781 243.953125 38.410156 219.757812 C 14.214844 195.613281 0.914062 163.4375 0.914062 129.269531 C 0.914062 95.097656 14.214844 62.921875 38.410156 38.78125 C 62.550781 14.585938 94.726562 1.285156 128.898438 1.285156 C 163.066406 1.285156 195.242188 14.585938 219.386719 38.78125 C 243.582031 62.976562 256.882812 95.097656 256.882812 129.269531 C 256.882812 163.4375 243.582031 195.613281 219.386719 219.757812 C 195.242188 243.953125 163.066406 257.253906 128.898438 257.253906 Z M 128.898438 8.957031 C 96.773438 8.957031 66.542969 21.488281 43.832031 44.203125 C 21.117188 66.914062 8.585938 97.144531 8.585938 129.269531 C 8.585938 161.394531 21.117188 191.625 43.832031 214.335938 C 66.542969 237.046875 96.773438 249.578125 128.898438 249.578125 C 161.019531 249.578125 191.253906 237.046875 213.964844 214.335938 C 236.675781 191.625 249.207031 161.394531 249.207031 129.269531 C 249.207031 97.144531 236.675781 66.914062 213.964844 44.203125 C 191.253906 21.488281 161.019531 8.957031 128.898438 8.957031 Z M 128.898438 8.957031 " fill-opacity="1" fill-rule="nonzero"/></g></g></g></g><g clip-path="url(#id6)"><path fill="#06b6d4" d="M 395.707031 167.285156 C 380.992188 167.285156 369.0625 155.382812 369.0625 140.703125 C 369.0625 126.023438 380.992188 114.125 395.707031 114.125 C 410.417969 114.125 422.347656 126.023438 422.347656 140.703125 C 422.347656 155.382812 410.417969 167.285156 395.707031 167.285156 Z M 426.875 149.015625 C 427.359375 147.210938 428.773438 145.804688 430.589844 145.351562 L 435.96875 144.011719 C 436.058594 142.917969 436.105469 141.816406 436.105469 140.703125 C 436.105469 139.601562 436.058594 138.507812 435.972656 137.429688 L 430.59375 136.082031 C 428.777344 135.628906 427.363281 134.222656 426.882812 132.417969 C 426.878906 132.394531 426.871094 132.371094 426.863281 132.351562 C 426.378906 130.546875 426.898438 128.625 428.246094 127.328125 L 432.238281 123.476562 C 431.292969 121.480469 430.1875 119.578125 428.9375 117.777344 L 423.597656 119.300781 C 421.796875 119.8125 419.867188 119.296875 418.546875 117.976562 C 418.53125 117.960938 418.515625 117.949219 418.503906 117.933594 C 417.179688 116.613281 416.664062 114.6875 417.179688 112.894531 L 418.707031 107.5625 C 416.90625 106.316406 415 105.210938 413 104.265625 L 409.140625 108.246094 C 407.835938 109.589844 405.90625 110.105469 404.101562 109.621094 C 404.078125 109.613281 404.058594 109.609375 404.035156 109.601562 C 402.226562 109.121094 400.816406 107.710938 400.363281 105.898438 L 399.019531 100.53125 C 397.925781 100.441406 396.820312 100.394531 395.707031 100.394531 C 394.601562 100.394531 393.503906 100.441406 392.421875 100.527344 L 391.074219 105.894531 C 390.617188 107.707031 389.207031 109.117188 387.398438 109.597656 C 387.378906 109.601562 387.355469 109.609375 387.332031 109.613281 C 385.527344 110.097656 383.597656 109.578125 382.296875 108.238281 L 378.4375 104.253906 C 376.4375 105.199219 374.53125 106.300781 372.726562 107.546875 L 374.253906 112.875 C 374.765625 114.671875 374.25 116.597656 372.925781 117.917969 C 372.910156 117.929688 372.898438 117.945312 372.882812 117.957031 C 371.5625 119.277344 369.628906 119.792969 367.832031 119.277344 L 362.488281 117.753906 C 361.238281 119.550781 360.132812 121.453125 359.183594 123.449219 L 363.175781 127.300781 C 364.519531 128.597656 365.039062 130.523438 364.550781 132.328125 C 364.546875 132.347656 364.539062 132.371094 364.535156 132.394531 C 364.050781 134.195312 362.636719 135.601562 360.820312 136.054688 L 355.441406 137.398438 C 355.351562 138.488281 355.304688 139.589844 355.304688 140.703125 C 355.304688 141.808594 355.351562 142.898438 355.4375 143.980469 L 360.816406 145.324219 C 362.632812 145.78125 364.046875 147.1875 364.527344 148.992188 C 364.535156 149.015625 364.539062 149.035156 364.546875 149.058594 C 365.03125 150.859375 364.511719 152.785156 363.164062 154.082031 L 359.171875 157.933594 C 360.117188 159.929688 361.222656 161.832031 362.472656 163.628906 L 367.816406 162.109375 C 369.613281 161.597656 371.542969 162.109375 372.867188 163.433594 C 372.878906 163.445312 372.894531 163.460938 372.90625 163.476562 C 374.230469 164.792969 374.746094 166.71875 374.230469 168.515625 L 372.703125 173.84375 C 374.503906 175.09375 376.410156 176.195312 378.410156 177.140625 L 382.273438 173.160156 C 383.574219 171.820312 385.503906 171.304688 387.308594 171.789062 C 387.332031 171.792969 387.351562 171.800781 387.375 171.804688 C 389.183594 172.285156 390.59375 173.699219 391.046875 175.511719 L 392.390625 180.878906 C 393.484375 180.96875 394.589844 181.011719 395.707031 181.011719 C 396.808594 181.011719 397.90625 180.96875 398.988281 180.882812 L 400.335938 175.515625 C 400.792969 173.703125 402.203125 172.292969 404.011719 171.8125 C 404.035156 171.804688 404.054688 171.800781 404.078125 171.792969 C 405.882812 171.3125 407.8125 171.828125 409.113281 173.171875 L 412.972656 177.15625 C 414.972656 176.210938 416.882812 175.109375 418.683594 173.863281 L 417.15625 168.53125 C 416.644531 166.734375 417.160156 164.8125 418.484375 163.492188 C 418.5 163.476562 418.511719 163.464844 418.527344 163.449219 C 419.851562 162.128906 421.78125 161.617188 423.578125 162.128906 L 428.921875 163.65625 C 430.171875 161.859375 431.277344 159.953125 432.226562 157.960938 L 428.234375 154.105469 C 426.890625 152.808594 426.371094 150.882812 426.859375 149.082031 C 426.863281 149.058594 426.871094 149.039062 426.875 149.015625 " fill-opacity="1" fill-rule="nonzero"/></g><path fill="#06b6d4" d="M 459.769531 121.085938 C 446.140625 121.085938 435.089844 110.0625 435.089844 96.464844 C 435.089844 82.863281 446.140625 71.839844 459.769531 71.839844 C 473.402344 71.839844 484.449219 82.863281 484.449219 96.464844 C 484.449219 110.0625 473.402344 121.085938 459.769531 121.085938 Z M 488.648438 104.164062 C 489.09375 102.492188 490.40625 101.1875 492.085938 100.769531 L 497.070312 99.527344 C 497.152344 98.515625 497.195312 97.496094 497.195312 96.464844 C 497.195312 95.441406 497.152344 94.429688 497.074219 93.429688 L 492.089844 92.183594 C 490.410156 91.761719 489.097656 90.457031 488.652344 88.789062 C 488.648438 88.765625 488.640625 88.746094 488.636719 88.726562 C 488.1875 87.054688 488.667969 85.273438 489.914062 84.070312 L 493.613281 80.503906 C 492.738281 78.65625 491.710938 76.894531 490.558594 75.226562 L 485.605469 76.636719 C 483.941406 77.109375 482.152344 76.636719 480.929688 75.410156 C 480.914062 75.398438 480.902344 75.382812 480.890625 75.371094 C 479.664062 74.148438 479.1875 72.363281 479.664062 70.703125 L 481.078125 65.761719 C 479.410156 64.609375 477.644531 63.585938 475.792969 62.710938 L 472.214844 66.398438 C 471.007812 67.640625 469.222656 68.117188 467.546875 67.671875 C 467.527344 67.664062 467.507812 67.660156 467.488281 67.652344 C 465.8125 67.207031 464.507812 65.898438 464.085938 64.222656 L 462.839844 59.25 C 461.828125 59.167969 460.804688 59.125 459.769531 59.125 C 458.746094 59.125 457.734375 59.164062 456.730469 59.246094 L 455.480469 64.21875 C 455.058594 65.894531 453.753906 67.203125 452.074219 67.648438 C 452.054688 67.652344 452.035156 67.660156 452.015625 67.664062 C 450.339844 68.113281 448.554688 67.632812 447.351562 66.386719 L 443.773438 62.699219 C 441.921875 63.570312 440.15625 64.59375 438.484375 65.746094 L 439.898438 70.6875 C 440.375 72.351562 439.894531 74.132812 438.667969 75.355469 C 438.65625 75.367188 438.644531 75.382812 438.628906 75.394531 C 437.40625 76.617188 435.617188 77.09375 433.949219 76.617188 L 429 75.203125 C 427.84375 76.867188 426.820312 78.632812 425.941406 80.476562 L 429.636719 84.046875 C 430.882812 85.25 431.363281 87.035156 430.910156 88.703125 C 430.90625 88.722656 430.902344 88.746094 430.894531 88.765625 C 430.449219 90.4375 429.136719 91.738281 427.453125 92.160156 L 422.46875 93.402344 C 422.390625 94.410156 422.347656 95.433594 422.347656 96.464844 C 422.347656 97.484375 422.386719 98.496094 422.46875 99.5 L 427.449219 100.746094 C 429.132812 101.164062 430.445312 102.46875 430.886719 104.140625 C 430.894531 104.160156 430.898438 104.183594 430.90625 104.203125 C 431.355469 105.871094 430.871094 107.65625 429.625 108.855469 L 425.929688 112.425781 C 426.804688 114.273438 427.828125 116.035156 428.984375 117.703125 L 433.933594 116.292969 C 435.601562 115.816406 437.390625 116.292969 438.613281 117.519531 C 438.625 117.53125 438.640625 117.542969 438.652344 117.558594 C 439.878906 118.78125 440.355469 120.5625 439.878906 122.226562 L 438.460938 127.164062 C 440.128906 128.320312 441.898438 129.34375 443.75 130.21875 L 447.328125 126.53125 C 448.53125 125.289062 450.320312 124.808594 451.992188 125.257812 C 452.015625 125.265625 452.035156 125.269531 452.054688 125.273438 C 453.730469 125.71875 455.035156 127.027344 455.457031 128.707031 L 456.699219 133.679688 C 457.714844 133.761719 458.738281 133.804688 459.769531 133.804688 C 460.792969 133.804688 461.808594 133.761719 462.8125 133.683594 L 464.0625 128.710938 C 464.484375 127.03125 465.789062 125.726562 467.464844 125.28125 C 467.484375 125.277344 467.503906 125.269531 467.527344 125.265625 C 469.199219 124.816406 470.988281 125.296875 472.191406 126.539062 L 475.765625 130.230469 C 477.617188 129.355469 479.386719 128.335938 481.054688 127.179688 L 479.644531 122.242188 C 479.167969 120.578125 479.644531 118.796875 480.871094 117.574219 C 480.886719 117.5625 480.898438 117.546875 480.910156 117.535156 C 482.136719 116.3125 483.925781 115.835938 485.59375 116.3125 L 490.539062 117.726562 C 491.699219 116.0625 492.722656 114.296875 493.601562 112.449219 L 489.90625 108.878906 C 488.660156 107.675781 488.179688 105.894531 488.628906 104.222656 C 488.636719 104.203125 488.640625 104.183594 488.648438 104.164062 " fill-opacity="1" fill-rule="nonzero"/><g clip-path="url(#id7)"><path fill="#06b6d4" d="M 469.476562 222.839844 C 461.792969 222.839844 455.5625 216.625 455.5625 208.957031 C 455.5625 201.289062 461.792969 195.070312 469.476562 195.070312 C 477.164062 195.070312 483.390625 201.289062 483.390625 208.957031 C 483.390625 216.625 477.164062 222.839844 469.476562 222.839844 Z M 485.757812 213.296875 C 486.011719 212.355469 486.75 211.621094 487.699219 211.382812 L 490.507812 210.683594 C 490.554688 210.113281 490.578125 209.539062 490.578125 208.957031 C 490.578125 208.378906 490.554688 207.808594 490.507812 207.246094 L 487.699219 206.542969 C 486.75 206.304688 486.011719 205.570312 485.761719 204.628906 C 485.757812 204.617188 485.753906 204.605469 485.753906 204.59375 C 485.5 203.652344 485.769531 202.644531 486.472656 201.96875 L 488.558594 199.957031 C 488.066406 198.914062 487.488281 197.921875 486.835938 196.980469 L 484.042969 197.777344 C 483.105469 198.042969 482.097656 197.777344 481.40625 197.085938 C 481.398438 197.078125 481.390625 197.070312 481.382812 197.0625 C 480.691406 196.375 480.425781 195.367188 480.695312 194.429688 L 481.492188 191.644531 C 480.550781 190.996094 479.554688 190.417969 478.511719 189.921875 L 476.492188 192.003906 C 475.8125 192.703125 474.804688 192.972656 473.863281 192.71875 C 473.851562 192.71875 473.839844 192.714844 473.828125 192.710938 C 472.882812 192.460938 472.148438 191.722656 471.910156 190.777344 L 471.207031 187.972656 C 470.636719 187.925781 470.058594 187.902344 469.476562 187.902344 C 468.898438 187.902344 468.328125 187.925781 467.761719 187.96875 L 467.058594 190.773438 C 466.820312 191.71875 466.082031 192.457031 465.136719 192.707031 C 465.128906 192.710938 465.117188 192.714844 465.105469 192.71875 C 464.160156 192.96875 463.152344 192.699219 462.472656 191.996094 L 460.457031 189.917969 C 459.414062 190.410156 458.417969 190.984375 457.476562 191.636719 L 458.269531 194.421875 C 458.539062 195.359375 458.269531 196.363281 457.578125 197.054688 C 457.570312 197.0625 457.5625 197.066406 457.554688 197.074219 C 456.867188 197.765625 455.859375 198.035156 454.917969 197.765625 L 452.128906 196.96875 C 451.476562 197.90625 450.898438 198.902344 450.402344 199.941406 L 452.484375 201.957031 C 453.1875 202.632812 453.457031 203.640625 453.203125 204.582031 C 453.203125 204.59375 453.199219 204.605469 453.195312 204.613281 C 452.945312 205.558594 452.203125 206.292969 451.253906 206.527344 L 448.445312 207.230469 C 448.398438 207.796875 448.375 208.375 448.375 208.957031 C 448.375 209.53125 448.398438 210.101562 448.445312 210.667969 L 451.253906 211.371094 C 452.203125 211.609375 452.941406 212.34375 453.191406 213.285156 C 453.195312 213.296875 453.199219 213.308594 453.203125 213.320312 C 453.453125 214.261719 453.183594 215.265625 452.480469 215.945312 L 450.394531 217.953125 C 450.890625 218.996094 451.464844 219.992188 452.117188 220.929688 L 454.910156 220.136719 C 455.847656 219.867188 456.855469 220.136719 457.546875 220.828125 C 457.554688 220.835938 457.5625 220.84375 457.570312 220.851562 C 458.261719 221.539062 458.53125 222.546875 458.261719 223.484375 L 457.460938 226.265625 C 458.402344 226.917969 459.398438 227.496094 460.441406 227.988281 L 462.460938 225.910156 C 463.140625 225.207031 464.148438 224.9375 465.089844 225.191406 C 465.101562 225.195312 465.113281 225.199219 465.125 225.199219 C 466.070312 225.453125 466.808594 226.191406 467.042969 227.136719 L 467.746094 229.941406 C 468.316406 229.988281 468.894531 230.011719 469.476562 230.011719 C 470.054688 230.011719 470.625 229.988281 471.191406 229.941406 L 471.894531 227.136719 C 472.132812 226.191406 472.871094 225.453125 473.816406 225.203125 C 473.828125 225.203125 473.839844 225.199219 473.851562 225.195312 C 474.792969 224.941406 475.800781 225.214844 476.480469 225.914062 L 478.496094 227.996094 C 479.539062 227.503906 480.539062 226.925781 481.476562 226.277344 L 480.683594 223.492188 C 480.414062 222.554688 480.683594 221.546875 481.375 220.859375 C 481.382812 220.851562 481.390625 220.84375 481.398438 220.835938 C 482.085938 220.144531 483.097656 219.878906 484.035156 220.148438 L 486.824219 220.945312 C 487.480469 220.003906 488.058594 219.011719 488.550781 217.96875 L 486.46875 215.957031 C 485.765625 215.277344 485.496094 214.273438 485.75 213.332031 C 485.753906 213.320312 485.753906 213.308594 485.757812 213.296875 " fill-opacity="1" fill-rule="nonzero"/></g><g clip-path="url(#id8)"><path fill="#06b6d4" d="M 504.613281 183.90625 C 489.898438 183.90625 477.972656 172.007812 477.972656 157.328125 C 477.972656 142.648438 489.898438 130.746094 504.613281 130.746094 C 519.324219 130.746094 531.253906 142.648438 531.253906 157.328125 C 531.253906 172.007812 519.324219 183.90625 504.613281 183.90625 Z M 535.785156 165.640625 C 536.265625 163.835938 537.683594 162.429688 539.496094 161.976562 L 544.878906 160.632812 C 544.964844 159.542969 545.011719 158.441406 545.011719 157.328125 C 545.011719 156.222656 544.96875 155.132812 544.878906 154.050781 L 539.5 152.707031 C 537.6875 152.253906 536.269531 150.84375 535.789062 149.039062 C 535.785156 149.019531 535.777344 148.996094 535.773438 148.972656 C 535.289062 147.171875 535.808594 145.246094 537.152344 143.949219 L 541.144531 140.097656 C 540.199219 138.105469 539.09375 136.199219 537.847656 134.402344 L 532.503906 135.921875 C 530.703125 136.433594 528.773438 135.921875 527.453125 134.601562 C 527.4375 134.585938 527.421875 134.570312 527.410156 134.558594 C 526.085938 133.238281 525.570312 131.3125 526.085938 129.515625 L 527.617188 124.1875 C 525.816406 122.941406 523.90625 121.835938 521.910156 120.890625 L 518.046875 124.871094 C 516.742188 126.210938 514.816406 126.730469 513.007812 126.242188 C 512.988281 126.238281 512.964844 126.230469 512.941406 126.226562 C 511.132812 125.746094 509.722656 124.332031 509.269531 122.519531 L 507.925781 117.152344 C 506.832031 117.066406 505.726562 117.019531 504.613281 117.019531 C 503.507812 117.019531 502.414062 117.0625 501.328125 117.152344 L 499.980469 122.519531 C 499.527344 124.328125 498.113281 125.742188 496.304688 126.21875 C 496.285156 126.226562 496.261719 126.230469 496.242188 126.238281 C 494.433594 126.71875 492.503906 126.203125 491.203125 124.859375 L 487.34375 120.875 C 485.347656 121.820312 483.4375 122.921875 481.636719 124.167969 L 483.160156 129.5 C 483.671875 131.296875 483.15625 133.222656 481.832031 134.539062 C 481.820312 134.554688 481.804688 134.566406 481.789062 134.582031 C 480.46875 135.902344 478.539062 136.414062 476.738281 135.902344 L 471.398438 134.375 C 470.148438 136.171875 469.039062 138.078125 468.09375 140.070312 L 472.082031 143.925781 C 473.425781 145.222656 473.945312 147.148438 473.457031 148.949219 C 473.453125 148.972656 473.445312 148.996094 473.441406 149.015625 C 472.960938 150.820312 471.542969 152.226562 469.726562 152.679688 L 464.347656 154.019531 C 464.257812 155.109375 464.210938 156.214844 464.210938 157.328125 C 464.210938 158.429688 464.257812 159.523438 464.34375 160.601562 L 469.722656 161.949219 C 471.539062 162.402344 472.953125 163.808594 473.433594 165.617188 C 473.441406 165.636719 473.445312 165.660156 473.453125 165.679688 C 473.9375 167.484375 473.417969 169.40625 472.070312 170.707031 L 468.078125 174.554688 C 469.027344 176.550781 470.128906 178.457031 471.378906 180.253906 L 476.722656 178.730469 C 478.523438 178.21875 480.453125 178.734375 481.773438 180.054688 C 481.789062 180.070312 481.800781 180.085938 481.816406 180.097656 C 483.140625 181.417969 483.652344 183.34375 483.136719 185.136719 L 481.609375 190.46875 C 483.410156 191.714844 485.320312 192.820312 487.316406 193.765625 L 491.179688 189.785156 C 492.480469 188.441406 494.410156 187.925781 496.21875 188.410156 C 496.238281 188.417969 496.261719 188.421875 496.28125 188.429688 C 498.089844 188.910156 499.5 190.320312 499.953125 192.132812 L 501.296875 197.503906 C 502.390625 197.589844 503.496094 197.636719 504.613281 197.636719 C 505.71875 197.636719 506.8125 197.589844 507.894531 197.503906 L 509.246094 192.136719 C 509.699219 190.328125 511.109375 188.914062 512.917969 188.433594 C 512.941406 188.429688 512.964844 188.421875 512.984375 188.417969 C 514.792969 187.933594 516.71875 188.453125 518.019531 189.796875 L 521.878906 193.777344 C 523.878906 192.835938 525.789062 191.730469 527.589844 190.484375 L 526.066406 185.15625 C 525.550781 183.359375 526.066406 181.433594 527.390625 180.117188 C 527.40625 180.101562 527.421875 180.085938 527.433594 180.074219 C 528.757812 178.753906 530.6875 178.238281 532.488281 178.753906 L 537.828125 180.277344 C 539.078125 178.480469 540.183594 176.578125 541.132812 174.585938 L 537.144531 170.730469 C 535.796875 169.433594 535.28125 167.507812 535.765625 165.703125 C 535.773438 165.683594 535.777344 165.660156 535.785156 165.640625 " fill-opacity="1" fill-rule="nonzero"/></g><g clip-path="url(#id9)"><path fill="#06b6d4" d="M 386.921875 91.484375 C 377.964844 91.484375 370.703125 84.242188 370.703125 75.304688 C 370.703125 66.367188 377.964844 59.125 386.921875 59.125 C 395.875 59.125 403.136719 66.367188 403.136719 75.304688 C 403.136719 84.242188 395.875 91.484375 386.921875 91.484375 Z M 405.894531 80.363281 C 406.1875 79.265625 407.050781 78.410156 408.15625 78.132812 L 411.429688 77.316406 C 411.484375 76.652344 411.511719 75.980469 411.511719 75.304688 C 411.511719 74.632812 411.484375 73.96875 411.433594 73.3125 L 408.15625 72.492188 C 407.054688 72.214844 406.191406 71.359375 405.898438 70.257812 C 405.894531 70.246094 405.890625 70.234375 405.886719 70.21875 C 405.59375 69.121094 405.910156 67.949219 406.730469 67.160156 L 409.160156 64.816406 C 408.582031 63.601562 407.910156 62.441406 407.148438 61.347656 L 403.898438 62.273438 C 402.800781 62.585938 401.628906 62.273438 400.824219 61.46875 C 400.816406 61.460938 400.804688 61.453125 400.796875 61.445312 C 399.992188 60.640625 399.679688 59.46875 399.992188 58.375 L 400.921875 55.132812 C 399.828125 54.371094 398.664062 53.699219 397.449219 53.125 L 395.097656 55.546875 C 394.304688 56.363281 393.132812 56.679688 392.03125 56.382812 C 392.015625 56.378906 392.003906 56.375 391.992188 56.371094 C 390.890625 56.078125 390.03125 55.21875 389.753906 54.117188 L 388.9375 50.847656 C 388.273438 50.796875 387.597656 50.765625 386.921875 50.765625 C 386.246094 50.765625 385.582031 50.796875 384.921875 50.847656 L 384.101562 54.113281 C 383.824219 55.21875 382.964844 56.078125 381.863281 56.367188 C 381.851562 56.371094 381.835938 56.375 381.824219 56.378906 C 380.722656 56.671875 379.550781 56.359375 378.757812 55.539062 L 376.410156 53.117188 C 375.191406 53.691406 374.03125 54.363281 372.933594 55.121094 L 373.859375 58.363281 C 374.171875 59.457031 373.859375 60.628906 373.054688 61.433594 C 373.042969 61.441406 373.035156 61.449219 373.027344 61.457031 C 372.222656 62.261719 371.046875 62.574219 369.953125 62.261719 L 366.699219 61.332031 C 365.9375 62.425781 365.265625 63.585938 364.691406 64.800781 L 367.117188 67.144531 C 367.9375 67.9375 368.25 69.109375 367.957031 70.207031 C 367.953125 70.21875 367.949219 70.230469 367.945312 70.246094 C 367.652344 71.34375 366.789062 72.199219 365.683594 72.472656 L 362.410156 73.292969 C 362.355469 73.957031 362.328125 74.625 362.328125 75.304688 C 362.328125 75.976562 362.355469 76.640625 362.40625 77.296875 L 365.683594 78.117188 C 366.789062 78.394531 367.648438 79.25 367.941406 80.347656 C 367.945312 80.363281 367.949219 80.375 367.953125 80.390625 C 368.246094 81.488281 367.929688 82.65625 367.109375 83.449219 L 364.679688 85.792969 C 365.257812 87.007812 365.929688 88.164062 366.691406 89.261719 L 369.941406 88.332031 C 371.039062 88.023438 372.210938 88.335938 373.015625 89.140625 C 373.027344 89.148438 373.035156 89.15625 373.042969 89.164062 C 373.847656 89.96875 374.160156 91.140625 373.847656 92.234375 L 372.917969 95.476562 C 374.011719 96.238281 375.175781 96.910156 376.390625 97.484375 L 378.742188 95.0625 C 379.535156 94.246094 380.707031 93.929688 381.808594 94.226562 C 381.824219 94.230469 381.835938 94.234375 381.847656 94.234375 C 382.949219 94.527344 383.808594 95.390625 384.085938 96.492188 L 384.902344 99.757812 C 385.566406 99.8125 386.242188 99.84375 386.921875 99.84375 C 387.59375 99.84375 388.257812 99.8125 388.917969 99.761719 L 389.738281 96.496094 C 390.015625 95.390625 390.875 94.53125 391.976562 94.242188 C 391.988281 94.238281 392.003906 94.234375 392.015625 94.230469 C 393.117188 93.9375 394.289062 94.25 395.082031 95.066406 L 397.429688 97.492188 C 398.648438 96.917969 399.808594 96.246094 400.90625 95.488281 L 399.980469 92.242188 C 399.667969 91.152344 399.980469 89.980469 400.785156 89.175781 C 400.796875 89.167969 400.804688 89.160156 400.8125 89.152344 C 401.617188 88.347656 402.792969 88.035156 403.886719 88.347656 L 407.140625 89.277344 C 407.902344 88.179688 408.574219 87.023438 409.148438 85.808594 L 406.722656 83.464844 C 405.902344 82.671875 405.589844 81.5 405.882812 80.402344 C 405.886719 80.390625 405.890625 80.378906 405.894531 80.363281 " fill-opacity="1" fill-rule="nonzero"/></g><g fill="#ffffff" fill-opacity="0.4"><g transform="translate(137.683526, 391.315664)"><g><path d="M 18.722656 -36.015625 C 9.464844 -36.015625 2.558594 -28.496094 2.558594 -17.546875 C 2.558594 -6.34375 8.902344 0.714844 18.058594 0.714844 C 26.703125 0.714844 31.15625 -4.605469 32.332031 -11.152344 L 32.382812 -11.664062 L 30.4375 -11.664062 L 30.335938 -11.152344 C 29.160156 -5.371094 25.324219 -0.972656 18.160156 -0.972656 C 10.742188 -0.972656 4.707031 -6.652344 4.707031 -17.648438 C 4.707031 -28.238281 11.253906 -34.328125 18.570312 -34.328125 C 25.273438 -34.328125 29.210938 -30.183594 30.335938 -24.605469 L 30.4375 -24.09375 L 32.382812 -24.09375 L 32.332031 -24.605469 C 31.15625 -31.050781 26.753906 -36.015625 18.722656 -36.015625 Z M 18.722656 -36.015625 "/></g></g></g><g fill="#ffffff" fill-opacity="0.4"><g transform="translate(196.000828, 391.315664)"><g><path d="M 18.722656 -36.015625 C 8.800781 -36.015625 2.558594 -28.289062 2.558594 -17.648438 C 2.558594 -7.058594 8.800781 0.714844 18.722656 0.714844 C 28.597656 0.714844 34.839844 -7.058594 34.839844 -17.648438 C 34.839844 -28.289062 28.597656 -36.015625 18.722656 -36.015625 Z M 18.722656 -0.972656 C 10.949219 -0.972656 4.707031 -7.058594 4.707031 -17.648438 C 4.707031 -28.289062 10.949219 -34.328125 18.722656 -34.328125 C 26.449219 -34.328125 32.691406 -28.289062 32.691406 -17.648438 C 32.691406 -7.058594 26.449219 -0.972656 18.722656 -0.972656 Z M 18.722656 -0.972656 "/></g></g></g><g fill="#ffffff" fill-opacity="0.4"><g transform="translate(256.159611, 391.315664)"><g><path d="M 29.925781 0 L 29.875 -35.296875 L 27.984375 -35.296875 L 27.984375 -16.523438 C 27.984375 -11.917969 27.984375 -6.445312 28.085938 -1.839844 L 7.929688 -35.296875 L 4.960938 -35.296875 L 4.960938 0 L 6.90625 0 L 6.90625 -18.824219 C 6.90625 -23.429688 6.90625 -28.851562 6.804688 -33.457031 L 26.910156 0 Z M 29.925781 0 "/></g></g></g><g fill="#ffffff" fill-opacity="0.4"><g transform="translate(313.146949, 391.315664)"><g><path d="M 14.9375 -36.015625 C 8.902344 -36.015625 3.785156 -32.28125 3.785156 -26.910156 C 3.785156 -21.382812 7.367188 -19.132812 14.632812 -17.1875 C 21.539062 -15.296875 24.402344 -13.351562 24.402344 -8.492188 C 24.402344 -3.992188 20.308594 -0.972656 14.9375 -0.972656 C 9.515625 -0.972656 4.960938 -3.9375 4.195312 -9.414062 L 2.148438 -9.414062 C 2.914062 -2.609375 8.289062 0.714844 14.886719 0.714844 C 21.539062 0.714844 26.5 -3.324219 26.5 -8.800781 C 26.5 -14.425781 22.867188 -17.035156 15.449219 -19.03125 C 8.800781 -20.871094 5.882812 -22.457031 5.882812 -27.214844 C 5.882812 -31.972656 10.488281 -34.328125 14.785156 -34.328125 C 19.644531 -34.328125 23.175781 -31.308594 23.941406 -26.089844 L 25.988281 -26.089844 C 25.324219 -31.5625 21.691406 -36.015625 14.9375 -36.015625 Z M 14.9375 -36.015625 "/></g></g></g><g fill="#ffffff" fill-opacity="0.4"><g transform="translate(365.479416, 391.315664)"><g><path d="M 30.183594 -33.660156 L 30.183594 -35.296875 L 1.6875 -35.296875 L 1.6875 -33.660156 L 14.9375 -33.660156 L 14.9375 0 L 16.882812 0 L 16.882812 -33.660156 Z M 30.183594 -33.660156 "/></g></g></g><g fill="#ffffff" fill-opacity="0.4"><g transform="translate(418.937236, 391.315664)"><g><path d="M 25.988281 -9.566406 C 25.578125 -13.453125 23.941406 -16.625 20.820312 -17.699219 C 24.964844 -18.570312 27.828125 -21.691406 27.828125 -26.242188 C 27.828125 -31.511719 24.605469 -34.378906 19.234375 -35.042969 C 17.597656 -35.246094 16.0625 -35.296875 14.273438 -35.296875 L 4.960938 -35.296875 L 4.960938 0 L 6.90625 0 L 6.90625 -16.78125 L 14.734375 -16.78125 C 15.550781 -16.78125 16.726562 -16.78125 17.804688 -16.726562 C 21.894531 -16.523438 23.582031 -13.148438 24.042969 -9.257812 C 24.605469 -4.347656 25.324219 -2.25 26.140625 0 L 28.339844 0 C 27.265625 -2.148438 26.550781 -4.449219 25.988281 -9.566406 Z M 6.90625 -18.46875 L 6.90625 -33.609375 L 14.273438 -33.609375 C 16.0625 -33.609375 17.34375 -33.558594 18.773438 -33.355469 C 23.226562 -32.792969 25.730469 -30.488281 25.730469 -26.089844 C 25.730469 -21.792969 22.917969 -18.929688 18.519531 -18.570312 C 17.035156 -18.46875 16.164062 -18.46875 14.785156 -18.46875 Z M 6.90625 -18.46875 "/></g></g></g><g fill="#ffffff" fill-opacity="0.4"><g transform="translate(472.139282, 391.315664)"><g><path d="M 28.339844 -35.296875 L 26.398438 -35.296875 L 26.398438 -12.175781 C 26.398438 -11 26.347656 -10.027344 26.242188 -9.003906 C 25.835938 -4.554688 22.867188 -0.972656 16.472656 -0.972656 C 10.128906 -0.972656 7.160156 -4.554688 6.753906 -9.003906 C 6.652344 -10.027344 6.597656 -11 6.597656 -12.175781 L 6.597656 -35.296875 L 4.65625 -35.296875 L 4.65625 -12.226562 C 4.65625 -11.355469 4.707031 -10.28125 4.808594 -8.851562 C 5.21875 -3.324219 9.054688 0.714844 16.472656 0.714844 C 23.941406 0.714844 27.777344 -3.324219 28.1875 -8.851562 C 28.289062 -10.28125 28.339844 -11.355469 28.339844 -12.226562 Z M 28.339844 -35.296875 "/></g></g></g><g fill="#ffffff" fill-opacity="0.4"><g transform="translate(527.285151, 391.315664)"><g><path d="M 18.722656 -36.015625 C 9.464844 -36.015625 2.558594 -28.496094 2.558594 -17.546875 C 2.558594 -6.34375 8.902344 0.714844 18.058594 0.714844 C 26.703125 0.714844 31.15625 -4.605469 32.332031 -11.152344 L 32.382812 -11.664062 L 30.4375 -11.664062 L 30.335938 -11.152344 C 29.160156 -5.371094 25.324219 -0.972656 18.160156 -0.972656 C 10.742188 -0.972656 4.707031 -6.652344 4.707031 -17.648438 C 4.707031 -28.238281 11.253906 -34.328125 18.570312 -34.328125 C 25.273438 -34.328125 29.210938 -30.183594 30.335938 -24.605469 L 30.4375 -24.09375 L 32.382812 -24.09375 L 32.332031 -24.605469 C 31.15625 -31.050781 26.753906 -36.015625 18.722656 -36.015625 Z M 18.722656 -36.015625 "/></g></g></g><g fill="#ffffff" fill-opacity="0.4"><g transform="translate(585.602454, 391.315664)"><g><path d="M 30.183594 -33.660156 L 30.183594 -35.296875 L 1.6875 -35.296875 L 1.6875 -33.660156 L 14.9375 -33.660156 L 14.9375 0 L 16.882812 0 L 16.882812 -33.660156 Z M 30.183594 -33.660156 "/></g></g></g><g fill="#ffffff" fill-opacity="0.4"><g transform="translate(639.060274, 391.315664)"><g><path d="M 6.90625 0 L 6.90625 -35.296875 L 4.960938 -35.296875 L 4.960938 0 Z M 6.90625 0 "/></g></g></g><g fill="#ffffff" fill-opacity="0.4"><g transform="translate(673.080169, 391.315664)"><g><path d="M 18.722656 -36.015625 C 8.800781 -36.015625 2.558594 -28.289062 2.558594 -17.648438 C 2.558594 -7.058594 8.800781 0.714844 18.722656 0.714844 C 28.597656 0.714844 34.839844 -7.058594 34.839844 -17.648438 C 34.839844 -28.289062 28.597656 -36.015625 18.722656 -36.015625 Z M 18.722656 -0.972656 C 10.949219 -0.972656 4.707031 -7.058594 4.707031 -17.648438 C 4.707031 -28.289062 10.949219 -34.328125 18.722656 -34.328125 C 26.449219 -34.328125 32.691406 -28.289062 32.691406 -17.648438 C 32.691406 -7.058594 26.449219 -0.972656 18.722656 -0.972656 Z M 18.722656 -0.972656 "/></g></g></g><g fill="#ffffff" fill-opacity="0.4"><g transform="translate(733.238963, 391.315664)"><g><path d="M 29.925781 0 L 29.875 -35.296875 L 27.984375 -35.296875 L 27.984375 -16.523438 C 27.984375 -11.917969 27.984375 -6.445312 28.085938 -1.839844 L 7.929688 -35.296875 L 4.960938 -35.296875 L 4.960938 0 L 6.90625 0 L 6.90625 -18.824219 C 6.90625 -23.429688 6.90625 -28.851562 6.804688 -33.457031 L 26.910156 0 Z M 29.925781 0 "/></g></g></g><g fill="#122c39" fill-opacity="1"><g transform="translate(135.422539, 389.054677)"><g><path d="M 18.722656 -36.015625 C 9.464844 -36.015625 2.558594 -28.496094 2.558594 -17.546875 C 2.558594 -6.34375 8.902344 0.714844 18.058594 0.714844 C 26.703125 0.714844 31.15625 -4.605469 32.332031 -11.152344 L 32.382812 -11.664062 L 30.4375 -11.664062 L 30.335938 -11.152344 C 29.160156 -5.371094 25.324219 -0.972656 18.160156 -0.972656 C 10.742188 -0.972656 4.707031 -6.652344 4.707031 -17.648438 C 4.707031 -28.238281 11.253906 -34.328125 18.570312 -34.328125 C 25.273438 -34.328125 29.210938 -30.183594 30.335938 -24.605469 L 30.4375 -24.09375 L 32.382812 -24.09375 L 32.332031 -24.605469 C 31.15625 -31.050781 26.753906 -36.015625 18.722656 -36.015625 Z M 18.722656 -36.015625 "/></g></g></g><g fill="#122c39" fill-opacity="1"><g transform="translate(193.739841, 389.054677)"><g><path d="M 18.722656 -36.015625 C 8.800781 -36.015625 2.558594 -28.289062 2.558594 -17.648438 C 2.558594 -7.058594 8.800781 0.714844 18.722656 0.714844 C 28.597656 0.714844 34.839844 -7.058594 34.839844 -17.648438 C 34.839844 -28.289062 28.597656 -36.015625 18.722656 -36.015625 Z M 18.722656 -0.972656 C 10.949219 -0.972656 4.707031 -7.058594 4.707031 -17.648438 C 4.707031 -28.289062 10.949219 -34.328125 18.722656 -34.328125 C 26.449219 -34.328125 32.691406 -28.289062 32.691406 -17.648438 C 32.691406 -7.058594 26.449219 -0.972656 18.722656 -0.972656 Z M 18.722656 -0.972656 "/></g></g></g><g fill="#122c39" fill-opacity="1"><g transform="translate(253.898624, 389.054677)"><g><path d="M 29.925781 0 L 29.875 -35.296875 L 27.984375 -35.296875 L 27.984375 -16.523438 C 27.984375 -11.917969 27.984375 -6.445312 28.085938 -1.839844 L 7.929688 -35.296875 L 4.960938 -35.296875 L 4.960938 0 L 6.90625 0 L 6.90625 -18.824219 C 6.90625 -23.429688 6.90625 -28.851562 6.804688 -33.457031 L 26.910156 0 Z M 29.925781 0 "/></g></g></g><g fill="#122c39" fill-opacity="1"><g transform="translate(310.885962, 389.054677)"><g><path d="M 14.9375 -36.015625 C 8.902344 -36.015625 3.785156 -32.28125 3.785156 -26.910156 C 3.785156 -21.382812 7.367188 -19.132812 14.632812 -17.1875 C 21.539062 -15.296875 24.402344 -13.351562 24.402344 -8.492188 C 24.402344 -3.992188 20.308594 -0.972656 14.9375 -0.972656 C 9.515625 -0.972656 4.960938 -3.9375 4.195312 -9.414062 L 2.148438 -9.414062 C 2.914062 -2.609375 8.289062 0.714844 14.886719 0.714844 C 21.539062 0.714844 26.5 -3.324219 26.5 -8.800781 C 26.5 -14.425781 22.867188 -17.035156 15.449219 -19.03125 C 8.800781 -20.871094 5.882812 -22.457031 5.882812 -27.214844 C 5.882812 -31.972656 10.488281 -34.328125 14.785156 -34.328125 C 19.644531 -34.328125 23.175781 -31.308594 23.941406 -26.089844 L 25.988281 -26.089844 C 25.324219 -31.5625 21.691406 -36.015625 14.9375 -36.015625 Z M 14.9375 -36.015625 "/></g></g></g><g fill="#122c39" fill-opacity="1"><g transform="translate(363.218429, 389.054677)"><g><path d="M 30.183594 -33.660156 L 30.183594 -35.296875 L 1.6875 -35.296875 L 1.6875 -33.660156 L 14.9375 -33.660156 L 14.9375 0 L 16.882812 0 L 16.882812 -33.660156 Z M 30.183594 -33.660156 "/></g></g></g><g fill="#122c39" fill-opacity="1"><g transform="translate(416.676249, 389.054677)"><g><path d="M 25.988281 -9.566406 C 25.578125 -13.453125 23.941406 -16.625 20.820312 -17.699219 C 24.964844 -18.570312 27.828125 -21.691406 27.828125 -26.242188 C 27.828125 -31.511719 24.605469 -34.378906 19.234375 -35.042969 C 17.597656 -35.246094 16.0625 -35.296875 14.273438 -35.296875 L 4.960938 -35.296875 L 4.960938 0 L 6.90625 0 L 6.90625 -16.78125 L 14.734375 -16.78125 C 15.550781 -16.78125 16.726562 -16.78125 17.804688 -16.726562 C 21.894531 -16.523438 23.582031 -13.148438 24.042969 -9.257812 C 24.605469 -4.347656 25.324219 -2.25 26.140625 0 L 28.339844 0 C 27.265625 -2.148438 26.550781 -4.449219 25.988281 -9.566406 Z M 6.90625 -18.46875 L 6.90625 -33.609375 L 14.273438 -33.609375 C 16.0625 -33.609375 17.34375 -33.558594 18.773438 -33.355469 C 23.226562 -32.792969 25.730469 -30.488281 25.730469 -26.089844 C 25.730469 -21.792969 22.917969 -18.929688 18.519531 -18.570312 C 17.035156 -18.46875 16.164062 -18.46875 14.785156 -18.46875 Z M 6.90625 -18.46875 "/></g></g></g><g fill="#122c39" fill-opacity="1"><g transform="translate(469.878295, 389.054677)"><g><path d="M 28.339844 -35.296875 L 26.398438 -35.296875 L 26.398438 -12.175781 C 26.398438 -11 26.347656 -10.027344 26.242188 -9.003906 C 25.835938 -4.554688 22.867188 -0.972656 16.472656 -0.972656 C 10.128906 -0.972656 7.160156 -4.554688 6.753906 -9.003906 C 6.652344 -10.027344 6.597656 -11 6.597656 -12.175781 L 6.597656 -35.296875 L 4.65625 -35.296875 L 4.65625 -12.226562 C 4.65625 -11.355469 4.707031 -10.28125 4.808594 -8.851562 C 5.21875 -3.324219 9.054688 0.714844 16.472656 0.714844 C 23.941406 0.714844 27.777344 -3.324219 28.1875 -8.851562 C 28.289062 -10.28125 28.339844 -11.355469 28.339844 -12.226562 Z M 28.339844 -35.296875 "/></g></g></g><g fill="#122c39" fill-opacity="1"><g transform="translate(525.024164, 389.054677)"><g><path d="M 18.722656 -36.015625 C 9.464844 -36.015625 2.558594 -28.496094 2.558594 -17.546875 C 2.558594 -6.34375 8.902344 0.714844 18.058594 0.714844 C 26.703125 0.714844 31.15625 -4.605469 32.332031 -11.152344 L 32.382812 -11.664062 L 30.4375 -11.664062 L 30.335938 -11.152344 C 29.160156 -5.371094 25.324219 -0.972656 18.160156 -0.972656 C 10.742188 -0.972656 4.707031 -6.652344 4.707031 -17.648438 C 4.707031 -28.238281 11.253906 -34.328125 18.570312 -34.328125 C 25.273438 -34.328125 29.210938 -30.183594 30.335938 -24.605469 L 30.4375 -24.09375 L 32.382812 -24.09375 L 32.332031 -24.605469 C 31.15625 -31.050781 26.753906 -36.015625 18.722656 -36.015625 Z M 18.722656 -36.015625 "/></g></g></g><g fill="#122c39" fill-opacity="1"><g transform="translate(583.341467, 389.054677)"><g><path d="M 30.183594 -33.660156 L 30.183594 -35.296875 L 1.6875 -35.296875 L 1.6875 -33.660156 L 14.9375 -33.660156 L 14.9375 0 L 16.882812 0 L 16.882812 -33.660156 Z M 30.183594 -33.660156 "/></g></g></g><g fill="#122c39" fill-opacity="1"><g transform="translate(636.799287, 389.054677)"><g><path d="M 6.90625 0 L 6.90625 -35.296875 L 4.960938 -35.296875 L 4.960938 0 Z M 6.90625 0 "/></g></g></g><g fill="#122c39" fill-opacity="1"><g transform="translate(670.819182, 389.054677)"><g><path d="M 18.722656 -36.015625 C 8.800781 -36.015625 2.558594 -28.289062 2.558594 -17.648438 C 2.558594 -7.058594 8.800781 0.714844 18.722656 0.714844 C 28.597656 0.714844 34.839844 -7.058594 34.839844 -17.648438 C 34.839844 -28.289062 28.597656 -36.015625 18.722656 -36.015625 Z M 18.722656 -0.972656 C 10.949219 -0.972656 4.707031 -7.058594 4.707031 -17.648438 C 4.707031 -28.289062 10.949219 -34.328125 18.722656 -34.328125 C 26.449219 -34.328125 32.691406 -28.289062 32.691406 -17.648438 C 32.691406 -7.058594 26.449219 -0.972656 18.722656 -0.972656 Z M 18.722656 -0.972656 "/></g></g></g><g fill="#122c39" fill-opacity="1"><g transform="translate(730.977976, 389.054677)"><g><path d="M 29.925781 0 L 29.875 -35.296875 L 27.984375 -35.296875 L 27.984375 -16.523438 C 27.984375 -11.917969 27.984375 -6.445312 28.085938 -1.839844 L 7.929688 -35.296875 L 4.960938 -35.296875 L 4.960938 0 L 6.90625 0 L 6.90625 -18.824219 C 6.90625 -23.429688 6.90625 -28.851562 6.804688 -33.457031 L 26.910156 0 Z M 29.925781 0 "/></g></g></g><g fill="#ffffff" fill-opacity="0.4"><g transform="translate(325.846718, 321.016089)"><g><path d="M 28.347656 -35.308594 L 26.40625 -35.308594 L 26.40625 -12.179688 C 26.40625 -11.003906 26.355469 -10.03125 26.25 -9.007812 C 25.84375 -4.554688 22.875 -0.972656 16.476562 -0.972656 C 10.132812 -0.972656 7.164062 -4.554688 6.753906 -9.007812 C 6.652344 -10.03125 6.601562 -11.003906 6.601562 -12.179688 L 6.601562 -35.308594 L 4.65625 -35.308594 L 4.65625 -12.230469 C 4.65625 -11.359375 4.707031 -10.285156 4.808594 -8.851562 C 5.21875 -3.328125 9.058594 0.714844 16.476562 0.714844 C 23.949219 0.714844 27.785156 -3.328125 28.195312 -8.851562 C 28.296875 -10.285156 28.347656 -11.359375 28.347656 -12.230469 Z M 28.347656 -35.308594 "/></g></g></g><g fill="#ffffff" fill-opacity="0.4"><g transform="translate(381.006573, 321.016089)"><g><path d="M 29.9375 0 L 29.882812 -35.308594 L 27.992188 -35.308594 L 27.992188 -16.527344 C 27.992188 -11.921875 27.992188 -6.449219 28.09375 -1.84375 L 7.933594 -35.308594 L 4.964844 -35.308594 L 4.964844 0 L 6.910156 0 L 6.910156 -18.832031 C 6.910156 -23.4375 6.910156 -28.859375 6.804688 -33.46875 L 26.917969 0 Z M 29.9375 0 "/></g></g></g><g fill="#ffffff" fill-opacity="0.4"><g transform="translate(438.008331, 321.016089)"><g><path d="M 19.242188 -35.207031 C 17.808594 -35.308594 16.988281 -35.308594 15.300781 -35.308594 L 4.964844 -35.308594 L 4.964844 0 L 15.25 0 C 16.9375 0 17.960938 0 19.753906 -0.203125 C 25.332031 -0.871094 33.210938 -5.9375 33.210938 -17.859375 C 33.210938 -29.882812 25.332031 -34.644531 19.242188 -35.207031 Z M 19.496094 -1.945312 C 17.960938 -1.738281 16.835938 -1.6875 15.148438 -1.6875 L 6.910156 -1.6875 L 6.910156 -33.621094 L 15.25 -33.621094 C 17.089844 -33.621094 17.960938 -33.621094 19.085938 -33.46875 C 24.765625 -32.851562 31.0625 -28.144531 31.0625 -17.859375 C 31.0625 -7.828125 25.175781 -2.660156 19.496094 -1.945312 Z M 19.496094 -1.945312 "/></g></g></g><g fill="#ffffff" fill-opacity="0.4"><g transform="translate(496.545016, 321.016089)"><g><path d="M 27.324219 -1.6875 L 6.910156 -1.6875 L 6.910156 -16.835938 L 25.636719 -16.835938 L 25.636719 -18.472656 L 6.910156 -18.472656 L 6.910156 -33.671875 L 26.8125 -33.671875 L 26.8125 -35.308594 L 4.964844 -35.308594 L 4.964844 0 L 27.324219 0 Z M 27.324219 -1.6875 "/></g></g></g><g fill="#ffffff" fill-opacity="0.4"><g transform="translate(548.839682, 321.016089)"><g><path d="M 25.996094 -9.570312 C 25.585938 -13.457031 23.949219 -16.632812 20.828125 -17.707031 C 24.972656 -18.574219 27.835938 -21.695312 27.835938 -26.25 C 27.835938 -31.523438 24.613281 -34.386719 19.242188 -35.054688 C 17.601562 -35.257812 16.066406 -35.308594 14.277344 -35.308594 L 4.964844 -35.308594 L 4.964844 0 L 6.910156 0 L 6.910156 -16.785156 L 14.738281 -16.785156 C 15.554688 -16.785156 16.734375 -16.785156 17.808594 -16.734375 C 21.902344 -16.527344 23.589844 -13.152344 24.050781 -9.261719 C 24.613281 -4.351562 25.332031 -2.25 26.148438 0 L 28.347656 0 C 27.273438 -2.148438 26.558594 -4.453125 25.996094 -9.570312 Z M 6.910156 -18.472656 L 6.910156 -33.621094 L 14.277344 -33.621094 C 16.066406 -33.621094 17.347656 -33.570312 18.78125 -33.363281 C 23.230469 -32.800781 25.738281 -30.5 25.738281 -26.097656 C 25.738281 -21.800781 22.925781 -18.933594 18.523438 -18.574219 C 17.039062 -18.472656 16.171875 -18.472656 14.789062 -18.472656 Z M 6.910156 -18.472656 "/></g></g></g><g fill="#122c39" fill-opacity="1"><g transform="translate(323.585088, 318.754458)"><g><path d="M 28.347656 -35.308594 L 26.40625 -35.308594 L 26.40625 -12.179688 C 26.40625 -11.003906 26.355469 -10.03125 26.25 -9.007812 C 25.84375 -4.554688 22.875 -0.972656 16.476562 -0.972656 C 10.132812 -0.972656 7.164062 -4.554688 6.753906 -9.007812 C 6.652344 -10.03125 6.601562 -11.003906 6.601562 -12.179688 L 6.601562 -35.308594 L 4.65625 -35.308594 L 4.65625 -12.230469 C 4.65625 -11.359375 4.707031 -10.285156 4.808594 -8.851562 C 5.21875 -3.328125 9.058594 0.714844 16.476562 0.714844 C 23.949219 0.714844 27.785156 -3.328125 28.195312 -8.851562 C 28.296875 -10.285156 28.347656 -11.359375 28.347656 -12.230469 Z M 28.347656 -35.308594 "/></g></g></g><g fill="#122c39" fill-opacity="1"><g transform="translate(378.744942, 318.754458)"><g><path d="M 29.9375 0 L 29.882812 -35.308594 L 27.992188 -35.308594 L 27.992188 -16.527344 C 27.992188 -11.921875 27.992188 -6.449219 28.09375 -1.84375 L 7.933594 -35.308594 L 4.964844 -35.308594 L 4.964844 0 L 6.910156 0 L 6.910156 -18.832031 C 6.910156 -23.4375 6.910156 -28.859375 6.804688 -33.46875 L 26.917969 0 Z M 29.9375 0 "/></g></g></g><g fill="#122c39" fill-opacity="1"><g transform="translate(435.746701, 318.754458)"><g><path d="M 19.242188 -35.207031 C 17.808594 -35.308594 16.988281 -35.308594 15.300781 -35.308594 L 4.964844 -35.308594 L 4.964844 0 L 15.25 0 C 16.9375 0 17.960938 0 19.753906 -0.203125 C 25.332031 -0.871094 33.210938 -5.9375 33.210938 -17.859375 C 33.210938 -29.882812 25.332031 -34.644531 19.242188 -35.207031 Z M 19.496094 -1.945312 C 17.960938 -1.738281 16.835938 -1.6875 15.148438 -1.6875 L 6.910156 -1.6875 L 6.910156 -33.621094 L 15.25 -33.621094 C 17.089844 -33.621094 17.960938 -33.621094 19.085938 -33.46875 C 24.765625 -32.851562 31.0625 -28.144531 31.0625 -17.859375 C 31.0625 -7.828125 25.175781 -2.660156 19.496094 -1.945312 Z M 19.496094 -1.945312 "/></g></g></g><g fill="#122c39" fill-opacity="1"><g transform="translate(494.283386, 318.754458)"><g><path d="M 27.324219 -1.6875 L 6.910156 -1.6875 L 6.910156 -16.835938 L 25.636719 -16.835938 L 25.636719 -18.472656 L 6.910156 -18.472656 L 6.910156 -33.671875 L 26.8125 -33.671875 L 26.8125 -35.308594 L 4.964844 -35.308594 L 4.964844 0 L 27.324219 0 Z M 27.324219 -1.6875 "/></g></g></g><g fill="#122c39" fill-opacity="1"><g transform="translate(546.578052, 318.754458)"><g><path d="M 25.996094 -9.570312 C 25.585938 -13.457031 23.949219 -16.632812 20.828125 -17.707031 C 24.972656 -18.574219 27.835938 -21.695312 27.835938 -26.25 C 27.835938 -31.523438 24.613281 -34.386719 19.242188 -35.054688 C 17.601562 -35.257812 16.066406 -35.308594 14.277344 -35.308594 L 4.964844 -35.308594 L 4.964844 0 L 6.910156 0 L 6.910156 -16.785156 L 14.738281 -16.785156 C 15.554688 -16.785156 16.734375 -16.785156 17.808594 -16.734375 C 21.902344 -16.527344 23.589844 -13.152344 24.050781 -9.261719 C 24.613281 -4.351562 25.332031 -2.25 26.148438 0 L 28.347656 0 C 27.273438 -2.148438 26.558594 -4.453125 25.996094 -9.570312 Z M 6.910156 -18.472656 L 6.910156 -33.621094 L 14.277344 -33.621094 C 16.066406 -33.621094 17.347656 -33.570312 18.78125 -33.363281 C 23.230469 -32.800781 25.738281 -30.5 25.738281 -26.097656 C 25.738281 -21.800781 22.925781 -18.933594 18.523438 -18.574219 C 17.039062 -18.472656 16.171875 -18.472656 14.789062 -18.472656 Z M 6.910156 -18.472656 "/></g></g></g></svg>