<svg xmlns="http://www.w3.org/2000/svg" width="50" height="50" viewBox="0 0 50 50">
  <path style="fill:#3e92a4;stroke:none" d="M22.4 0.028C18.217 0.598 14.392 1.939 10.867 4.289C8.329 5.981 6.126 8.227 4.398 10.733C-1.93 19.915 -1.348 32.582 5.829 41.133C7.564 43.2 9.641 44.973 11.933 46.396C14.282 47.853 16.901 48.889 19.6 49.467C22.282 50.041 25.201 50.254 27.933 49.914C31.699 49.446 35.241 48.187 38.467 46.187C40.911 44.672 43.078 42.655 44.853 40.4C53.288 29.682 51.181 13.42 40.4 5.11C37.653 2.993 34.494 1.482 31.133 0.642C29.065 0.125 27.054 0 24.933 0C24.104 0 23.223 -0.084 22.4 0.028z"/>
  <path style="fill:#3e92a4;stroke:none" d="M23.933 1.467L23.933 1.533L25.8 1.533L23.933 1.467M23.067 1.533L23.067 1.6L23.4 1.6L23.067 1.533z"/>
  <path style="fill:#555555;stroke:none" d="M23.4 1.562C21.255 1.843 19.189 2.114 17.133 2.846C11.238 4.946 6.3 9.443 3.687 15.133C-1.153 25.675 2.649 38.645 12.467 44.863C14.886 46.395 17.595 47.452 20.4 48.013C22.643 48.462 25.055 48.653 27.333 48.381C35.637 47.388 42.921 42.411 46.446 34.733C47.697 32.008 48.323 29.045 48.527 26.067C49.302 14.75 40.866 4.435 30 2.038C27.916 1.579 25.532 1.282 23.4 1.562z"/>
  <path style="fill:#3e92a4;stroke:none" d="M26.667 1.533L26.667 1.6L27 1.6L26.667 1.533M22.467 1.6L22.467 1.667L22.667 1.667L22.467 1.6M27.578 1.622L27.622 1.644L27.578 1.622M21.867 1.667L21.867 1.733L22.067 1.733L21.867 1.667M28 1.667L28 1.733L28.2 1.733L28 1.667M21.444 1.756L21.489 1.778L21.444 1.756M28.578 1.756L28.622 1.778L28.578 1.756M20.933 1.8L20.933 1.867L21.133 1.867L20.933 1.8M28.978 1.822L29.022 1.844L28.978 1.822M20.644 1.889L20.689 1.911L20.644 1.889M29.311 1.889L29.356 1.911L29.311 1.889M20.311 1.956L20.356 1.978L20.311 1.956M29.711 1.956L29.756 1.978L29.711 1.956M19.978 2.022L20.022 2.044L19.978 2.022M29.978 2.022L30.022 2.044L29.978 2.022M19.667 2.067L19.733 2.133L19.667 2.067M30.267 2.067L30.333 2.133L30.267 2.067M19.4 2.133L19.467 2.2L19.4 2.133M30.578 2.156L30.622 2.178L30.578 2.156M19.133 2.2L19.2 2.267L19.133 2.2M30.867 2.2L30.933 2.267L30.867 2.2M18.867 2.267L18.933 2.333L18.867 2.267M31.111 2.289L31.156 2.311L31.111 2.289M18.6 2.333L18.667 2.4L18.6 2.333M31.333 2.333L31.4 2.4L31.333 2.333M18.4 2.4L18.467 2.467L18.4 2.4M31.6 2.4L31.667 2.467L31.6 2.4M18.178 2.489L18.222 2.511L18.178 2.489M31.8 2.467L31.867 2.533L31.8 2.467M17.933 2.533L18 2.6L17.933 2.533M32 2.533L32.067 2.6L32 2.533M17.733 2.6L17.8 2.667L17.733 2.6M32.244 2.622L32.289 2.644L32.244 2.622M17.533 2.667L17.6 2.733L17.533 2.667M32.467 2.667L32.533 2.733L32.467 2.667M17.333 2.733L17.4 2.8L17.333 2.733M32.667 2.733L32.733 2.8L32.667 2.733M17.133 2.8L17.2 2.867L17.133 2.8M32.867 2.8L32.933 2.867L32.867 2.8M33 2.867L33.067 2.933L33 2.867M16.8 2.933L16.867 3L16.8 2.933M33.2 2.933L33.267 3L33.2 2.933M16.6 3L16.667 3.067L16.6 3M33.4 3L33.467 3.067L33.4 3M16.467 3.067L16.533 3.133L16.467 3.067M33.533 3.067L33.6 3.133L33.533 3.067M16.267 3.133L16.333 3.2L16.267 3.133M33.733 3.133L33.8 3.2L33.733 3.133M16.133 3.2L16.2 3.267L16.133 3.2M15.933 3.267L16 3.333L15.933 3.267M34.067 3.267L34.133 3.333L34.067 3.267M15.8 3.333L15.867 3.4L15.8 3.333M34.2 3.333L34.267 3.4L34.2 3.333M15.667 3.4L15.733 3.467L15.667 3.4M34.333 3.4L34.4 3.467L34.333 3.4M15.333 3.533L15.4 3.6L15.333 3.533M34.667 3.533L34.733 3.6L34.667 3.533M15.2 3.6L15.267 3.667L15.2 3.6M34.8 3.6L34.867 3.667L34.8 3.6M15.067 3.667L15.133 3.733L15.067 3.667M34.933 3.667L35 3.733L34.933 3.667M14.733 3.8L14.8 3.867L14.733 3.8M14.6 3.867L14.667 3.933L14.6 3.867M35.4 3.867L35.467 3.933L35.4 3.867M14.467 3.933L14.533 4L14.467 3.933M35.533 3.933L35.6 4L35.533 3.933M14.333 4L14.4 4.067L14.333 4M35.667 4L35.733 4.067L35.667 4M13.867 4.267L13.933 4.333L13.867 4.267M13.733 4.333L13.8 4.4L13.733 4.333M36.267 4.333L36.333 4.4L36.267 4.333M13.6 4.4L13.667 4.467L13.6 4.4M36.4 4.4L36.467 4.467L36.4 4.4M36.533 4.467L36.6 4.533L36.533 4.467M13.267 4.6L13.333 4.667L13.267 4.6M13.133 4.667L13.2 4.733L13.133 4.667M36.867 4.667L36.933 4.733L36.867 4.667M12.8 4.867L12.867 4.933L12.8 4.867M37.2 4.867L37.267 4.933L37.2 4.867M12.6 5L12.667 5.067L12.6 5M37.4 5L37.467 5.067L37.4 5M12.4 5.133L12.467 5.2L12.4 5.133M37.6 5.133L37.667 5.2L37.6 5.133M12.267 5.2L12.333 5.267L12.267 5.2M37.733 5.2L37.8 5.267L37.733 5.2M12.067 5.333L12.133 5.4L12.067 5.333M37.933 5.333L38 5.4L37.933 5.333M11.867 5.467L11.933 5.533L11.867 5.467M38.133 5.467L38.2 5.533L38.133 5.467M11.667 5.6L11.733 5.667L11.667 5.6M38.333 5.6L38.4 5.667L38.333 5.6M11.467 5.733L11.533 5.8L11.467 5.733M38.533 5.733L38.6 5.8L38.533 5.733M11.4 5.8L11.467 5.867L11.4 5.8M11.2 5.933L11.267 6L11.2 5.933M38.8 5.933L38.867 6L38.8 5.933M10.933 6.133L11 6.2L10.933 6.133M39.067 6.133L39.133 6.2L39.067 6.133M10.667 6.333L10.733 6.4L10.667 6.333M39.333 6.333L39.4 6.4L39.333 6.333M10.4 6.533L10.467 6.6L10.4 6.533M39.6 6.533L39.667 6.6L39.6 6.533M10.333 6.6L10.4 6.667L10.333 6.6M39.667 6.6L39.733 6.667L39.667 6.6M10.067 6.8L10.133 6.867L10.067 6.8M10 6.867L10.067 6.933L10 6.867M40 6.867L40.067 6.933L40 6.867M40.067 6.933L40.133 7L40.067 6.933M40.133 7L40.2 7.067L40.133 7M9.667 7.133L9.733 7.2L9.667 7.133M9.6 7.2L9.667 7.267L9.6 7.2M9.533 7.267L9.6 7.333L9.533 7.267M40.467 7.267L40.533 7.333L40.467 7.267M40.533 7.333L40.6 7.4L40.533 7.333M40.6 7.4L40.667 7.467L40.6 7.4M14.733 7.733L14.733 7.8L15.133 7.867L14.733 7.733M34.933 7.733L34.933 7.8L35.2 7.8L34.933 7.733M8.933 7.8L9 7.867L8.933 7.8M14.533 7.8L14.6 7.867L14.533 7.8z"/>
  <path style="fill:#1ed3f8;stroke:none" d="M12.4 20.733C10.728 19.062 9.36 17.1 9.686 14.6C9.8 13.724 10.342 12.988 10.502 12.133C10.621 11.501 10.435 10.511 9.6 10.667C9.588 10.098 9.25 9.509 8.689 10.081C8.305 10.472 8.065 11.08 7.926 11.6C7.26 14.093 7.892 16.592 8.8 18.933C7.364 18.592 6.46 17.184 5.887 15.933C5.739 15.609 5.473 14.136 5.127 14.098C4.65 14.045 4.582 14.89 4.611 15.2C4.717 16.308 5.18 17.47 5.888 18.333C6.577 19.172 7.433 19.929 8.467 20.304C8.953 20.481 9.536 20.48 10 20.696C10.386 20.875 10.693 21.247 11.067 21.466C12.2 22.129 13.541 22.667 14.867 22.667L14.867 22.733C13.051 22.811 11.341 23.285 9.533 22.808C8.845 22.626 8.251 22.251 7.667 21.854C7.365 21.649 6.995 21.302 6.6 21.351C6.162 21.407 6.119 21.843 6.136 22.2C6.17 22.914 6.663 23.674 7.333 23.933L7.333 24C7.178 23.98 7.023 23.947 6.867 23.94C6.323 23.912 6.273 24.354 6.561 24.733C6.894 25.171 7.464 25.517 8 25.632C9.631 25.983 11.42 24.994 13 24.667C13.226 25.263 13.677 25.793 14.013 26.333C15.107 28.094 16.18 29.608 18.267 30.2L15.533 27.067C19.059 27.883 19.135 31.911 20.295 34.6C20.787 35.741 21.68 36.709 22.129 37.867C22.716 39.381 22.311 42.009 24.6 42.194C24.903 42.218 25.235 42.219 25.533 42.155C27.655 41.702 27.165 39.454 27.764 37.933C28.264 36.666 29.208 35.597 29.733 34.333C30.894 31.533 30.911 28.182 34.333 27.067L31.667 30.2C33.527 29.672 34.555 28.432 35.577 26.867C35.95 26.296 36.388 25.159 36.959 24.785C37.279 24.576 38.126 24.969 38.467 25.067C39.6 25.39 40.884 25.944 42.067 25.597C42.564 25.451 43.174 25.129 43.439 24.664C43.556 24.458 43.676 24.098 43.39 23.974C43.158 23.873 42.841 23.981 42.6 24L42.6 23.933C43.292 23.698 43.71 22.955 43.816 22.267C43.87 21.919 43.839 21.412 43.399 21.351C42.969 21.292 42.592 21.641 42.267 21.865C41.687 22.264 41.085 22.636 40.4 22.818C38.604 23.293 36.871 22.811 35.067 22.733L35.067 22.667C36.395 22.667 37.726 22.128 38.867 21.475C39.263 21.248 39.589 20.879 40 20.687C40.507 20.45 41.136 20.451 41.667 20.236C42.622 19.849 43.407 19.112 44.057 18.333C44.751 17.502 45.285 16.291 45.331 15.2C45.344 14.888 45.298 14.042 44.808 14.098C44.595 14.122 44.562 14.366 44.527 14.533C44.421 15.041 44.242 15.524 44.038 16C43.506 17.243 42.522 18.603 41.133 18.933C42.134 16.82 42.691 14.099 42.083 11.8C41.928 11.212 41.682 10.52 41.253 10.074C40.693 9.494 40.359 10.103 40.333 10.667C39.55 10.478 39.326 11.482 39.431 12.067C39.586 12.924 40.123 13.66 40.248 14.533C40.604 17.041 39.266 19.075 37.533 20.733C38.099 17.73 36.092 15.08 36.86 12.067C37.075 11.222 37.652 10.393 38.333 9.859C38.607 9.645 39.232 9.303 39.09 8.87C38.727 7.756 37.1 8.95 36.533 8.749C35.856 8.51 35.676 7.61 34.8 7.867C35.596 10.63 34.352 13.455 35.267 16.267C34.505 15.746 33.836 14.993 33.364 14.2C33.093 13.746 32.957 12.978 32.467 12.733C32.176 13.337 32.431 14.01 32.646 14.6C33.229 16.196 34.718 17.324 35.521 18.8C36.1 19.862 36.322 21.16 34.933 21.661C34.152 21.942 33.271 22.039 32.467 22.267C32.764 21.354 32.961 20.287 32.755 19.333C32.699 19.07 32.368 18.229 31.971 18.575C31.678 18.83 31.709 19.637 31.623 20C31.363 21.1 30.79 23.329 29.6 23.733C29.541 23.447 29.512 22.217 29.073 22.269C28.829 22.298 28.812 22.685 28.803 22.867C28.774 23.424 28.766 24.157 28.512 24.667C28.249 25.196 27.695 25.651 27.343 26.133C27.191 26.342 27.039 26.656 26.788 26.76C26.237 26.988 25.262 26.8 24.667 26.8C24.23 26.8 23.446 26.949 23.073 26.693C22.815 26.516 22.644 26.179 22.458 25.933C22.081 25.435 21.481 24.959 21.335 24.333C21.229 23.881 21.341 22.617 21.01 22.311C20.812 22.129 20.612 22.441 20.556 22.6C20.448 22.912 20.525 23.978 19.936 23.509C19.033 22.791 18.596 21.075 18.326 20C18.231 19.622 18.268 18.863 17.994 18.575C17.614 18.174 17.253 19.092 17.201 19.333C16.995 20.282 17.175 21.355 17.467 22.267C16.43 21.973 14.78 21.935 14.105 21C13.774 20.542 13.959 19.879 14.147 19.4C14.633 18.164 15.615 17.197 16.38 16.133C16.915 15.391 17.385 14.643 17.57 13.733C17.608 13.547 17.749 12.814 17.397 12.814C17.081 12.814 16.852 13.7 16.741 13.933C16.328 14.798 15.497 15.787 14.667 16.267C15.738 13.847 14.504 11.34 14.812 8.867C14.856 8.519 15.041 8.202 15.133 7.867C14.269 7.614 14.079 8.51 13.4 8.749C12.841 8.947 11.21 7.761 10.856 8.87C10.711 9.325 11.385 9.675 11.667 9.901C12.406 10.493 12.917 11.353 13.14 12.267C13.658 14.39 12.74 16.102 12.374 18.133C12.214 19.024 12.287 19.846 12.4 20.733z"/>
  <path style="fill:#3e92a4;stroke:none" d="M34.8 7.8L34.867 7.867L34.8 7.8M35.333 7.8L35.4 7.867L35.333 7.8M8.867 7.867L8.933 7.933L8.867 7.867M14.4 7.867L14.467 7.933L14.4 7.867M35.467 7.867L35.533 7.933L35.467 7.867M8.8 7.933L8.867 8L8.8 7.933M35.6 7.933L35.667 8L35.6 7.933M41.2 7.933L41.267 8L41.2 7.933M8.733 8L8.8 8.067L8.733 8M14.2 8L14.267 8.067L14.2 8M15.067 8L15.133 8.067L15.067 8M34.8 8L34.867 8.067L34.8 8M35.667 8L35.733 8.067L35.667 8M41.267 8L41.333 8.067L41.267 8M8.667 8.067L8.733 8.133L8.667 8.067M14.133 8.067L14.2 8.133L14.133 8.067M41.333 8.067L41.4 8.133L41.333 8.067M8.6 8.133L8.667 8.2L8.6 8.133M15 8.133L15.067 8.2L15 8.133M34.867 8.133L34.933 8.2L34.867 8.133M41.4 8.133L41.467 8.2L41.4 8.133M8.533 8.2L8.6 8.267L8.533 8.2M41.467 8.2L41.533 8.267L41.467 8.2M8.467 8.267L8.533 8.333L8.467 8.267M13.933 8.267L14 8.333L13.933 8.267M34.933 8.267L35 8.333L34.933 8.267M41.533 8.267L41.6 8.333L41.533 8.267M8.4 8.333L8.467 8.4L8.4 8.333M13.867 8.333L13.933 8.4L13.867 8.333M14.933 8.333L15 8.4L14.933 8.333M41.6 8.333L41.667 8.4L41.6 8.333M8.333 8.4L8.4 8.467L8.333 8.4M11.533 8.4L11.533 8.467L11.733 8.467L11.533 8.4M12.178 8.422L12.222 8.444L12.178 8.422M13.8 8.4L13.867 8.467L13.8 8.4M35.022 8.444L35.044 8.489L35.022 8.444M36.067 8.4L36.133 8.467L36.067 8.4M37.711 8.422L37.756 8.444L37.711 8.422M38.2 8.4L38.2 8.467L38.4 8.467L38.2 8.4M41.667 8.4L41.733 8.467L41.667 8.4M8.267 8.467L8.333 8.533L8.267 8.467M11.311 8.489L11.356 8.511L11.311 8.489M12.444 8.489L12.489 8.511L12.444 8.489M14.889 8.511L14.911 8.556L14.889 8.511M36.133 8.467L36.2 8.533L36.133 8.467M37.444 8.489L37.489 8.511L37.444 8.489M38.578 8.489L38.622 8.511L38.578 8.489M41.733 8.467L41.8 8.533L41.733 8.467M8.2 8.533L8.267 8.6L8.2 8.533M11.111 8.556L11.156 8.578L11.111 8.556M12.6 8.533L12.667 8.6L12.6 8.533M36.2 8.533L36.267 8.6L36.2 8.533M37.267 8.533L37.333 8.6L37.267 8.533M38.8 8.533L38.867 8.6L38.8 8.533M41.8 8.533L41.867 8.6L41.8 8.533M8.133 8.6L8.2 8.667L8.133 8.6M10.933 8.6L11 8.667L10.933 8.6M12.733 8.6L12.8 8.667L12.733 8.6M13.6 8.6L13.667 8.667L13.6 8.6M35.067 8.6L35.067 8.8L35.133 8.8L35.067 8.6M36.267 8.6L36.333 8.667L36.267 8.6M37.133 8.6L37.2 8.667L37.133 8.6M38.933 8.6L39 8.667L38.933 8.6M41.867 8.6L41.933 8.667L41.867 8.6M8.067 8.667L8.133 8.733L8.067 8.667M10.867 8.667L10.933 8.733L10.867 8.667M12.867 8.667L12.933 8.733L12.867 8.667M13.533 8.667L13.6 8.733L13.533 8.667M14.8 8.667L14.8 9.067L14.867 9.067L14.8 8.667M36.333 8.667L36.4 8.733L36.333 8.667M37 8.667L37.067 8.733L37 8.667M39 8.667L39.067 8.733L39 8.667M41.933 8.667L42 8.733L41.933 8.667M8 8.733L8.067 8.8L8 8.733M10.822 8.778L10.844 8.822L10.822 8.778M13 8.733L13.067 8.8L13 8.733M13.378 8.756L13.422 8.778L13.378 8.756M36.511 8.756L36.556 8.778L36.511 8.756M39.067 8.733L39.133 8.8L39.067 8.733M7.933 8.8L8 8.867L7.933 8.8M7.867 8.867L7.933 8.933L7.867 8.867M39.133 8.933L39.2 9L39.133 8.933M10.822 9.111L10.844 9.156L10.822 9.111M39.067 9.133L39.133 9.2L39.067 9.133M11.067 9.4L11.133 9.467L11.067 9.4M35.133 9.4L35.133 9.867L35.2 9.867L35.133 9.4M42.6 9.4L42.667 9.467L42.6 9.4M7.333 9.467L7.4 9.533L7.333 9.467M11.133 9.467L11.2 9.533L11.133 9.467M38.733 9.467L38.8 9.533L38.733 9.467M42.667 9.467L42.733 9.533L42.667 9.467M7.267 9.533L7.333 9.6L7.267 9.533M11.2 9.533L11.267 9.6L11.2 9.533M38.667 9.533L38.733 9.6L38.667 9.533M42.733 9.533L42.8 9.6L42.733 9.533M7.2 9.6L7.267 9.667L7.2 9.6M38.6 9.6L38.667 9.667L38.6 9.6M9.178 9.756L9.222 9.778L9.178 9.756M11.467 9.733L11.533 9.8L11.467 9.733M38.4 9.733L38.467 9.8L38.4 9.733M40.711 9.756L40.756 9.778L40.711 9.756M9 9.8L9.067 9.867L9 9.8M9.333 9.8L9.4 9.867L9.333 9.8M38.333 9.8L38.4 9.867L38.333 9.8M40.533 9.8L40.6 9.867L40.533 9.8M40.933 9.8L41 9.867L40.933 9.8M8.867 9.867L8.933 9.933L8.867 9.867M9.4 9.867L9.467 9.933L9.4 9.867M11.667 9.867L11.733 9.933L11.667 9.867M40.467 9.867L40.533 9.933L40.467 9.867M43 9.867L43.067 9.933L43 9.867M6.933 9.933L7 10L6.933 9.933M8.733 9.933L8.8 10L8.733 9.933M11.733 9.933L11.8 10L11.733 9.933M38.133 9.933L38.2 10L38.133 9.933M41.133 9.933L41.2 10L41.133 9.933M43.067 9.933L43.133 10L43.067 9.933M6.867 10L6.933 10.067L6.867 10M8.667 10L8.733 10.067L8.667 10M9.467 10L9.533 10.067L9.467 10M11.8 10L11.867 10.067L11.8 10M38.067 10L38.133 10.067L38.067 10M40.422 10.044L40.444 10.089L40.422 10.044M41.2 10L41.267 10.067L41.2 10M43.133 10L43.2 10.067L43.133 10M11.867 10.067L11.933 10.133L11.867 10.067M14.8 10.067L14.8 10.467L14.867 10.467L14.8 10.067M38 10.067L38.067 10.133L38 10.067M41.267 10.067L41.333 10.133L41.267 10.067M11.933 10.133L12 10.2L11.933 10.133M37.933 10.133L38 10.2L37.933 10.133M41.333 10.133L41.4 10.2L41.333 10.133M8.533 10.2L8.6 10.267L8.533 10.2M9.533 10.2L9.6 10.267L9.533 10.2M12 10.2L12.067 10.267L12 10.2M37.867 10.2L37.933 10.267L37.867 10.2M40.356 10.244L40.378 10.289L40.356 10.244M6.667 10.267L6.733 10.333L6.667 10.267M8.467 10.267L8.533 10.333L8.467 10.267M12.067 10.267L12.133 10.333L12.067 10.267M35.067 10.267L35.067 10.6L35.133 10.6L35.067 10.267M37.8 10.267L37.867 10.333L37.8 10.267M41.4 10.267L41.467 10.333L41.4 10.267M43.333 10.267L43.4 10.333L43.333 10.267M6.6 10.333L6.667 10.4L6.6 10.333M12.133 10.333L12.2 10.4L12.133 10.333M43.4 10.333L43.467 10.4L43.4 10.333M8.4 10.4L8.467 10.467L8.4 10.4M41.467 10.4L41.533 10.467L41.467 10.4M9.6 10.467L9.733 10.667L9.6 10.467M8.333 10.533L8.4 10.6L8.333 10.533M37.6 10.533L37.667 10.6L37.6 10.533M6.4 10.6L6.467 10.667L6.4 10.6M8.267 10.6L8.333 10.667L8.267 10.6M9.933 10.6L10 10.667L9.933 10.6M12.333 10.6L12.4 10.667L12.333 10.6M37.533 10.6L37.6 10.667L37.533 10.6M39.933 10.6L40 10.667L39.933 10.6M40.267 10.6L40.333 10.667L40.267 10.6M41.6 10.6L41.667 10.667L41.6 10.6M43.6 10.6L43.667 10.667L43.6 10.6M6.333 10.667L6.4 10.733L6.333 10.667M10.067 10.667L10.133 10.733L10.067 10.667M12.4 10.667L12.467 10.733L12.4 10.667M14.867 10.667L14.867 10.933L14.933 10.933L14.867 10.667M39.8 10.667L39.867 10.733L39.8 10.667M8.2 10.733L8.267 10.8L8.2 10.733M39.733 10.733L39.8 10.8L39.733 10.733M41.667 10.733L41.733 10.8L41.667 10.733M12.467 10.8L12.533 10.867L12.467 10.8M35 10.8L35 11.067L35.067 11.067L35 10.8M37.4 10.8L37.467 10.867L37.4 10.8M39.667 10.8L39.733 10.867L39.667 10.8M8.133 10.867L8.2 10.933L8.133 10.867M10.267 10.867L10.333 10.933L10.267 10.867M12.533 10.867L12.6 10.933L12.533 10.867M39.6 10.867L39.667 10.933L39.6 10.867M41.733 10.867L41.8 10.933L41.733 10.867M43.8 10.867L43.867 10.933L43.8 10.867M6.133 10.933L6.2 11L6.133 10.933M10.333 10.933L10.4 11L10.333 10.933M8.089 11.044L8.111 11.089L8.089 11.044M12.6 11L12.667 11.067L12.6 11M37.267 11L37.333 11.067L37.267 11M41.8 11L41.867 11.067L41.8 11M10.4 11.067L10.467 11.133L10.4 11.067M12.667 11.067L12.733 11.133L12.667 11.067M39.467 11.067L39.533 11.133L39.467 11.067M6 11.133L6.067 11.2L6 11.133M37.2 11.133L37.267 11.2L37.2 11.133M41.889 11.178L41.911 11.222L41.889 11.178M44 11.133L44.067 11.2L44 11.133M8 11.2L8.067 11.267L8 11.2M10.489 11.244L10.511 11.289L10.489 11.244M12.733 11.2L12.8 11.267L12.733 11.2M14.933 11.2L14.933 11.4L15 11.4L14.933 11.2M37.133 11.267L37.2 11.333L37.133 11.267M39.422 11.311L39.444 11.356L39.422 11.311M12.8 11.333L12.867 11.4L12.8 11.333M34.933 11.333L34.933 11.533L35 11.533L34.933 11.333M41.956 11.378L41.978 11.422L41.956 11.378M44.133 11.333L44.2 11.4L44.133 11.333M5.8 11.4L5.867 11.467L5.8 11.4M7.933 11.4L8 11.467L7.933 11.4M37.067 11.4L37.133 11.467L37.067 11.4M10.533 11.467L10.533 11.933L10.6 11.933L10.533 11.467M12.867 11.467L12.933 11.533L12.867 11.467M37 11.533L37.067 11.6L37 11.533M42.022 11.578L42.044 11.622L42.022 11.578M5.667 11.6L5.733 11.667L5.667 11.6M7.889 11.644L7.911 11.689L7.889 11.644M44.333 11.6L44.4 11.667L44.333 11.6M12.933 11.667L13 11.733L12.933 11.667M15 11.667L15 12.067L15.067 12.067L15 11.667M36.956 11.711L36.978 11.756L36.956 11.711M42.089 11.778L42.111 11.822L42.089 11.778M7.8 11.8L7.8 12L7.867 12L7.8 11.8M44.467 11.8L44.533 11.867L44.467 11.8M5.467 11.867L5.533 11.933L5.467 11.867M13 11.867L13.067 11.933L13 11.867M34.867 11.867L34.867 12.333L34.933 12.333L34.867 11.867M36.889 11.911L36.911 11.956L36.889 11.911M5.4 12L5.467 12.067L5.4 12M44.6 12L44.667 12.067L44.6 12M13.089 12.111L13.111 12.156L13.089 12.111M39.422 12.111L39.444 12.156L39.422 12.111M42.133 12.067L42.133 12.267L42.2 12.267L42.133 12.067M7.733 12.133L7.733 12.333L7.8 12.333L7.733 12.133M10.489 12.178L10.511 12.222L10.489 12.178M36.822 12.178L36.844 12.222L36.822 12.178M5.267 12.2L5.333 12.267L5.267 12.2M44.733 12.2L44.8 12.267L44.733 12.2M13.133 12.333L13.133 12.533L13.2 12.533L13.133 12.333M39.467 12.333L39.533 12.4L39.467 12.333M5.133 12.4L5.2 12.467L5.133 12.4M10.4 12.4L10.467 12.467L10.4 12.4M42.2 12.4L42.2 12.667L42.267 12.667L42.2 12.4M44.867 12.4L44.933 12.467L44.867 12.4M36.733 12.467L36.733 12.667L36.8 12.667L36.733 12.467M7.667 12.533L7.667 12.933L7.733 12.933L7.667 12.533M10.356 12.578L10.378 12.622L10.356 12.578M39.533 12.533L39.6 12.6L39.533 12.533M44.933 12.533L45 12.6L44.933 12.533M5 12.6L5.067 12.667L5 12.6M39.622 12.711L39.644 12.756L39.622 12.711M4.933 12.733L5 12.8L4.933 12.733M10.267 12.733L10.333 12.8L10.267 12.733M13.2 12.733L13.2 13L13.267 13L13.2 12.733M15.067 12.733L15.067 13.267L15.133 13.267L15.067 12.733M17.267 12.733L17.333 12.8L17.267 12.733M17.467 12.733L17.533 12.8L17.467 12.733M32.6 12.733L32.667 12.8L32.6 12.733M45.067 12.733L45.133 12.8L45.067 12.733M17.2 12.8L17.267 12.867L17.2 12.8M32.667 12.8L32.733 12.867L32.667 12.8M10.2 12.867L10.267 12.933L10.2 12.867M32.333 12.867L32.4 12.933L32.333 12.867M32.733 12.867L32.8 12.933L32.733 12.867M36.667 12.867L36.667 13.2L36.733 13.2L36.667 12.867M39.667 12.867L39.733 12.933L39.667 12.867M4.8 12.933L4.867 13L4.8 12.933M17.133 12.933L17.2 13L17.133 12.933M17.6 13L17.6 13.2L17.667 13.2L17.6 13M32.822 13.044L32.844 13.089L32.822 13.044M34.8 13L34.8 13.6L34.867 13.6L34.8 13M39.733 13L39.8 13.067L39.733 13M4.733 13.067L4.8 13.133L4.733 13.067M10.133 13.067L10.2 13.133L10.133 13.067M17.067 13.067L17.133 13.133L17.067 13.067M32.267 13.067L32.267 13.467L32.333 13.467L32.267 13.067M45.267 13.067L45.333 13.133L45.267 13.067M39.822 13.178L39.844 13.222L39.822 13.178M42.267 13.133L42.267 13.6L42.333 13.6L42.267 13.133M10.067 13.2L10.133 13.267L10.067 13.2M17.022 13.244L17.044 13.289L17.022 13.244M32.867 13.2L32.933 13.267L32.867 13.2M4.6 13.267L4.667 13.333L4.6 13.267M7.6 13.267L7.6 13.933L7.667 13.933L7.6 13.267M10.022 13.378L10.044 13.422L10.022 13.378M17.6 13.333L17.6 13.6L17.667 13.6L17.6 13.333M32.956 13.378L32.978 13.422L32.956 13.378M39.867 13.333L39.933 13.4L39.867 13.333M4.533 13.4L4.6 13.467L4.533 13.4M13.267 13.4L13.267 14.267L13.333 14.267L13.267 13.4M16.933 13.4L17 13.467L16.933 13.4M45.467 13.4L45.533 13.467L45.467 13.4M39.956 13.511L39.978 13.556L39.956 13.511M9.956 13.578L9.978 13.622L9.956 13.578M16.867 13.533L16.933 13.6L16.867 13.533M33 13.533L33.067 13.6L33 13.533M45.533 13.533L45.6 13.6L45.533 13.533M16.8 13.667L16.867 13.733L16.8 13.667M32.356 13.711L32.378 13.756L32.356 13.711M33.067 13.667L33.133 13.733L33.067 13.667M40.022 13.711L40.044 13.756L40.022 13.711M45.6 13.667L45.667 13.733L45.6 13.667M9.867 13.733L9.933 13.8L9.867 13.733M17.556 13.778L17.578 13.822L17.556 13.778M33.133 13.8L33.2 13.867L33.133 13.8M4.267 13.867L4.333 13.933L4.267 13.867M16.733 13.867L16.8 13.933L16.733 13.867M34.8 13.867L34.8 14.333L34.867 14.333L34.8 13.867M40.089 13.911L40.111 13.956L40.089 13.911M9.822 13.978L9.844 14.022L9.822 13.978M32.422 13.978L32.444 14.022L32.422 13.978M33.2 13.933L33.267 14L33.2 13.933M4.2 14L4.267 14.067L4.2 14M5 14L5 14.067L5.267 14.067L5 14M16.667 14L16.733 14.067L16.667 14M17.489 14.044L17.511 14.089L17.489 14.044M44.733 14L44.733 14.067L44.933 14.067L44.733 14M4.867 14.067L4.933 14.133L4.867 14.067M5.267 14.067L5.333 14.133L5.267 14.067M33.267 14.067L33.333 14.133L33.267 14.067M40.156 14.111L40.178 14.156L40.156 14.111M45 14.067L45.067 14.133L45 14.067M4.133 14.133L4.2 14.2L4.133 14.133M4.8 14.133L4.867 14.2L4.8 14.133M9.756 14.178L9.778 14.222L9.756 14.178M15.067 14.133L15.067 14.6L15.133 14.6L15.067 14.133M16.6 14.133L16.667 14.2L16.6 14.133M32.489 14.178L32.511 14.222L32.489 14.178M45.067 14.133L45.133 14.2L45.067 14.133M45.867 14.133L45.933 14.2L45.867 14.133M5.333 14.2L5.4 14.267L5.333 14.2M16.533 14.2L16.6 14.267L16.533 14.2M17.422 14.244L17.444 14.289L17.422 14.244M33.333 14.2L33.4 14.267L33.333 14.2M45.156 14.244L45.178 14.289L45.156 14.244M4.067 14.267L4.133 14.333L4.067 14.267M4.733 14.267L4.8 14.333L4.733 14.267M7.6 14.267L7.6 14.667L7.667 14.667L7.6 14.267M44.533 14.267L44.6 14.333L44.533 14.267M45.933 14.267L46 14.333L45.933 14.267M16.467 14.333L16.533 14.4L16.467 14.333M32.556 14.378L32.578 14.422L32.556 14.378M4 14.4L4.067 14.467L4 14.4M4.689 14.444L4.711 14.489L4.689 14.444M5.4 14.4L5.4 14.667L5.467 14.667L5.4 14.4M17.356 14.444L17.378 14.489L17.356 14.444M33.467 14.4L33.533 14.467L33.467 14.4M40.222 14.444L40.244 14.489L40.222 14.444M45.2 14.4L45.267 14.467L45.2 14.4M46 14.4L46.067 14.467L46 14.4M9.667 14.467L9.667 14.667L9.733 14.667L9.667 14.467M3.933 14.533L4 14.6L3.933 14.533M16.333 14.533L16.4 14.6L16.333 14.533M32.622 14.578L32.644 14.622L32.622 14.578M36.667 14.533L36.667 14.8L36.733 14.8L36.667 14.533M42.267 14.533L42.267 14.8L42.333 14.8L42.267 14.533M44.467 14.533L44.467 14.733L44.533 14.733L44.467 14.533M45.289 14.578L45.311 14.622L45.289 14.578M46.067 14.533L46.133 14.6L46.067 14.533M4.6 14.6L4.667 14.667L4.6 14.6M16.267 14.6L16.333 14.667L16.267 14.6M17.267 14.6L17.333 14.667L17.267 14.6M33.6 14.6L33.667 14.667L33.6 14.6M3.867 14.667L3.933 14.733L3.867 14.667M13.2 14.667L13.2 14.933L13.267 14.933L13.2 14.667M46.133 14.667L46.2 14.733L46.133 14.667M16.2 14.733L16.267 14.8L16.2 14.733M17.222 14.778L17.244 14.822L17.222 14.778M32.667 14.733L32.733 14.8L32.667 14.733M3.8 14.8L3.867 14.867L3.8 14.8M5.489 14.844L5.511 14.889L5.489 14.844M16.133 14.8L16.2 14.867L16.133 14.8M34.867 14.8L34.867 15.067L34.933 15.067L34.867 14.8M46.2 14.8L46.267 14.867L46.2 14.8M7.667 14.867L7.667 15.067L7.733 15.067L7.667 14.867M16.067 14.867L16.133 14.933L16.067 14.867M32.733 14.867L32.8 14.933L32.733 14.867M33.8 14.867L33.867 14.933L33.8 14.867M44.4 14.867L44.467 14.933L44.4 14.867M3.733 14.933L3.8 15L3.733 14.933M15 14.933L15 15.133L15.067 15.133L15 14.933M33.867 14.933L33.933 15L33.867 14.933M40.267 14.933L40.267 15.533L40.333 15.533L40.267 14.933M5.556 15.044L5.578 15.089L5.556 15.044M17.067 15L17.133 15.067L17.067 15M32.8 15L32.867 15.067L32.8 15M33.933 15L34 15.067L33.933 15M42.2 15L42.2 15.2L42.267 15.2L42.2 15M36.756 15.111L36.778 15.156L36.756 15.111M44.356 15.111L44.378 15.156L44.356 15.111M13.133 15.133L13.133 15.333L13.2 15.333L13.133 15.133M17 15.133L17.067 15.2L17 15.133M32.867 15.133L32.933 15.2L32.867 15.133M46.333 15.133L46.4 15.2L46.333 15.133M5.622 15.244L5.644 15.289L5.622 15.244M15.8 15.2L15.867 15.267L15.8 15.2M32.933 15.2L33 15.267L32.933 15.2M34.933 15.2L34.933 15.4L35 15.4L34.933 15.2M7.733 15.267L7.733 15.467L7.8 15.467L7.733 15.267M15.733 15.267L15.8 15.333L15.733 15.267M16.933 15.267L17 15.333L16.933 15.267M44.289 15.311L44.311 15.356L44.289 15.311M46.4 15.267L46.467 15.333L46.4 15.267M4.6 15.333L4.6 15.533L4.667 15.533L4.6 15.333M14.956 15.378L14.978 15.422L14.956 15.378M15.667 15.333L15.733 15.4L15.667 15.333M16.867 15.333L16.933 15.4L16.867 15.333M33 15.333L33.067 15.4L33 15.333M34.2 15.333L34.267 15.4L34.2 15.333M3.533 15.4L3.6 15.467L3.533 15.4M5.689 15.444L5.711 15.489L5.689 15.444M15.6 15.4L15.667 15.467L15.6 15.4M34.267 15.4L34.333 15.467L34.267 15.4M36.822 15.444L36.844 15.489L36.822 15.444M42.133 15.4L42.133 15.6L42.2 15.6L42.133 15.4M46.467 15.4L46.533 15.467L46.467 15.4M13.089 15.511L13.111 15.556L13.089 15.511M16.8 15.467L16.867 15.533L16.8 15.467M34.333 15.467L34.4 15.533L34.333 15.467M35.022 15.511L35.044 15.556L35.022 15.511M44.2 15.467L44.267 15.533L44.2 15.467M45.267 15.467L45.267 15.667L45.333 15.667L45.267 15.467M3.467 15.533L3.533 15.6L3.467 15.533M14.889 15.578L14.911 15.622L14.889 15.578M16.733 15.533L16.8 15.6L16.733 15.533M33.133 15.533L33.2 15.6L33.133 15.533M34.4 15.533L34.467 15.6L34.4 15.533M46.533 15.533L46.6 15.6L46.533 15.533M5.733 15.6L5.8 15.667L5.733 15.6M44.156 15.644L44.178 15.689L44.156 15.644M16.667 15.667L16.733 15.733L16.667 15.667M36.889 15.711L36.911 15.756L36.889 15.711M4.667 15.733L4.667 15.933L4.733 15.933L4.667 15.733M5.822 15.778L5.844 15.822L5.822 15.778M7.8 15.733L7.8 15.933L7.867 15.933L7.8 15.733M13 15.733L13.067 15.8L13 15.733M16.6 15.733L16.667 15.8L16.6 15.733M33.267 15.733L33.333 15.8L33.267 15.733M34.6 15.733L34.667 15.8L34.6 15.733M35.089 15.778L35.111 15.822L35.089 15.778M9.667 15.8L9.667 16.133L9.733 16.133L9.667 15.8M14.8 15.8L14.867 15.867L14.8 15.8M33.333 15.8L33.4 15.867L33.333 15.8M34.667 15.8L34.733 15.867L34.667 15.8M44.067 15.8L44.133 15.867L44.067 15.8M3.333 15.867L3.4 15.933L3.333 15.867M34.733 15.867L34.8 15.933L34.733 15.867M36.956 15.911L36.978 15.956L36.956 15.911M42.089 15.911L42.111 15.956L42.089 15.911M45.222 15.911L45.244 15.956L45.222 15.911M46.667 15.867L46.733 15.933L46.667 15.867M5.867 15.933L5.933 16L5.867 15.933M12.956 15.978L12.978 16.022L12.956 15.978M15.067 15.933L15.133 16L15.067 15.933M16.467 15.933L16.533 16L16.467 15.933M34.8 15.933L34.867 16L34.8 15.933M35.156 15.978L35.178 16.022L35.156 15.978M3.267 16L3.333 16.067L3.267 16M14.733 16L14.8 16.067L14.733 16M15 16L15.067 16.067L15 16M16.4 16L16.467 16.067L16.4 16M33.467 16L33.533 16.067L33.467 16M34.867 16L34.933 16.067L34.867 16M40.2 16L40.2 16.333L40.267 16.333L40.2 16M44 16L44.067 16.067L44 16M46.733 16L46.8 16.067L46.733 16M4.756 16.111L4.778 16.156L4.756 16.111M5.933 16.067L6 16.133L5.933 16.067M7.889 16.111L7.911 16.156L7.889 16.111M14.933 16.067L15 16.133L14.933 16.067M33.533 16.067L33.6 16.133L33.533 16.067M14.8 16.133L14.867 16.2L14.8 16.133M35.067 16.133L35.133 16.2L35.067 16.133M35.222 16.178L35.244 16.222L35.222 16.178M37.022 16.178L37.044 16.222L37.022 16.178M42.022 16.178L42.044 16.222L42.022 16.178M43.933 16.133L44 16.2L43.933 16.133M45.156 16.178L45.178 16.222L45.156 16.178M3.2 16.2L3.267 16.267L3.2 16.2M6 16.2L6.067 16.267L6 16.2M12.889 16.244L12.911 16.289L12.889 16.244M14.711 16.222L14.756 16.244L14.711 16.222M16.267 16.2L16.333 16.267L16.267 16.2M46.8 16.2L46.867 16.267L46.8 16.2M33.667 16.267L33.733 16.333L33.667 16.267M43.867 16.267L43.933 16.333L43.867 16.267M3.133 16.333L3.2 16.4L3.133 16.333M4.8 16.333L4.867 16.4L4.8 16.333M6.067 16.333L6.133 16.4L6.067 16.333M7.956 16.378L7.978 16.422L7.956 16.378M33.733 16.333L33.8 16.4L33.733 16.333M37.089 16.378L37.111 16.422L37.089 16.378M45.089 16.378L45.111 16.422L45.089 16.378M46.867 16.333L46.933 16.4L46.867 16.333M9.733 16.4L9.733 16.6L9.8 16.6L9.733 16.4M12.822 16.444L12.844 16.489L12.822 16.444M41.956 16.444L41.978 16.489L41.956 16.444M43.8 16.4L43.867 16.467L43.8 16.4M6.133 16.467L6.2 16.533L6.133 16.467M16.067 16.467L16.133 16.533L16.067 16.467M3.067 16.533L3.133 16.6L3.067 16.533M4.867 16.533L4.933 16.6L4.867 16.533M16 16.533L16.067 16.6L16 16.533M33.867 16.533L33.933 16.6L33.867 16.533M37.156 16.578L37.178 16.622L37.156 16.578M40.133 16.533L40.133 16.733L40.2 16.733L40.133 16.533M43.733 16.533L43.8 16.6L43.733 16.533M45 16.533L45.067 16.6L45 16.533M46.933 16.533L47 16.6L46.933 16.533M6.2 16.6L6.267 16.667L6.2 16.6M8.022 16.644L8.044 16.689L8.022 16.644M12.756 16.644L12.778 16.689L12.756 16.644M33.933 16.6L34 16.667L33.933 16.6M43.667 16.6L43.733 16.667L43.667 16.6M4.933 16.667L5 16.733L4.933 16.667M41.889 16.711L41.911 16.756L41.889 16.711M47 16.667L47.067 16.733L47 16.667M3 16.733L3.067 16.8L3 16.733M6.267 16.733L6.333 16.8L6.267 16.733M15.867 16.733L15.933 16.8L15.867 16.733M37.222 16.778L37.244 16.822L37.222 16.778M43.6 16.733L43.667 16.8L43.6 16.733M44.933 16.733L45 16.8L44.933 16.733M5 16.8L5.067 16.867L5 16.8M9.822 16.844L9.844 16.889L9.822 16.844M12.689 16.844L12.711 16.889L12.689 16.844M15.8 16.8L15.867 16.867L15.8 16.8M2.933 16.867L3 16.933L2.933 16.867M6.333 16.867L6.4 16.933L6.333 16.867M8.089 16.911L8.111 16.956L8.089 16.911M15.733 16.867L15.8 16.933L15.733 16.867M34.133 16.867L34.2 16.933L34.133 16.867M40.089 16.911L40.111 16.956L40.089 16.911M43.533 16.867L43.6 16.933L43.533 16.867M44.867 16.867L44.933 16.933L44.867 16.867M47.067 16.867L47.133 16.933L47.067 16.867M5.089 16.978L5.111 17.022L5.089 16.978M6.4 16.933L6.467 17L6.4 16.933M34.2 16.933L34.267 17L34.2 16.933M37.289 16.978L37.311 17.022L37.289 16.978M12.622 17.044L12.644 17.089L12.622 17.044M41.8 17L41.867 17.067L41.8 17M43.467 17L43.533 17.067L43.467 17M44.8 17L44.867 17.067L44.8 17M47.133 17L47.2 17.067L47.133 17M2.867 17.067L2.933 17.133L2.867 17.067M6.467 17.067L6.533 17.133L6.467 17.067M9.867 17.067L9.933 17.133L9.867 17.067M15.6 17.067L15.667 17.133L15.6 17.067M43.4 17.067L43.467 17.133L43.4 17.067M5.133 17.133L5.2 17.2L5.133 17.133M8.156 17.178L8.178 17.222L8.156 17.178M15.533 17.133L15.6 17.2L15.533 17.133M34.333 17.133L34.4 17.2L34.333 17.133M37.356 17.178L37.378 17.222L37.356 17.178M40 17.133L40.067 17.2L40 17.133M44.733 17.133L44.8 17.2L44.733 17.133M12.556 17.244L12.578 17.289L12.556 17.244M34.4 17.2L34.467 17.267L34.4 17.2M41.756 17.244L41.778 17.289L41.756 17.244M43.333 17.2L43.4 17.267L43.333 17.2M47.2 17.2L47.267 17.267L47.2 17.2M2.8 17.267L2.867 17.333L2.8 17.267M6.6 17.267L6.667 17.333L6.6 17.267M9.933 17.267L10 17.333L9.933 17.267M34.467 17.267L34.533 17.333L34.467 17.267M43.267 17.267L43.333 17.333L43.267 17.267M44.667 17.267L44.733 17.333L44.667 17.267M5.267 17.333L5.333 17.4L5.267 17.333M39.933 17.333L40 17.4L39.933 17.333M8.2 17.4L8.267 17.467L8.2 17.4M10 17.4L10.067 17.467L10 17.4M15.333 17.4L15.4 17.467L15.333 17.4M37.422 17.444L37.444 17.489L37.422 17.444M41.689 17.444L41.711 17.489L41.689 17.444M43.2 17.4L43.267 17.467L43.2 17.4M44.6 17.4L44.667 17.467L44.6 17.4M47.267 17.4L47.333 17.467L47.267 17.4M2.733 17.467L2.8 17.533L2.733 17.467M5.333 17.467L5.4 17.533L5.333 17.467M6.733 17.467L6.8 17.533L6.733 17.467M12.467 17.467L12.533 17.533L12.467 17.467M15.267 17.467L15.333 17.533L15.267 17.467M34.6 17.467L34.667 17.533L34.6 17.467M39.867 17.467L39.933 17.533L39.867 17.467M34.667 17.533L34.733 17.6L34.667 17.533M44.533 17.533L44.6 17.6L44.533 17.533M5.4 17.6L5.467 17.667L5.4 17.6M8.267 17.6L8.333 17.667L8.267 17.6M10.067 17.6L10.133 17.667L10.067 17.6M15.2 17.6L15.267 17.667L15.2 17.6M39.8 17.6L39.867 17.667L39.8 17.6M41.622 17.644L41.644 17.689L41.622 17.644M43.067 17.6L43.133 17.667L43.067 17.6M47.333 17.6L47.4 17.667L47.333 17.6M2.667 17.667L2.733 17.733L2.667 17.667M6.867 17.667L6.933 17.733L6.867 17.667M15.133 17.667L15.2 17.733L15.133 17.667M34.733 17.667L34.8 17.733L34.733 17.667M37.489 17.711L37.511 17.756L37.489 17.711M43 17.667L43.067 17.733L43 17.667M44.467 17.667L44.533 17.733L44.467 17.667M5.467 17.733L5.533 17.8L5.467 17.733M6.933 17.733L7 17.8L6.933 17.733M10.133 17.733L10.2 17.8L10.133 17.733M12.422 17.778L12.444 17.822L12.422 17.778M34.8 17.733L34.867 17.8L34.8 17.733M39.733 17.733L39.8 17.8L39.733 17.733M42.933 17.733L43 17.8L42.933 17.733M7 17.8L7.067 17.867L7 17.8M8.333 17.8L8.4 17.867L8.333 17.8M41.556 17.844L41.578 17.889L41.556 17.844M42.867 17.8L42.933 17.867L42.867 17.8M47.4 17.8L47.467 17.867L47.4 17.8M2.6 17.867L2.667 17.933L2.6 17.867M5.533 17.867L5.6 17.933L5.533 17.867M7.067 17.867L7.133 17.933L7.067 17.867M10.2 17.867L10.267 17.933L10.2 17.867M15 17.867L15.067 17.933L15 17.867M39.667 17.867L39.733 17.933L39.667 17.867M42.8 17.867L42.867 17.933L42.8 17.867M44.333 17.867L44.4 17.933L44.333 17.867M5.6 17.933L5.667 18L5.6 17.933M7.133 17.933L7.2 18L7.133 17.933M8.422 17.978L8.444 18.022L8.422 17.978M14.933 17.933L15 18L14.933 17.933M34.933 17.933L35 18L34.933 17.933M37.533 17.933L37.533 18.133L37.6 18.133L37.533 17.933M42.733 17.933L42.8 18L42.733 17.933M10.267 18L10.333 18.067L10.267 18M12.333 18L12.333 18.2L12.4 18.2L12.333 18M35 18L35.067 18.067L35 18M41.467 18L41.533 18.067L41.467 18M42.667 18L42.733 18.067L42.667 18M44.267 18L44.333 18.067L44.267 18M47.467 18L47.533 18.067L47.467 18M5.667 18.067L5.733 18.133L5.667 18.067M7.333 18.067L7.4 18.133L7.333 18.067M39.6 18.067L39.667 18.133L39.6 18.067M44.2 18.067L44.267 18.133L44.2 18.067M2.533 18.133L2.6 18.2L2.533 18.133M5.733 18.133L5.8 18.2L5.733 18.133M7.4 18.133L7.467 18.2L7.4 18.133M8.467 18.133L8.533 18.2L8.467 18.133M10.333 18.133L10.4 18.2L10.333 18.133M14.8 18.133L14.867 18.2L14.8 18.133M42.467 18.133L42.533 18.2L42.467 18.133M14.733 18.2L14.8 18.267L14.733 18.2M35.133 18.2L35.2 18.267L35.133 18.2M39.533 18.2L39.6 18.267L39.533 18.2M41.4 18.2L41.467 18.267L41.4 18.2M42.4 18.2L42.467 18.267L42.4 18.2M10.4 18.267L10.467 18.333L10.4 18.267M35.2 18.267L35.267 18.333L35.2 18.267M42.333 18.267L42.4 18.333L42.333 18.267M47.533 18.267L47.6 18.333L47.533 18.267M2.467 18.333L2.533 18.4L2.467 18.333M7.667 18.333L7.733 18.4L7.667 18.333M8.533 18.333L8.6 18.4L8.533 18.333M14.667 18.333L14.733 18.4L14.667 18.333M37.6 18.333L37.6 18.533L37.667 18.533L37.6 18.333M39.467 18.333L39.533 18.4L39.467 18.333M42.2 18.333L42.267 18.4L42.2 18.333M44 18.333L44.067 18.4L44 18.333M7.733 18.4L7.8 18.467L7.733 18.4M10.467 18.4L10.533 18.467L10.467 18.4M12.267 18.4L12.267 18.667L12.333 18.667L12.267 18.4M14.6 18.4L14.667 18.467L14.6 18.4M17.8 18.4L17.867 18.467L17.8 18.4M32.067 18.4L32.133 18.467L32.067 18.4M35.267 18.4L35.333 18.467L35.267 18.4M41.333 18.4L41.4 18.467L41.333 18.4M42.133 18.4L42.2 18.467L42.133 18.4M43.933 18.4L44 18.467L43.933 18.4M6 18.467L6.067 18.533L6 18.467M7.867 18.467L7.933 18.533L7.867 18.467M8.622 18.511L8.644 18.556L8.622 18.511M17.667 18.467L17.733 18.533L17.667 18.467M31.933 18.467L32 18.533L31.933 18.467M32.267 18.467L32.333 18.533L32.267 18.467M35.333 18.467L35.4 18.533L35.333 18.467M39.4 18.467L39.467 18.533L39.4 18.467M43.867 18.467L43.933 18.533L43.867 18.467M47.6 18.467L47.667 18.533L47.6 18.467M2.4 18.533L2.467 18.6L2.4 18.533M6.067 18.533L6.133 18.6L6.067 18.533M7.933 18.533L8 18.6L7.933 18.533M10.533 18.533L10.6 18.6L10.533 18.533M14.533 18.533L14.6 18.6L14.533 18.533M17.533 18.533L17.6 18.6L17.533 18.533M18 18.533L18.067 18.6L18 18.533M31.867 18.533L31.933 18.6L31.867 18.533M32.333 18.533L32.4 18.6L32.333 18.533M41.267 18.533L41.333 18.6L41.267 18.533M41.933 18.533L42 18.6L41.933 18.533M43.8 18.533L43.867 18.6L43.8 18.533M6.133 18.6L6.2 18.667L6.133 18.6M8.067 18.6L8.133 18.667L8.067 18.6M14.467 18.6L14.533 18.667L14.467 18.6M17.467 18.6L17.533 18.667L17.467 18.6M32.4 18.6L32.467 18.667L32.4 18.6M35.4 18.6L35.467 18.667L35.4 18.6M41.867 18.6L41.933 18.667L41.867 18.6M6.2 18.667L6.267 18.733L6.2 18.667M8.133 18.667L8.2 18.733L8.133 18.667M8.667 18.667L8.733 18.733L8.667 18.667M10.6 18.667L10.667 18.733L10.6 18.667M17.4 18.667L17.467 18.733L17.4 18.667M18.089 18.711L18.111 18.756L18.089 18.711M32.467 18.667L32.533 18.733L32.467 18.667M39.267 18.667L39.333 18.733L39.267 18.667M41.222 18.711L41.244 18.756L41.222 18.711M41.733 18.667L41.8 18.733L41.733 18.667M47.689 18.711L47.711 18.756L47.689 18.711M8.267 18.733L8.333 18.8L8.267 18.733M14.4 18.733L14.467 18.8L14.4 18.733M31.822 18.778L31.844 18.822L31.822 18.778M32.533 18.733L32.6 18.8L32.533 18.733M35.467 18.733L35.533 18.8L35.467 18.733M41.6 18.733L41.667 18.8L41.6 18.733M2.333 18.8L2.4 18.867L2.333 18.8M8.444 18.822L8.489 18.844L8.444 18.822M8.733 18.8L8.6 18.867L8.6 18.933L8.733 18.8M10.667 18.8L10.733 18.867L10.667 18.8M37.667 18.8L37.667 19.933L37.733 19.933L37.667 18.8M39.2 18.8L39.267 18.867L39.2 18.8M41.467 18.8L41.533 18.867L41.467 18.8z"/>
  <path style="fill:#555555;stroke:none" d="M8.733 18.867L8.8 18.933L8.733 18.867z"/>
  <path style="fill:#3e92a4;stroke:none" d="M10.733 18.867L10.8 18.933L10.733 18.867M14.333 18.867L14.4 18.933L14.333 18.867M17.289 18.911L17.311 18.956L17.289 18.911M32.6 18.867L32.667 18.933L32.6 18.867M41.133 18.867L41.2 18.933L41.133 18.867M41.267 18.867L41.333 18.933L41.267 18.867M35.622 18.978L35.644 19.022L35.622 18.978M39.133 18.933L39.2 19L39.133 18.933M47.733 18.933L47.8 19L47.733 18.933M10.8 19L10.867 19.067L10.8 19M12.2 19L12.2 19.667L12.267 19.667L12.2 19M14.267 19L14.333 19.067L14.267 19M18.133 19L18.133 19.2L18.2 19.2L18.133 19M32.689 19.044L32.711 19.089L32.689 19.044M39.067 19L39.133 19.067L39.067 19M2.267 19.067L2.333 19.133L2.267 19.067M10.867 19.067L10.933 19.133L10.867 19.067M17.222 19.111L17.244 19.156L17.222 19.111M31.733 19.067L31.733 19.267L31.8 19.267L31.733 19.067M14.2 19.133L14.267 19.2L14.2 19.133M35.667 19.133L35.733 19.2L35.667 19.133M10.933 19.2L11 19.267L10.933 19.2M38.933 19.2L39 19.267L38.933 19.2M47.8 19.2L47.867 19.267L47.8 19.2M6.8 19.267L6.867 19.333L6.8 19.267M11 19.267L11.067 19.333L11 19.267M32.756 19.311L32.778 19.356L32.756 19.311M35.733 19.267L35.8 19.333L35.733 19.267M2.2 19.333L2.267 19.4L2.2 19.333M6.867 19.333L6.933 19.4L6.867 19.333M14.133 19.333L14.2 19.4L14.133 19.333M17.133 19.333L17.133 19.533L17.2 19.533L17.133 19.333M43 19.333L43.067 19.4L43 19.333M18.2 19.4L18.2 19.6L18.267 19.6L18.2 19.4M35.822 19.444L35.844 19.489L35.822 19.444M38.8 19.4L38.867 19.467L38.8 19.4M42.933 19.4L43 19.467L42.933 19.4M7.067 19.467L7.133 19.533L7.067 19.467M11.133 19.467L11.2 19.533L11.133 19.467M14.089 19.511L14.111 19.556L14.089 19.511M31.667 19.467L31.667 19.667L31.733 19.667L31.667 19.467M38.733 19.467L38.8 19.533L38.733 19.467M47.867 19.467L47.933 19.533L47.867 19.467M7.133 19.533L7.2 19.6L7.133 19.533M11.2 19.533L11.267 19.6L11.2 19.533M42.733 19.533L42.8 19.6L42.733 19.533M2.133 19.6L2.2 19.667L2.133 19.6M32.8 19.6L32.8 19.933L32.867 19.933L32.8 19.6M42.667 19.6L42.733 19.667L42.667 19.6M7.333 19.667L7.4 19.733L7.333 19.667M14.022 19.711L14.044 19.756L14.022 19.711M35.867 19.667L35.933 19.733L35.867 19.667M7.4 19.733L7.467 19.8L7.4 19.733M17.067 19.733L17.067 20.467L17.133 20.467L17.067 19.733M38.533 19.733L38.6 19.8L38.533 19.733M42.467 19.733L42.533 19.8L42.467 19.733M47.956 19.778L47.978 19.822L47.956 19.778M18.289 19.844L18.311 19.889L18.289 19.844M38.467 19.8L38.533 19.867L38.467 19.8M42.4 19.8L42.467 19.867L42.4 19.8M2.067 19.867L2.133 19.933L2.067 19.867M7.6 19.867L7.667 19.933L7.6 19.867M31.622 19.911L31.644 19.956L31.622 19.911M35.933 19.867L35.933 20.067L36 20.067L35.933 19.867M38.4 19.867L38.467 19.933L38.4 19.867M42.267 19.867L42.333 19.933L42.267 19.867M11.533 19.933L11.6 20L11.533 19.933M13.933 19.933L13.933 20.2L14 20.2L13.933 19.933M38.333 19.933L38.4 20L38.333 19.933M42.2 19.933L42.267 20L42.2 19.933M7.8 20L7.867 20.067L7.8 20M11.6 20L11.667 20.067L11.6 20M38.267 20L38.333 20.067L38.267 20M42.067 20L42.133 20.067L42.067 20M7.933 20.067L8 20.133L7.933 20.067M11.667 20.067L11.733 20.133L11.667 20.067M12.267 20.067L12.267 20.267L12.333 20.267L12.267 20.067M18.356 20.111L18.378 20.156L18.356 20.111M38.2 20.067L38.267 20.133L38.2 20.067M41.933 20.067L42 20.133L41.933 20.067M48 20.067L48.067 20.133L48 20.067M8.067 20.133L8.133 20.2L8.067 20.133M31.556 20.178L31.578 20.222L31.556 20.178M32.8 20.133L32.8 20.667L32.867 20.667L32.8 20.133M37.6 20.133L37.6 20.333L37.667 20.333L37.6 20.133M38.133 20.133L38.2 20.2L38.133 20.133M41.8 20.133L41.867 20.2L41.8 20.133M2 20.2L2.067 20.267L2 20.2M8.244 20.222L8.289 20.244L8.244 20.222M38.067 20.2L38.133 20.267L38.067 20.2M41.667 20.2L41.733 20.267L41.667 20.2M8.4 20.267L8.467 20.333L8.4 20.267M38 20.267L38.067 20.333L38 20.267M41.467 20.267L41.533 20.333L41.467 20.267M8.6 20.333L8.667 20.4L8.6 20.333M18.4 20.333L18.467 20.4L18.4 20.333M37.933 20.333L38 20.4L37.933 20.333M41.311 20.356L41.356 20.378L41.311 20.356M8.844 20.422L8.889 20.444L8.844 20.422M31.467 20.4L31.533 20.467L31.467 20.4M41.067 20.4L41.133 20.467L41.067 20.4M48.067 20.4L48.133 20.467L48.067 20.4M9 20.467L9 20.533L9.2 20.533L9 20.467M12.333 20.467L12.333 20.733L12.4 20.733L12.333 20.467M40.844 20.489L40.889 20.511L40.844 20.489M1.933 20.533L2 20.6L1.933 20.533M9.378 20.556L9.422 20.578L9.378 20.556M12.2 20.533L12.267 20.6L12.2 20.533M18.467 20.533L18.533 20.6L18.467 20.533M37.533 20.533L37.533 20.733L37.667 20.667L37.667 20.6L37.533 20.533M40.511 20.556L40.556 20.578L40.511 20.556M9.6 20.6L9.6 20.667L9.867 20.667L9.6 20.6z"/>
  <path style="fill:#555555;stroke:none" d="M12.333 20.6L12.4 20.667L12.333 20.6z"/>
  <path style="fill:#3e92a4;stroke:none" d="M31.4 20.6L31.467 20.667L31.4 20.6M40.067 20.6L40.067 20.667L40.333 20.667L40.067 20.6M10.067 20.667L10.133 20.733L10.067 20.667M10.133 20.733L10.2 20.8L10.133 20.733M13.956 20.778L13.978 20.822L13.956 20.778M18.533 20.733L18.6 20.8L18.533 20.733M48.133 20.733L48.2 20.8L48.133 20.733M10.2 20.8L10.267 20.867L10.2 20.8M17.133 20.8L17.133 21.067L17.2 21.067L17.133 20.8M31.333 20.8L31.4 20.867L31.333 20.8M35.933 20.8L36 20.867L35.933 20.8M1.889 20.911L1.911 20.956L1.889 20.911M10.267 20.867L10.333 20.933L10.267 20.867M10.333 20.933L10.4 21L10.333 20.933M18.6 20.933L18.667 21L18.6 20.933M32.733 20.933L32.733 21.2L32.8 21.2L32.733 20.933M35.867 20.933L35.933 21L35.867 20.933M39.533 20.933L39.6 21L39.533 20.933M10.4 21L10.467 21.067L10.4 21M14.067 21L14.133 21.067L14.067 21M31.267 21L31.333 21.067L31.267 21M35.8 21L35.867 21.067L35.8 21M39.467 21L39.533 21.067L39.467 21M14.133 21.067L14.2 21.133L14.133 21.067M39.4 21.067L39.467 21.133L39.4 21.067M18.667 21.133L18.733 21.2L18.667 21.133M48.222 21.178L48.244 21.222L48.222 21.178M10.667 21.2L10.733 21.267L10.667 21.2M31.2 21.2L31.267 21.267L31.2 21.2M39.2 21.2L39.267 21.267L39.2 21.2M1.822 21.311L1.844 21.356L1.822 21.311M6.6 21.267L6.667 21.333L6.6 21.267M14.333 21.267L14.4 21.333L14.333 21.267M39.133 21.267L39.2 21.333L39.133 21.267M43.311 21.289L43.356 21.311L43.311 21.289M6.378 21.356L6.422 21.378L6.378 21.356M6.867 21.333L6.933 21.4L6.867 21.333M10.867 21.333L10.933 21.4L10.867 21.333M14.4 21.333L14.467 21.4L14.4 21.333M17.2 21.333L17.2 21.533L17.267 21.533L17.2 21.333M18.733 21.333L18.8 21.4L18.733 21.333M31.156 21.378L31.178 21.422L31.156 21.378M35.467 21.333L35.533 21.4L35.467 21.333M39 21.333L39.067 21.4L39 21.333M43.044 21.356L43.089 21.378L43.044 21.356M43.533 21.333L43.6 21.4L43.533 21.333M6.267 21.4L6.333 21.467L6.267 21.4M7 21.4L7.067 21.467L7 21.4M11 21.4L11.067 21.467L11 21.4M32.667 21.4L32.667 21.6L32.733 21.6L32.667 21.4M35.4 21.4L35.467 21.467L35.4 21.4M42.867 21.4L42.933 21.467L42.867 21.4M6.2 21.467L6.267 21.533L6.2 21.467M7.133 21.467L7.2 21.533L7.133 21.467M11.067 21.467L11.133 21.533L11.067 21.467M14.6 21.467L14.667 21.533L14.6 21.467M35.267 21.467L35.333 21.533L35.267 21.467M38.8 21.467L38.867 21.533L38.8 21.467M42.733 21.467L42.8 21.533L42.733 21.467M6.156 21.578L6.178 21.622L6.156 21.578M7.2 21.533L7.267 21.6L7.2 21.533M11.2 21.533L11.267 21.6L11.2 21.533M14.733 21.533L14.8 21.6L14.733 21.533M18.8 21.533L18.867 21.6L18.8 21.533M31.089 21.578L31.111 21.622L31.089 21.578M35.133 21.533L35.2 21.6L35.133 21.533M38.667 21.533L38.733 21.6L38.667 21.533M42.667 21.533L42.733 21.6L42.667 21.533M43.733 21.533L43.8 21.6L43.733 21.533M48.289 21.578L48.311 21.622L48.289 21.578M11.333 21.6L11.4 21.667L11.333 21.6M14.867 21.6L14.933 21.667L14.867 21.6M35 21.6L35.067 21.667L35 21.6M38.533 21.6L38.6 21.667L38.533 21.6M7.4 21.667L7.467 21.733L7.4 21.667M11.467 21.667L11.533 21.733L11.467 21.667M15.111 21.689L15.156 21.711L15.111 21.689M17.289 21.711L17.311 21.756L17.289 21.711M18.867 21.667L18.933 21.733L18.867 21.667M34.778 21.689L34.822 21.711L34.778 21.689M38.4 21.667L38.467 21.733L38.4 21.667M42.467 21.667L42.533 21.733L42.467 21.667M43.8 21.667L43.8 21.867L43.867 21.867L43.8 21.667M1.756 21.778L1.778 21.822L1.756 21.778M6.067 21.733L6.067 22.267L6.133 22.267L6.067 21.733M11.6 21.733L11.667 21.8L11.6 21.733M15.444 21.756L15.489 21.778L15.444 21.756M31 21.733L31.067 21.8L31 21.733M32.622 21.778L32.644 21.822L32.622 21.778M34.4 21.733L34.4 21.8L34.6 21.8L34.4 21.733M38.267 21.733L38.333 21.8L38.267 21.733M42.4 21.733L42.467 21.8L42.4 21.733M7.6 21.8L7.667 21.867L7.6 21.8M11.733 21.8L11.8 21.867L11.733 21.8M15.733 21.8L15.733 21.867L15.933 21.867L15.733 21.8M34 21.8L34 21.867L34.2 21.867L34 21.8M38.133 21.8L38.2 21.867L38.133 21.8M7.667 21.867L7.733 21.933L7.667 21.867M11.867 21.867L11.933 21.933L11.867 21.867M16.178 21.889L16.222 21.911L16.178 21.889M18.933 21.867L19 21.933L18.933 21.867M30.933 21.867L31 21.933L30.933 21.867M33.778 21.889L33.822 21.911L33.778 21.889M38 21.867L38.067 21.933L38 21.867M42.2 21.867L42.267 21.933L42.2 21.867M7.8 21.933L7.867 22L7.8 21.933M12 21.933L12.067 22L12 21.933M16.378 21.956L16.422 21.978L16.378 21.956M17.333 21.933L17.4 22L17.333 21.933M32.556 21.978L32.578 22.022L32.556 21.978M33.511 21.956L33.556 21.978L33.511 21.956M37.867 21.933L37.933 22L37.867 21.933M42.067 21.933L42.133 22L42.067 21.933M12.178 22.022L12.222 22.044L12.178 22.022M16.644 22.022L16.689 22.044L16.644 22.022M19 22L19.067 22.067L19 22M33.244 22.022L33.289 22.044L33.244 22.022M37.733 22L37.8 22.067L37.733 22M42 22L42.067 22.067L42 22M48.333 22L48.333 22.2L48.4 22.2L48.333 22M8 22.067L8.067 22.133L8 22.067M12.333 22.067L12.4 22.133L12.333 22.067M16.911 22.089L16.956 22.111L16.911 22.089M30.867 22.067L30.933 22.133L30.867 22.067M33 22.067L33.067 22.133L33 22.067M37.533 22.067L37.6 22.133L37.533 22.067M41.867 22.067L41.933 22.133L41.867 22.067M12.511 22.156L12.556 22.178L12.511 22.156M17.111 22.156L17.156 22.178L17.111 22.156M17.4 22.133L17.333 22.267L17.4 22.133M19.089 22.178L19.111 22.222L19.089 22.178M32.467 22.133L32.467 22.267L32.6 22.267L32.467 22.133M32.778 22.156L32.822 22.178L32.778 22.156M37.378 22.156L37.422 22.178L37.378 22.156M41.8 22.133L41.867 22.2L41.8 22.133M43.8 22.133L43.8 22.4L43.867 22.4L43.8 22.133M8.2 22.2L8.267 22.267L8.2 22.2M12.667 22.2L12.733 22.267L12.667 22.2z"/>
  <path style="fill:#555555;stroke:none" d="M17.4 22.2L17.467 22.267L17.4 22.2z"/>
  <path style="fill:#3e92a4;stroke:none" d="M20.733 22.2L20.8 22.267L20.733 22.2M28.933 22.2L29 22.267L28.933 22.2M29.133 22.2L29.2 22.267L29.133 22.2M30.8 22.2L30.867 22.267L30.8 22.2M37.2 22.2L37.267 22.267L37.2 22.2M41.667 22.2L41.733 22.267L41.667 22.2M1.667 22.267L1.667 22.467L1.733 22.467L1.667 22.267M8.333 22.267L8.4 22.333L8.333 22.267M12.867 22.267L12.933 22.333L12.867 22.267M20.667 22.267L20.733 22.333L20.667 22.267M28.867 22.267L28.933 22.333L28.867 22.267M37 22.267L37.067 22.333L37 22.267M13.044 22.356L13.089 22.378L13.044 22.356M19.133 22.333L19.2 22.4L19.133 22.333M20.6 22.333L20.667 22.4L20.6 22.333M30.733 22.333L30.8 22.4L30.733 22.333M36.844 22.356L36.889 22.378L36.844 22.356M41.467 22.333L41.533 22.4L41.467 22.333M8.533 22.4L8.6 22.467L8.533 22.4M13.244 22.422L13.289 22.444L13.244 22.422M21.067 22.4L21.133 22.467L21.067 22.4M28.8 22.4L28.8 22.6L28.867 22.6L28.8 22.4M29.333 22.4L29.4 22.467L29.333 22.4M36.644 22.422L36.689 22.444L36.644 22.422M41.333 22.4L41.4 22.467L41.333 22.4M6.156 22.511L6.178 22.556L6.156 22.511M8.667 22.467L8.733 22.533L8.667 22.467M13.467 22.467L13.533 22.533L13.467 22.467M19.2 22.467L19.267 22.533L19.2 22.467M20.533 22.467L20.6 22.533L20.533 22.467M30.667 22.467L30.733 22.533L30.667 22.467M36.444 22.489L36.489 22.511L36.444 22.489M41.2 22.467L41.267 22.533L41.2 22.467M8.8 22.533L8.867 22.6L8.8 22.533M13.778 22.556L13.822 22.578L13.778 22.556M36.067 22.533L36.067 22.6L36.267 22.6L36.067 22.533M41.067 22.533L41.133 22.6L41.067 22.533M43.733 22.533L43.8 22.6L43.733 22.533M8.933 22.6L9 22.667L8.933 22.6M14 22.6L14 22.667L14.2 22.667L14 22.6M19.267 22.6L19.333 22.667L19.267 22.6M29.422 22.644L29.444 22.689L29.422 22.644M30.6 22.6L30.667 22.667L30.6 22.6M35.733 22.6L35.733 22.667L35.933 22.667L35.733 22.6M40.933 22.6L41 22.667L40.933 22.6M48.4 22.6L48.4 22.8L48.467 22.8L48.4 22.6M6.222 22.711L6.244 22.756L6.222 22.711M9.133 22.667L9.2 22.733L9.133 22.667M14.778 22.689L14.822 22.711L14.778 22.689M20.467 22.667L20.467 22.867L20.533 22.867L20.467 22.667M21.133 22.667L21.133 23.2L21.2 23.2L21.133 22.667M35.067 22.667L35.067 22.733L35.267 22.733L35.067 22.667M40.778 22.689L40.822 22.711L40.778 22.689M9.378 22.756L9.422 22.778L9.378 22.756M14.267 22.733L14.267 22.8L14.533 22.8L14.267 22.733M19.333 22.733L19.4 22.8L19.333 22.733M30.533 22.733L30.6 22.8L30.533 22.733M35.4 22.733L35.4 22.8L35.667 22.8L35.4 22.733M40.533 22.733L40.6 22.8L40.533 22.733M43.667 22.733L43.733 22.8L43.667 22.733M9.644 22.822L9.689 22.844L9.644 22.822M13.667 22.8L13.667 22.867L14 22.867L13.667 22.8M35.933 22.8L35.933 22.867L36.267 22.867L35.933 22.8M40.311 22.822L40.356 22.844L40.311 22.822M1.6 22.867L1.6 23.2L1.667 23.2L1.6 22.867M6.267 22.867L6.333 22.933L6.267 22.867M9.911 22.889L9.956 22.911L9.911 22.889M13.067 22.867L13.067 22.933L13.4 22.933L13.067 22.867M19.4 22.867L19.467 22.933L19.4 22.867M30.467 22.867L30.533 22.933L30.467 22.867M36.6 22.867L36.6 22.933L36.867 22.933L36.6 22.867M39.978 22.889L40.022 22.911L39.978 22.889M10.2 22.933L10.2 23L10.467 23L10.2 22.933M12.333 22.933L12.333 23L12.667 23L12.333 22.933M19.467 22.933L19.533 23L19.467 22.933M28.733 22.933L28.733 23.4L28.8 23.4L28.733 22.933M37.333 22.933L37.333 23L37.6 23L37.333 22.933M39.467 22.933L39.467 23L39.733 23L39.467 22.933M43.6 22.933L43.667 23L43.6 22.933M6.333 23L6.4 23.067L6.333 23M10.933 23L10.933 23.067L11.933 23.067L10.933 23M30.4 23L30.467 23.067L30.4 23M38.067 23L38.067 23.067L39 23.067L38.067 23M19.533 23.067L19.6 23.133L19.533 23.067M29.467 23.067L29.467 23.333L29.533 23.333L29.467 23.067M43.467 23.133L43.533 23.2L43.467 23.133M6.467 23.2L6.533 23.267L6.467 23.2M20.4 23.2L20.4 23.467L20.467 23.467L20.4 23.2M30.267 23.2L30.333 23.267L30.267 23.2M43.4 23.2L43.467 23.267L43.4 23.2M6.533 23.267L6.6 23.333L6.533 23.267M19.667 23.267L19.733 23.333L19.667 23.267M19.733 23.333L19.8 23.4L19.733 23.333M43.267 23.4L43.333 23.467L43.267 23.4M19.867 23.467L19.933 23.533L19.867 23.467M43.2 23.467L43.267 23.533L43.2 23.467M48.467 23.467L48.467 23.8L48.533 23.8L48.467 23.467M6.733 23.533L6.8 23.6L6.733 23.533M19.933 23.533L20 23.6L19.933 23.533M20.356 23.578L20.378 23.622L20.356 23.578M21.2 23.533L21.2 23.8L21.267 23.8L21.2 23.533M29.533 23.533L29.6 23.6L29.533 23.533M29.933 23.533L30 23.6L29.933 23.533M43.133 23.533L43.2 23.6L43.133 23.533M6.8 23.6L6.867 23.667L6.8 23.6M29.867 23.6L29.933 23.667L29.867 23.6M43.067 23.6L43.133 23.667L43.067 23.6M6.867 23.667L6.933 23.733L6.867 23.667M20.133 23.667L20.2 23.733L20.133 23.667M28.667 23.667L28.667 23.933L28.733 23.933L28.667 23.667M29.6 23.667L29.667 23.733L29.6 23.667M29.733 23.667L29.8 23.733L29.733 23.667M43 23.667L43.067 23.733L43 23.667M42.933 23.733L43 23.8L42.933 23.733M7.067 23.8L7.133 23.867L7.067 23.8M1.533 23.867L1.533 24.8L1.6 24.8L1.533 23.867M6.467 23.867L6.467 23.933L6.867 23.933L6.467 23.867M7.067 23.933L7.067 24L7.333 24L7.067 23.933M42.6 23.933L42.6 24L42.933 24L42.6 23.933M43.133 23.867L43.133 23.933L43.467 23.933L43.133 23.867M6.4 23.933L6.467 24L6.4 23.933M43.467 23.933L43.533 24L43.467 23.933M21.267 24L21.267 24.2L21.333 24.2L21.267 24M43.533 24L43.6 24.067L43.533 24M6.333 24.067L6.4 24.133L6.333 24.067M15.8 24.133L15.8 24.2L16.4 24.2L15.8 24.133M28.622 24.178L28.644 24.222L28.622 24.178M33.533 24.133L33.533 24.2L34.2 24.2L33.533 24.133M15 24.2L15 24.267L15.267 24.267L15 24.2z"/>
  <path style="fill:#555555;stroke:none" d="M13.4 24.533L13.4 24.6C15.166 24.6 16.92 24.949 18.533 25.687C19.318 26.047 20.014 26.594 20.8 26.933C19.923 23.888 15.806 24.037 13.4 24.533z"/>
  <path style="fill:#3e92a4;stroke:none" d="M16.667 24.2L16.667 24.267L16.933 24.267L16.667 24.2M33 24.2L33 24.267L33.267 24.267L33 24.2z"/>
  <path style="fill:#555555;stroke:none" d="M29.133 26.933C29.919 26.594 30.615 26.047 31.4 25.687C33.016 24.947 34.764 24.6 36.533 24.6C36.096 24.333 35.435 24.336 34.933 24.267C32.894 23.987 29.792 24.65 29.133 26.933z"/>
  <path style="fill:#3e92a4;stroke:none" d="M34.667 24.2L34.667 24.267L35 24.267L34.667 24.2M14.6 24.267L14.6 24.333L14.8 24.333L14.6 24.267M17.133 24.267L17.133 24.333L17.333 24.333L17.133 24.267M32.6 24.267L32.6 24.333L32.8 24.333L32.6 24.267M35.133 24.267L35.133 24.333L35.333 24.333L35.133 24.267M6.333 24.333L6.4 24.4L6.333 24.333M14.133 24.333L14.133 24.4L14.4 24.4L14.133 24.333M17.511 24.356L17.556 24.378L17.511 24.356M32.378 24.356L32.422 24.378L32.378 24.356M35.533 24.333L35.533 24.4L35.8 24.4L35.533 24.333M43.556 24.378L43.578 24.422L43.556 24.378M13.778 24.422L13.822 24.444L13.778 24.422M17.778 24.422L17.822 24.444L17.778 24.422M21.356 24.444L21.378 24.489L21.356 24.444M32.111 24.422L32.156 24.444L32.111 24.422M36.111 24.422L36.156 24.444L36.111 24.422M13.511 24.489L13.556 24.511L13.511 24.489M17.978 24.489L18.022 24.511L17.978 24.489M28.556 24.511L28.578 24.556L28.556 24.511M31.911 24.489L31.956 24.511L31.911 24.489M36.378 24.489L36.422 24.511L36.378 24.489M6.4 24.533L6.467 24.6L6.4 24.533M13.311 24.556L13.356 24.578L13.311 24.556M18.2 24.533L18.267 24.6L18.2 24.533M31.711 24.556L31.756 24.578L31.711 24.556M36.533 24.533L36.533 24.6L36.733 24.6L36.533 24.533M43.467 24.533L43.533 24.6L43.467 24.533M14.133 24.6L14.133 24.667L14.6 24.667L14.133 24.6M18.333 24.6L18.4 24.667L18.333 24.6M31.533 24.6L31.6 24.667L31.533 24.6M35.333 24.6L35.333 24.667L35.667 24.667L35.333 24.6M12.8 24.667L12.867 24.733L12.8 24.667M12.933 24.667L13 24.733L12.933 24.667M14.867 24.667L14.867 24.733L15.133 24.733L14.867 24.667M18.511 24.689L18.556 24.711L18.511 24.689M21.4 24.667L21.467 24.733L21.4 24.667M31.4 24.667L31.467 24.733L31.4 24.667M34.733 24.667L34.733 24.733L35 24.733L34.733 24.667M36.933 24.667L37 24.733L36.933 24.667M37.067 24.667L37.133 24.733L37.067 24.667M43.4 24.667L43.467 24.733L43.4 24.667M6.533 24.733L6.6 24.8L6.533 24.733M12.578 24.756L12.622 24.778L12.578 24.756M15.333 24.733L15.333 24.8L15.6 24.8L15.333 24.733M18.667 24.733L18.733 24.8L18.667 24.733M28.467 24.733L28.533 24.8L28.467 24.733M31.267 24.733L31.333 24.8L31.267 24.733M34.378 24.756L34.422 24.778L34.378 24.756M36.867 24.733L36.933 24.8L36.867 24.733M37.311 24.756L37.356 24.778L37.311 24.756M6.6 24.8L6.667 24.867L6.6 24.8M12.378 24.822L12.422 24.844L12.378 24.822M15.844 24.822L15.889 24.844L15.844 24.822M18.8 24.8L18.867 24.867L18.8 24.8M28.4 24.8L28.467 24.867L28.4 24.8M31.133 24.8L31.2 24.867L31.133 24.8M34 24.8L34 24.867L34.2 24.867L34 24.8M37.578 24.822L37.622 24.844L37.578 24.822M6.667 24.867L6.733 24.933L6.667 24.867M12.111 24.889L12.156 24.911L12.111 24.889M13.067 24.867L13.133 24.933L13.067 24.867M16.178 24.889L16.222 24.911L16.178 24.889M18.933 24.867L19 24.933L18.933 24.867M28.333 24.867L28.4 24.933L28.333 24.867M31 24.867L31.067 24.933L31 24.867M33.778 24.889L33.822 24.911L33.778 24.889M36.8 24.867L36.867 24.933L36.8 24.867M37.778 24.889L37.822 24.911L37.778 24.889M6.733 24.933L6.8 25L6.733 24.933M11.844 24.956L11.889 24.978L11.844 24.956M16.378 24.956L16.422 24.978L16.378 24.956M19.067 24.933L19.133 25L19.067 24.933M21.6 24.933L21.667 25L21.6 24.933M28.267 24.933L28.333 25L28.267 24.933M30.867 24.933L30.933 25L30.867 24.933M33.444 24.956L33.489 24.978L33.444 24.956M38.044 24.956L38.089 24.978L38.044 24.956M43.133 24.933L43.2 25L43.133 24.933M6.8 25L6.867 25.067L6.8 25M11.644 25.022L11.689 25.044L11.644 25.022M13.133 25L13.2 25.067L13.133 25M16.644 25.022L16.689 25.044L16.644 25.022M21.667 25L21.733 25.067L21.667 25M28.2 25L28.267 25.067L28.2 25M30.733 25L30.8 25.067L30.733 25M33.244 25.022L33.289 25.044L33.244 25.022M38.311 25.022L38.356 25.044L38.311 25.022M43.067 25L43.133 25.067L43.067 25M1.533 25.067L1.533 26L1.6 26L1.533 25.067M11.378 25.089L11.422 25.111L11.378 25.089M13.2 25.067L13.267 25.133L13.2 25.067M16.867 25.067L16.933 25.133L16.867 25.067M19.267 25.067L19.333 25.133L19.267 25.067M21.733 25.067L21.8 25.133L21.733 25.067M28.133 25.067L28.2 25.133L28.133 25.067M30.6 25.067L30.667 25.133L30.6 25.067M32.978 25.089L33.022 25.111L32.978 25.089M36.667 25.067L36.733 25.133L36.667 25.067M38.533 25.067L38.6 25.133L38.533 25.067M43 25.067L43.067 25.133L43 25.067M7 25.133L7.067 25.2L7 25.133M11.111 25.156L11.156 25.178L11.111 25.156M17.133 25.133L17.2 25.2L17.133 25.133M19.4 25.133L19.467 25.2L19.4 25.133M21.8 25.133L21.867 25.2L21.8 25.133M32.778 25.156L32.822 25.178L32.778 25.156M38.778 25.156L38.822 25.178L38.778 25.156M7.067 25.2L7.133 25.267L7.067 25.2M10.867 25.2L10.933 25.267L10.867 25.2M13.267 25.2L13.333 25.267L13.267 25.2M17.333 25.2L17.4 25.267L17.333 25.2M19.467 25.2L19.533 25.267L19.467 25.2M21.867 25.2L21.933 25.267L21.867 25.2M30.4 25.2L30.467 25.267L30.4 25.2M32.578 25.222L32.622 25.244L32.578 25.222M39.044 25.222L39.089 25.244L39.044 25.222M42.8 25.2L42.867 25.267L42.8 25.2M7.2 25.267L7.267 25.333L7.2 25.267M10.644 25.289L10.689 25.311L10.644 25.289M13.333 25.267L13.4 25.333L13.333 25.267M17.533 25.267L17.6 25.333L17.533 25.267M32.378 25.289L32.422 25.311L32.378 25.289M36.533 25.267L36.6 25.333L36.533 25.267M39.244 25.289L39.289 25.311L39.244 25.289M42.733 25.267L42.8 25.333L42.733 25.267M7.267 25.333L7.333 25.4L7.267 25.333M10.4 25.333L10.467 25.4L10.4 25.333M17.733 25.333L17.8 25.4L17.733 25.333M19.667 25.333L19.733 25.4L19.667 25.333M27.933 25.333L28 25.4L27.933 25.333M32.2 25.333L32.267 25.4L32.2 25.333M39.467 25.333L39.533 25.4L39.467 25.333M42.6 25.333L42.667 25.4L42.6 25.333M7.4 25.4L7.467 25.467L7.4 25.4M10.178 25.422L10.222 25.444L10.178 25.422M13.4 25.4L13.467 25.467L13.4 25.4M17.867 25.4L17.933 25.467L17.867 25.4M19.733 25.4L19.8 25.467L19.733 25.4M27.867 25.4L27.933 25.467L27.867 25.4M32 25.4L32.067 25.467L32 25.4M36.467 25.4L36.533 25.467L36.467 25.4M39.711 25.422L39.756 25.444L39.711 25.422M42.467 25.4L42.533 25.467L42.467 25.4M7.533 25.467L7.6 25.533L7.533 25.467M9.911 25.489L9.956 25.511L9.911 25.489M18.044 25.489L18.089 25.511L18.044 25.489M19.8 25.467L19.867 25.533L19.8 25.467M22.067 25.467L22.133 25.533L22.067 25.467M27.8 25.467L27.867 25.533L27.8 25.467M30.067 25.467L30.133 25.533L30.067 25.467M31.8 25.467L31.867 25.533L31.8 25.467M36.4 25.467L36.467 25.533L36.4 25.467M39.978 25.489L40.022 25.511L39.978 25.489M42.333 25.467L42.4 25.533L42.333 25.467M7.711 25.556L7.756 25.578L7.711 25.556M9.644 25.556L9.689 25.578L9.644 25.556M18.2 25.533L18.267 25.6L18.2 25.533M19.867 25.533L19.933 25.6L19.867 25.533M22.133 25.533L22.2 25.6L22.133 25.533M30 25.533L30.067 25.6L30 25.533M31.667 25.533L31.733 25.6L31.667 25.533M40.244 25.556L40.289 25.578L40.244 25.556M42.178 25.556L42.222 25.578L42.178 25.556M7.933 25.6L8 25.667L7.933 25.6M9.378 25.622L9.422 25.644L9.378 25.622M13.533 25.6L13.6 25.667L13.533 25.6M18.378 25.622L18.422 25.644L18.378 25.622M19.933 25.6L20 25.667L19.933 25.6M29.933 25.6L30 25.667L29.933 25.6M31.511 25.622L31.556 25.644L31.511 25.622M36.333 25.6L36.4 25.667L36.333 25.6M40.511 25.622L40.556 25.644L40.511 25.622M41.978 25.622L42.022 25.644L41.978 25.622M8.267 25.667L8.267 25.733L8.6 25.733L8.267 25.667M9 25.667L9 25.733L9.2 25.733L9 25.667M18.533 25.667L18.6 25.733L18.533 25.667M20 25.667L20.067 25.733L20 25.667M29.867 25.667L29.933 25.733L29.867 25.667M31.333 25.667L31.4 25.733L31.333 25.667M40.733 25.667L40.733 25.733L40.933 25.733L40.733 25.667M41.4 25.667L41.4 25.733L41.733 25.733L41.4 25.667M18.667 25.733L18.733 25.8L18.667 25.733M20.067 25.733L20.133 25.8L20.067 25.733M27.6 25.733L27.667 25.8L27.6 25.733M29.8 25.733L29.867 25.8L29.8 25.733M31.2 25.733L31.267 25.8L31.2 25.733M13.667 25.8L13.733 25.867L13.667 25.8M18.8 25.8L18.867 25.867L18.8 25.8M20.133 25.8L20.2 25.867L20.133 25.8M22.333 25.8L22.4 25.867L22.333 25.8M27.533 25.8L27.6 25.867L27.533 25.8M29.733 25.8L29.8 25.867L29.733 25.8M31.067 25.8L31.133 25.867L31.067 25.8M36.2 25.8L36.267 25.867L36.2 25.8M18.933 25.867L19 25.933L18.933 25.867M20.2 25.867L20.267 25.933L20.2 25.867M22.4 25.867L22.467 25.933L22.4 25.867M30.933 25.867L31 25.933L30.933 25.867M13.733 25.933L13.8 26L13.733 25.933M19.067 25.933L19.133 26L19.067 25.933M20.267 25.933L20.333 26L20.267 25.933M30.8 25.933L30.867 26L30.8 25.933M13.8 26L13.867 26.067L13.8 26M19.2 26L19.267 26.067L19.2 26M27.4 26L27.467 26.067L27.4 26M30.667 26L30.733 26.067L30.667 26M36.067 26L36.133 26.067L36.067 26M19.333 26.067L19.4 26.133L19.333 26.067M22.533 26.067L22.6 26.133L22.533 26.067M27.333 26.067L27.4 26.133L27.333 26.067M29.533 26.067L29.6 26.133L29.533 26.067M30.533 26.067L30.6 26.133L30.533 26.067M13.867 26.133L13.933 26.2L13.867 26.133M19.467 26.133L19.533 26.2L19.467 26.133M20.4 26.133L20.467 26.2L20.4 26.133M22.6 26.133L22.667 26.2L22.6 26.133M29.467 26.133L29.533 26.2L29.467 26.133M30.4 26.133L30.467 26.2L30.4 26.133M13.933 26.2L14 26.267L13.933 26.2M30.267 26.2L30.333 26.267L30.267 26.2M35.933 26.2L36 26.267L35.933 26.2M19.667 26.267L19.733 26.333L19.667 26.267M27.2 26.267L27.267 26.333L27.2 26.267M29.4 26.267L29.467 26.333L29.4 26.267M30.2 26.267L30.267 26.333L30.2 26.267M48.467 26.267L48.467 26.533L48.533 26.533L48.467 26.267M14 26.333L14.067 26.4L14 26.333M19.8 26.333L19.867 26.4L19.8 26.333M20.533 26.333L20.6 26.4L20.533 26.333M22.733 26.333L22.8 26.4L22.733 26.333M30.067 26.333L30.133 26.4L30.067 26.333M35.867 26.333L35.933 26.4L35.867 26.333M19.933 26.4L20 26.467L19.933 26.4M29.933 26.4L30 26.467L29.933 26.4M35.8 26.4L35.867 26.467L35.8 26.4M20 26.467L20.067 26.533L20 26.467M20.6 26.467L20.667 26.533L20.6 26.467M27.067 26.467L27.133 26.533L27.067 26.467M29.267 26.467L29.333 26.533L29.267 26.467M14.133 26.533L14.2 26.6L14.133 26.533M20.133 26.533L20.2 26.6L20.133 26.533M22.867 26.533L22.933 26.6L22.867 26.533M27 26.533L27.067 26.6L27 26.533M29.733 26.533L29.8 26.6L29.733 26.533M35.733 26.533L35.8 26.6L35.733 26.533M20.2 26.6L20.267 26.667L20.2 26.6M20.667 26.6L20.733 26.667L20.667 26.6M22.933 26.6L23 26.667L22.933 26.6M29.2 26.6L29.267 26.667L29.2 26.6M20.333 26.667L20.4 26.733L20.333 26.667M29.533 26.667L29.6 26.733L29.533 26.667z"/>
  <path style="fill:#3e92a4;stroke:none" d="M1.6 26.733L1.6 27L1.667 27L1.6 26.733M14.267 26.733L14.333 26.8L14.267 26.733M20.4 26.733L20.467 26.8L20.4 26.733M20.733 26.733L20.8 26.8L20.733 26.733M23.067 26.733L23.067 26.8L26.933 26.8L25.667 26.733L23.067 26.733M29.133 26.733L29.2 26.8L29.133 26.733M29.467 26.733L29.533 26.8L29.467 26.733M35.6 26.733L35.667 26.8L35.6 26.733M20.533 26.8L20.6 26.867L20.533 26.8M29.333 26.8L29.4 26.867L29.333 26.8M14.333 26.867L14.4 26.933L14.333 26.867M20.667 26.867L20.733 26.933L20.667 26.867M20.822 26.911L20.844 26.956L20.822 26.911M29.089 26.911L29.111 26.956L29.089 26.911M29.2 26.867L29.267 26.933L29.2 26.867M14.4 26.933L14.467 27L14.4 26.933M35.467 26.933L35.533 27L35.467 26.933M14.467 27.067L14.533 27.133L14.467 27.067M15.533 27.067L15.6 27.2L15.667 27.2L15.733 27.067L15.533 27.067M34.2 27.067L34.333 27.2L34.333 27.067L34.2 27.067M14.533 27.133L14.6 27.2L14.533 27.133M15.867 27.133L15.933 27.2L15.867 27.133M34 27.133L34.067 27.2L34 27.133M35.333 27.133L35.4 27.2L35.333 27.133M48.4 27.133L48.4 27.4L48.467 27.4L48.4 27.133M15.667 27.2L15.733 27.267L15.667 27.2M16.044 27.222L16.089 27.244L16.044 27.222M33.844 27.222L33.889 27.244L33.844 27.222M34.2 27.2L34.267 27.267L34.2 27.2M14.6 27.267L14.667 27.333L14.6 27.267M15.733 27.267L15.8 27.333L15.733 27.267M16.2 27.267L16.267 27.333L16.2 27.267M33.667 27.267L33.733 27.333L33.667 27.267M34.133 27.267L34.2 27.333L34.133 27.267M35.267 27.267L35.333 27.333L35.267 27.267M16.333 27.333L16.4 27.4L16.333 27.333M33.533 27.333L33.6 27.4L33.533 27.333M34.067 27.333L34.133 27.4L34.067 27.333M35.2 27.333L35.267 27.4L35.2 27.333M16.467 27.4L16.533 27.467L16.467 27.4M33.4 27.4L33.467 27.467L33.4 27.4M14.733 27.467L14.8 27.533L14.733 27.467M16.533 27.467L16.6 27.533L16.533 27.467M33.267 27.467L33.333 27.533L33.267 27.467M35.133 27.467L35.2 27.533L35.133 27.467M1.689 27.578L1.711 27.622L1.689 27.578M16.667 27.533L16.733 27.6L16.667 27.533M33.2 27.533L33.267 27.6L33.2 27.533M16 27.6L16.067 27.667L16 27.6M33.067 27.6L33.133 27.667L33.067 27.6M14.867 27.667L14.933 27.733L14.867 27.667M16.067 27.667L16.133 27.733L16.067 27.667M16.867 27.667L16.933 27.733L16.867 27.667M33.8 27.667L33.867 27.733L33.8 27.667M35 27.667L35.067 27.733L35 27.667M16.133 27.733L16.2 27.8L16.133 27.733M32.867 27.733L32.933 27.8L32.867 27.733M33.733 27.733L33.8 27.8L33.733 27.733M48.333 27.733L48.333 27.933L48.4 27.933L48.333 27.733M14.933 27.8L15 27.867L14.933 27.8M16.2 27.8L16.267 27.867L16.2 27.8M17.067 27.8L17.133 27.867L17.067 27.8M32.8 27.8L32.867 27.867L32.8 27.8M33.667 27.8L33.733 27.867L33.667 27.8M15 27.867L15.067 27.933L15 27.867M17.133 27.867L17.2 27.933L17.133 27.867M33.6 27.867L33.667 27.933L33.6 27.867M34.867 27.867L34.933 27.933L34.867 27.867z"/>
  <path style="fill:#3e92a4;stroke:none" d="M15.067 28L15.133 28.067L15.067 28M32.533 28L32.6 28.067L32.533 28M1.756 28.111L1.778 28.156L1.756 28.111M15.133 28.067L15.2 28.133L15.133 28.067M17.4 28.067L17.467 28.133L17.4 28.067M32.467 28.067L32.533 28.133L32.467 28.067M34.733 28.067L34.8 28.133L34.733 28.067M16.467 28.133L16.533 28.2L16.467 28.133M17.467 28.133L17.533 28.2L17.467 28.133M32.4 28.133L32.467 28.2L32.4 28.133M34.667 28.133L34.733 28.2L34.667 28.133M16.533 28.2L16.6 28.267L16.533 28.2M17.533 28.2L17.6 28.267L17.533 28.2M32.333 28.2L32.4 28.267L32.333 28.2M33.333 28.2L33.4 28.267L33.333 28.2M15.267 28.267L15.333 28.333L15.267 28.267M16.6 28.267L16.667 28.333L16.6 28.267M17.6 28.267L17.667 28.333L17.6 28.267M32.267 28.267L32.333 28.333L32.267 28.267M33.267 28.267L33.333 28.333L33.267 28.267M48.267 28.267L48.267 28.467L48.333 28.467L48.267 28.267M15.333 28.333L15.4 28.4L15.333 28.333M16.667 28.333L16.733 28.4L16.667 28.333M17.667 28.333L17.733 28.4L17.667 28.333M32.2 28.333L32.267 28.4L32.2 28.333M33.2 28.333L33.267 28.4L33.2 28.333M15.4 28.4L15.467 28.467L15.4 28.4M17.733 28.4L17.8 28.467L17.733 28.4M32.133 28.4L32.2 28.467L32.133 28.4M33.133 28.4L33.2 28.467L33.133 28.4M34.467 28.4L34.533 28.467L34.467 28.4M15.467 28.467L15.533 28.533L15.467 28.467M17.8 28.467L17.867 28.533L17.8 28.467M32.067 28.467L32.133 28.533L32.067 28.467M33.067 28.467L33.133 28.533L33.067 28.467M34.4 28.467L34.467 28.533L34.4 28.467M1.822 28.578L1.844 28.622L1.822 28.578M32 28.533L32.067 28.6L32 28.533M34.333 28.533L34.4 28.6L34.333 28.533M31.933 28.6L32 28.667L31.933 28.6M34.267 28.6L34.333 28.667L34.267 28.6M16.933 28.667L17 28.733L16.933 28.667z"/>
  <path style="fill:#fdfefe;stroke:none" d="M24.2 35.067L22.933 35.067C22.89 36.064 22.625 37.496 23.379 38.312C24.439 39.46 26.769 38.907 27.089 37.4C27.314 36.336 27.428 34.428 26.522 33.645C25.867 33.08 24.495 33.342 24.288 32.333C24.164 31.73 24.037 30.701 24.345 30.136C24.586 29.694 25.328 29.682 25.62 30.074C26.012 30.6 25.8 31.708 25.8 32.333C26.114 32.334 26.766 32.538 27.026 32.331C27.277 32.133 27.133 31.292 27.133 31C27.133 29.221 26.018 28.382 24.267 28.698C22.735 28.974 22.867 30.595 22.867 31.8C22.867 32.481 22.888 33.27 23.412 33.78C24.127 34.476 25.568 34.137 25.778 35.333C25.868 35.843 25.941 36.876 25.671 37.332C25.393 37.803 24.705 37.842 24.382 37.393C23.986 36.842 24.2 35.712 24.2 35.067z"/>
  <path style="fill:#3e92a4;stroke:none" d="M34.2 28.667L34.267 28.733L34.2 28.667M17 28.733L17.067 28.8L17 28.733M18 28.733L18.067 28.8L18 28.733M32.867 28.733L32.933 28.8L32.867 28.733M34.133 28.733L34.2 28.8L34.133 28.733M48.222 28.778L48.244 28.822L48.222 28.778M15.8 28.8L15.867 28.867L15.8 28.8M17.067 28.8L17.133 28.867L17.067 28.8M18.067 28.8L18.133 28.867L18.067 28.8M31.8 28.8L31.867 28.867L31.8 28.8M32.8 28.8L32.867 28.867L32.8 28.8M34.067 28.8L34.133 28.867L34.067 28.8M15.867 28.867L15.933 28.933L15.867 28.867M17.133 28.867L17.2 28.933L17.133 28.867M18.133 28.867L18.2 28.933L18.133 28.867M31.733 28.867L31.8 28.933L31.733 28.867M32.733 28.867L32.8 28.933L32.733 28.867M34 28.867L34.067 28.933L34 28.867M1.889 28.978L1.911 29.022L1.889 28.978M15.933 28.933L16 29L15.933 28.933M32.667 28.933L32.733 29L32.667 28.933M33.933 28.933L34 29L33.933 28.933M16 29L16.067 29.067L16 29M18.2 29L18.267 29.067L18.2 29M32.6 29L32.667 29.067L32.6 29M33.867 29L33.933 29.067L33.867 29M16.067 29.067L16.133 29.133L16.067 29.067M18.267 29.067L18.333 29.133L18.267 29.067M31.6 29.067L31.667 29.133L31.6 29.067M33.8 29.067L33.867 29.133L33.8 29.067M16.133 29.133L16.2 29.2L16.133 29.133M31.533 29.133L31.6 29.2L31.533 29.133M48.133 29.133L48.2 29.2L48.133 29.133M16.267 29.2L16.333 29.267L16.267 29.2M17.4 29.2L17.467 29.267L17.4 29.2M16.333 29.267L16.4 29.333L16.333 29.267M17.467 29.267L17.533 29.333L17.467 29.267M18.4 29.267L18.467 29.333L18.4 29.267M31.467 29.267L31.533 29.333L31.467 29.267M33.533 29.267L33.6 29.333L33.533 29.267M1.956 29.378L1.978 29.422L1.956 29.378M16.4 29.333L16.467 29.4L16.4 29.333M17.533 29.333L17.6 29.4L17.533 29.333M31.4 29.333L31.467 29.4L31.4 29.333M32.333 29.333L32.4 29.4L32.333 29.333M33.467 29.333L33.533 29.4L33.467 29.333M16.533 29.4L16.6 29.467L16.533 29.4M17.6 29.4L17.667 29.467L17.6 29.4M18.467 29.4L18.533 29.467L18.467 29.4M32.267 29.4L32.333 29.467L32.267 29.4M16.6 29.467L16.667 29.533L16.6 29.467M17.667 29.467L17.733 29.533L17.667 29.467M31.333 29.467L31.4 29.533L31.333 29.467M32.2 29.467L32.267 29.533L32.2 29.467M33.267 29.467L33.333 29.533L33.267 29.467M48.089 29.511L48.111 29.556L48.089 29.511M16.733 29.533L16.8 29.6L16.733 29.533M18.533 29.533L18.6 29.6L18.533 29.533M32.133 29.533L32.2 29.6L32.133 29.533M33.133 29.533L33.2 29.6L33.133 29.533M31.267 29.6L31.333 29.667L31.267 29.6M2.022 29.711L2.044 29.756L2.022 29.711M16.933 29.667L17 29.733L16.933 29.667M32.933 29.667L33 29.733L32.933 29.667M17.067 29.733L17.133 29.8L17.067 29.733M18.667 29.733L18.733 29.8L18.667 29.733M31.2 29.733L31.267 29.8L31.2 29.733M32.8 29.733L32.867 29.8L32.8 29.733M17.2 29.8L17.267 29.867L17.2 29.8M17.933 29.8L18 29.867L17.933 29.8M31.133 29.8L31.2 29.867L31.133 29.8M32.667 29.8L32.733 29.867L32.667 29.8M48.022 29.844L48.044 29.889L48.022 29.844M17.333 29.867L17.4 29.933L17.333 29.867M18 29.867L18.067 29.933L18 29.867M18.733 29.867L18.8 29.933L18.733 29.867M31.867 29.867L31.933 29.933L31.867 29.867M32.533 29.867L32.6 29.933L32.533 29.867M17.467 29.933L17.533 30L17.467 29.933M18.067 29.933L18.133 30L18.067 29.933M31.8 29.933L31.867 30L31.8 29.933M32.4 29.933L32.467 30L32.4 29.933M2.067 30L2.133 30.067L2.067 30M17.644 30.022L17.689 30.044L17.644 30.022M18.133 30L18.2 30.067L18.133 30M18.8 30L18.867 30.067L18.8 30M31.067 30L31.133 30.067L31.067 30M31.733 30L31.8 30.067L31.733 30M32.2 30L32.267 30.067L32.2 30M17.867 30.067L17.933 30.133L17.867 30.067M18.2 30.067L18.267 30.133L18.2 30.067M31.667 30.067L31.733 30.133L31.667 30.067M32 30.067L32.067 30.133L32 30.067M18.111 30.156L18.156 30.178L18.111 30.156M31 30.133L31.067 30.2L31 30.133M31.6 30.133L31.667 30.2L31.6 30.133M31.778 30.156L31.822 30.178L31.778 30.156M47.933 30.133L48 30.2L47.933 30.133M18.867 30.2L18.933 30.267L18.867 30.2M2.156 30.311L2.178 30.356L2.156 30.311M30.933 30.267L31 30.333L30.933 30.267M18.933 30.333L19 30.4L18.933 30.333M30.889 30.444L30.911 30.489L30.889 30.444M47.889 30.444L47.911 30.489L47.889 30.444M19.022 30.511L19.044 30.556L19.022 30.511M2.2 30.6L2.267 30.667L2.2 30.6M30.8 30.6L30.867 30.667L30.8 30.6M19.089 30.711L19.111 30.756L19.089 30.711M47.822 30.711L47.844 30.756L47.822 30.711M30.733 30.8L30.8 30.867L30.733 30.8M2.267 30.867L2.333 30.933L2.267 30.867M19.156 30.911L19.178 30.956L19.156 30.911M47.733 30.933L47.8 31L47.733 30.933M30.689 31.044L30.711 31.089L30.689 31.044M2.356 31.111L2.378 31.156L2.356 31.111M19.222 31.111L19.244 31.156L19.222 31.111M30.622 31.244L30.644 31.289L30.622 31.244M47.667 31.2L47.733 31.267L47.667 31.2M2.4 31.333L2.467 31.4L2.4 31.333M19.289 31.378L19.311 31.422L19.289 31.378M47.622 31.444L47.644 31.489L47.622 31.444M30.533 31.467L30.533 31.667L30.6 31.667L30.533 31.467M2.489 31.578L2.511 31.622L2.489 31.578M19.356 31.644L19.378 31.689L19.356 31.644M47.533 31.667L47.6 31.733L47.533 31.667M2.533 31.8L2.6 31.867L2.533 31.8M30.489 31.844L30.511 31.889L30.489 31.844M19.422 31.911L19.444 31.956L19.422 31.911M47.467 31.867L47.533 31.933L47.467 31.867M2.6 32L2.667 32.067L2.6 32M30.422 32.111L30.444 32.156L30.422 32.111M47.4 32.067L47.467 32.133L47.4 32.067M19.489 32.178L19.511 32.222L19.489 32.178M2.667 32.2L2.733 32.267L2.667 32.2M47.356 32.311L47.378 32.356L47.356 32.311M30.356 32.378L30.378 32.422L30.356 32.378M2.733 32.4L2.8 32.467L2.733 32.4M19.556 32.444L19.578 32.489L19.556 32.444M47.267 32.533L47.333 32.6L47.267 32.533M2.8 32.6L2.867 32.667L2.8 32.6M30.289 32.644L30.311 32.689L30.289 32.644M19.622 32.711L19.644 32.756L19.622 32.711M47.2 32.733L47.267 32.8L47.2 32.733M2.867 32.8L2.933 32.867L2.867 32.8M30.2 32.867L30.267 32.933L30.2 32.867M19.667 32.933L19.733 33L19.667 32.933M47.133 32.933L47.2 33L47.133 32.933M2.933 33L3 33.067L2.933 33M30.156 33.111L30.178 33.156L30.156 33.111M47.067 33.067L47.133 33.133L47.067 33.067M19.756 33.178L19.778 33.222L19.756 33.178M3 33.2L3.067 33.267L3 33.2M30.089 33.311L30.111 33.356L30.089 33.311M47 33.267L47.067 33.333L47 33.267M3.067 33.333L3.133 33.4L3.067 33.333M19.822 33.378L19.844 33.422L19.822 33.378M46.933 33.4L47 33.467L46.933 33.4M30.022 33.511L30.044 33.556L30.022 33.511M3.133 33.533L3.2 33.6L3.133 33.533M19.889 33.578L19.911 33.622L19.889 33.578M46.867 33.6L46.933 33.667L46.867 33.6M3.2 33.667L3.267 33.733L3.2 33.667M29.956 33.711L29.978 33.756L29.956 33.711M19.933 33.733L20 33.8L19.933 33.733M46.8 33.8L46.867 33.867L46.8 33.8M3.267 33.867L3.333 33.933L3.267 33.867M29.889 33.911L29.911 33.956L29.889 33.911M20 33.933L20.067 34L20 33.933M46.733 33.933L46.8 34L46.733 33.933M3.333 34L3.4 34.067L3.333 34M20.067 34.067L20.133 34.133L20.067 34.067M29.8 34.067L29.867 34.133L29.8 34.067M3.4 34.2L3.467 34.267L3.4 34.2M29.756 34.244L29.778 34.289L29.756 34.244M20.133 34.267L20.2 34.333L20.133 34.267M46.6 34.267L46.667 34.333L46.6 34.267M3.467 34.333L3.533 34.4L3.467 34.333M20.2 34.4L20.267 34.467L20.2 34.4M29.667 34.4L29.733 34.467L29.667 34.4M46.533 34.4L46.6 34.467L46.533 34.4M3.533 34.467L3.6 34.533L3.533 34.467M29.6 34.533L29.667 34.6L29.6 34.533M20.267 34.6L20.333 34.667L20.267 34.6M29.533 34.667L29.6 34.733L29.533 34.667M20.333 34.733L20.4 34.8L20.333 34.733M46.4 34.733L46.467 34.8L46.4 34.733M3.667 34.8L3.733 34.867L3.667 34.8M29.467 34.8L29.533 34.867L29.467 34.8M20.4 34.867L20.467 34.933L20.4 34.867M46.333 34.867L46.4 34.933L46.333 34.867M3.733 34.933L3.8 35L3.733 34.933M29.4 34.933L29.467 35L29.4 34.933M46.267 35L46.333 35.067L46.267 35M3.8 35.067L3.867 35.133L3.8 35.067M20.533 35.067L20.6 35.133L20.533 35.067M29.333 35.067L29.4 35.133L29.333 35.067M46.2 35.133L46.267 35.2L46.2 35.133M3.867 35.2L3.933 35.267L3.867 35.2M20.6 35.2L20.667 35.267L20.6 35.2M29.267 35.2L29.333 35.267L29.267 35.2M46.133 35.267L46.2 35.333L46.133 35.267M3.933 35.333L4 35.4L3.933 35.333M20.667 35.333L20.733 35.4L20.667 35.333M20.733 35.4L20.8 35.467L20.733 35.4M29.133 35.4L29.2 35.467L29.133 35.4M46.067 35.4L46.133 35.467L46.067 35.4M4 35.467L4.067 35.533L4 35.467M20.8 35.533L20.867 35.6L20.8 35.533M29.067 35.533L29.133 35.6L29.067 35.533M46 35.533L46.067 35.6L46 35.533M4.067 35.6L4.133 35.667L4.067 35.6M20.867 35.667L20.933 35.733L20.867 35.667M45.933 35.667L46 35.733L45.933 35.667M4.133 35.733L4.2 35.8L4.133 35.733M28.933 35.733L29 35.8L28.933 35.733M45.867 35.8L45.933 35.867L45.867 35.8M4.2 35.867L4.267 35.933L4.2 35.867M21 35.867L21.067 35.933L21 35.867M28.867 35.867L28.933 35.933L28.867 35.867M45.8 35.933L45.867 36L45.8 35.933M4.267 36L4.333 36.067L4.267 36M21.067 36L21.133 36.067L21.067 36M28.8 36L28.867 36.067L28.8 36M4.333 36.133L4.4 36.2L4.333 36.133M21.133 36.133L21.2 36.2L21.133 36.133M28.667 36.2L28.733 36.267L28.667 36.2M21.267 36.333L21.333 36.4L21.267 36.333M28.6 36.333L28.667 36.4L28.6 36.333M45.533 36.4L45.6 36.467L45.533 36.4M4.533 36.467L4.6 36.533L4.533 36.467M21.333 36.467L21.4 36.533L21.333 36.467M28.533 36.467L28.6 36.533L28.533 36.467M28.467 36.533L28.533 36.6L28.467 36.533M45.467 36.533L45.533 36.6L45.467 36.533M4.6 36.6L4.667 36.667L4.6 36.6M21.467 36.667L21.533 36.733L21.467 36.667M28.4 36.667L28.467 36.733L28.4 36.667M4.667 36.733L4.733 36.8L4.667 36.733M21.533 36.8L21.6 36.867L21.533 36.8M28.333 36.8L28.4 36.867L28.333 36.8M45.267 36.867L45.333 36.933L45.267 36.867M4.8 36.933L4.867 37L4.8 36.933M21.6 36.933L21.667 37L21.6 36.933M28.2 37L28.267 37.067L28.2 37M45.2 37L45.267 37.067L45.2 37M4.867 37.067L4.933 37.133L4.867 37.067M21.733 37.133L21.8 37.2L21.733 37.133M28.133 37.133L28.2 37.2L28.133 37.133M45.067 37.2L45.133 37.267L45.067 37.2M5 37.267L5.067 37.333L5 37.267M21.8 37.267L21.867 37.333L21.8 37.267M28.067 37.267L28.133 37.333L28.067 37.267M45 37.333L45.067 37.4L45 37.333M5.067 37.4L5.133 37.467L5.067 37.4M21.867 37.4L21.933 37.467L21.867 37.4M21.933 37.467L22 37.533L21.933 37.467M27.933 37.467L28 37.533L27.933 37.467M44.867 37.533L44.933 37.6L44.867 37.533M5.2 37.6L5.267 37.667L5.2 37.6M22 37.6L22.067 37.667L22 37.6M27.867 37.6L27.933 37.667L27.867 37.6M22.067 37.733L22.133 37.8L22.067 37.733M27.8 37.733L27.867 37.8L27.8 37.733M44.733 37.733L44.8 37.8L44.733 37.733M5.333 37.8L5.4 37.867L5.333 37.8M27.756 37.911L27.778 37.956L27.756 37.911M22.133 37.933L22.2 38L22.133 37.933M44.6 37.933L44.667 38L44.6 37.933M5.467 38L5.533 38.067L5.467 38M27.689 38.111L27.711 38.156L27.689 38.111M22.222 38.178L22.244 38.222L22.222 38.178M44.467 38.133L44.533 38.2L44.467 38.133M5.6 38.2L5.667 38.267L5.6 38.2M27.622 38.378L27.644 38.422L27.622 38.378M44.333 38.333L44.4 38.4L44.333 38.333M5.733 38.4L5.8 38.467L5.733 38.4M22.289 38.444L22.311 38.489L22.289 38.444M44.2 38.533L44.267 38.6L44.2 38.533M5.867 38.6L5.933 38.667L5.867 38.6M27.556 38.644L27.578 38.689L27.556 38.644M44.133 38.6L44.2 38.667L44.133 38.6M22.356 38.711L22.378 38.756L22.356 38.711M44 38.8L44.067 38.867L44 38.8M6.067 38.867L6.133 38.933L6.067 38.867M27.467 38.867L27.467 39.067L27.533 39.067L27.467 38.867M22.4 39L22.4 39.267L22.467 39.267L22.4 39M43.8 39.067L43.867 39.133L43.8 39.067M6.267 39.133L6.333 39.2L6.267 39.133M27.4 39.333L27.4 39.867L27.467 39.867L27.4 39.333M43.6 39.333L43.667 39.4L43.6 39.333M6.467 39.4L6.533 39.467L6.467 39.4M6.533 39.467L6.6 39.533L6.533 39.467M22.467 39.6L22.467 40L22.533 40L22.467 39.6M43.4 39.6L43.467 39.667L43.4 39.6M43.333 39.667L43.4 39.733L43.333 39.667M6.733 39.733L6.8 39.8L6.733 39.733M6.8 39.8L6.867 39.867L6.8 39.8M43.067 40L43.133 40.067L43.067 40M43 40.067L43.067 40.133L43 40.067M7.067 40.133L7.133 40.2L7.067 40.133M22.533 40.133L22.533 40.333L22.6 40.333L22.533 40.133M27.356 40.178L27.378 40.222L27.356 40.178M7.133 40.2L7.2 40.267L7.133 40.2M22.622 40.444L22.644 40.489L22.622 40.444M27.267 40.4L27.333 40.467L27.267 40.4M42.667 40.467L42.733 40.533L42.667 40.467M42.6 40.533L42.667 40.6L42.6 40.533M7.467 40.6L7.533 40.667L7.467 40.6M22.689 40.644L22.711 40.689L22.689 40.644M27.2 40.6L27.267 40.667L27.2 40.6M42.533 40.6L42.6 40.667L42.533 40.6M7.533 40.667L7.6 40.733L7.533 40.667M7.6 40.733L7.667 40.8L7.6 40.733M27.133 40.733L27.2 40.8L27.133 40.733M7.667 40.8L7.733 40.867L7.667 40.8M22.733 40.8L22.8 40.867L22.733 40.8M27.067 40.867L27.133 40.933L27.067 40.867M22.8 40.933L22.867 41L22.8 40.933M27 41L27.067 41.067L27 41M22.933 41.133L23 41.2L22.933 41.133M26.933 41.133L27 41.2L26.933 41.133M26.867 41.2L26.933 41.267L26.867 41.2M42 41.2L42.067 41.267L42 41.2M41.933 41.267L42 41.333L41.933 41.267M23.067 41.333L23.133 41.4L23.067 41.333M41.867 41.333L41.933 41.4L41.867 41.333M23.133 41.4L23.2 41.467L23.133 41.4M41.8 41.4L41.867 41.467L41.8 41.4M23.2 41.467L23.267 41.533L23.2 41.467M41.733 41.467L41.8 41.533L41.733 41.467M23.267 41.533L23.333 41.6L23.267 41.533M41.667 41.533L41.733 41.6L41.667 41.533M23.333 41.6L23.4 41.667L23.333 41.6M41.6 41.6L41.667 41.667L41.6 41.6M23.4 41.667L23.467 41.733L23.4 41.667M41.533 41.667L41.6 41.733L41.533 41.667M23.533 41.733L23.6 41.8L23.533 41.733M26.333 41.733L26.4 41.8L26.333 41.733M41.467 41.733L41.533 41.8L41.467 41.733M23.6 41.8L23.667 41.867L23.6 41.8M41.4 41.8L41.467 41.867L41.4 41.8M23.733 41.867L23.8 41.933L23.733 41.867M26.133 41.867L26.2 41.933L26.133 41.867M23.933 42L24 42.067L23.933 42M25.933 42L26 42.067L25.933 42M24.111 42.089L24.156 42.111L24.111 42.089M25.733 42.067L25.8 42.133L25.733 42.067M24.311 42.156L24.356 42.178L24.311 42.156M25.511 42.156L25.556 42.178L25.511 42.156M24.8 42.2L24.8 42.267L25.067 42.267L24.8 42.2M9.133 42.267L9.2 42.333L9.133 42.267M9.2 42.333L9.267 42.4L9.2 42.333M9.267 42.4L9.333 42.467L9.267 42.4M9.333 42.467L9.4 42.533L9.333 42.467M40.667 42.467L40.733 42.533L40.667 42.467M40.6 42.533L40.667 42.6L40.6 42.533M40.533 42.6L40.6 42.667L40.533 42.6M9.8 42.867L9.867 42.933L9.8 42.867M40.2 42.867L40.267 42.933L40.2 42.867M9.867 42.933L9.933 43L9.867 42.933M40.133 42.933L40.2 43L40.133 42.933M40.067 43L40.133 43.067L40.067 43M10.133 43.133L10.2 43.2L10.133 43.133M10.2 43.2L10.267 43.267L10.2 43.2M39.733 43.267L39.8 43.333L39.733 43.267M39.667 43.333L39.733 43.4L39.667 43.333M10.533 43.467L10.6 43.533L10.533 43.467M39.4 43.533L39.467 43.6L39.4 43.533M10.8 43.667L10.867 43.733L10.8 43.667M10.867 43.733L10.933 43.8L10.867 43.733M39.133 43.733L39.2 43.8L39.133 43.733M11.133 43.933L11.2 44L11.133 43.933M38.867 43.933L38.933 44L38.867 43.933M11.333 44.067L11.4 44.133L11.333 44.067M38.667 44.067L38.733 44.133L38.667 44.067M11.6 44.267L11.667 44.333L11.6 44.267M38.4 44.267L38.467 44.333L38.4 44.267M11.8 44.4L11.867 44.467L11.8 44.4M38.2 44.4L38.267 44.467L38.2 44.4M12 44.533L12.067 44.6L12 44.533M38 44.533L38.067 44.6L38 44.533M12.2 44.667L12.267 44.733L12.2 44.667M37.8 44.667L37.867 44.733L37.8 44.667M12.4 44.8L12.467 44.867L12.4 44.8M37.6 44.8L37.667 44.867L37.6 44.8M37.467 44.867L37.533 44.933L37.467 44.867M12.6 44.933L12.667 45L12.6 44.933M12.733 45L12.8 45.067L12.733 45M37.267 45L37.333 45.067L37.267 45M12.933 45.133L13 45.2L12.933 45.133M37.067 45.133L37.133 45.2L37.067 45.133M13.067 45.2L13.133 45.267L13.067 45.2M36.933 45.2L37 45.267L36.933 45.2M13.4 45.4L13.467 45.467L13.4 45.4M36.6 45.4L36.667 45.467L36.6 45.4M13.533 45.467L13.6 45.533L13.533 45.467M36.467 45.467L36.533 45.533L36.467 45.467M13.667 45.533L13.733 45.6L13.667 45.533M36.333 45.533L36.4 45.6L36.333 45.533M14 45.733L14.067 45.8L14 45.733M36 45.733L36.067 45.8L36 45.733M14.133 45.8L14.2 45.867L14.133 45.8M35.867 45.8L35.933 45.867L35.867 45.8M14.267 45.867L14.333 45.933L14.267 45.867M35.733 45.867L35.8 45.933L35.733 45.867M14.4 45.933L14.467 46L14.4 45.933M35.6 45.933L35.667 46L35.6 45.933M14.533 46L14.6 46.067L14.533 46M35.467 46L35.533 46.067L35.467 46M14.667 46.067L14.733 46.133L14.667 46.067M35.333 46.067L35.4 46.133L35.333 46.067M14.8 46.133L14.867 46.2L14.8 46.133M35.2 46.133L35.267 46.2L35.2 46.133M14.933 46.2L15 46.267L14.933 46.2M35.067 46.2L35.133 46.267L35.067 46.2M34.933 46.267L35 46.333L34.933 46.267M15.4 46.4L15.467 46.467L15.4 46.4M34.6 46.4L34.667 46.467L34.6 46.4M15.533 46.467L15.6 46.533L15.533 46.467M34.467 46.467L34.533 46.533L34.467 46.467M15.667 46.533L15.733 46.6L15.667 46.533M34.333 46.533L34.4 46.6L34.333 46.533M34.133 46.6L34.2 46.667L34.133 46.6M16 46.667L16.067 46.733L16 46.667M34 46.667L34.067 46.733L34 46.667M16.133 46.733L16.2 46.8L16.133 46.733M33.867 46.733L33.933 46.8L33.867 46.733M16.333 46.8L16.4 46.867L16.333 46.8M33.667 46.8L33.733 46.867L33.667 46.8M16.467 46.867L16.533 46.933L16.467 46.867M33.533 46.867L33.6 46.933L33.533 46.867M16.667 46.933L16.733 47L16.667 46.933M33.333 46.933L33.4 47L33.333 46.933M16.867 47L16.933 47.067L16.867 47M17.067 47.067L17.133 47.133L17.067 47.067M33 47.067L33.067 47.133L33 47.067M17.267 47.133L17.333 47.2L17.267 47.133M32.8 47.133L32.867 47.2L32.8 47.133M17.467 47.2L17.533 47.267L17.467 47.2M32.6 47.2L32.667 47.267L32.6 47.2M17.667 47.267L17.733 47.333L17.667 47.267M32.4 47.267L32.467 47.333L32.4 47.267M17.8 47.333L17.867 47.4L17.8 47.333M32.2 47.333L32.267 47.4L32.2 47.333M18.067 47.4L18.133 47.467L18.067 47.4M32 47.4L32.067 47.467L32 47.4M18.267 47.467L18.333 47.533L18.267 47.467M31.778 47.489L31.822 47.511L31.778 47.489M18.533 47.533L18.6 47.6L18.533 47.533M31.533 47.533L31.6 47.6L31.533 47.533M18.733 47.6L18.8 47.667L18.733 47.6M31.267 47.6L31.333 47.667L31.267 47.6M19 47.667L19.067 47.733L19 47.667M31.044 47.689L31.089 47.711L31.044 47.689M19.267 47.733L19.333 47.8L19.267 47.733M30.8 47.733L30.867 47.8L30.8 47.733M19.533 47.8L19.6 47.867L19.533 47.8M30.511 47.822L30.556 47.844L30.511 47.822M19.8 47.867L19.867 47.933L19.8 47.867M30.2 47.867L30.267 47.933L30.2 47.867M20.111 47.956L20.156 47.978L20.111 47.956M29.911 47.956L29.956 47.978L29.911 47.956M20.444 48.022L20.489 48.044L20.444 48.022M29.6 48L29.667 48.067L29.6 48M20.778 48.089L20.822 48.111L20.778 48.089M29.244 48.089L29.289 48.111L29.244 48.089M21.178 48.156L21.222 48.178L21.178 48.156M28.844 48.156L28.889 48.178L28.844 48.156M21.578 48.222L21.622 48.244L21.578 48.222M28.4 48.2L28.4 48.267L28.6 48.267L28.4 48.2M22 48.267L22 48.333L22.2 48.333L22 48.267M27.867 48.267L27.867 48.333L28.067 48.333L27.867 48.267M22.6 48.333L22.6 48.4L22.8 48.4L22.6 48.333M27.444 48.356L27.489 48.378L27.444 48.356M23.4 48.4L23.4 48.467L23.733 48.467L23.4 48.4M26.467 48.4L26.467 48.467L26.733 48.467L26.467 48.4z"/>
</svg>
